<svg xmlns="http://www.w3.org/2000/svg" width="16" height="16" viewBox="0 0 16 16">
  <path fill-rule="evenodd" d="M6.823.67a1.404 1.404 0 0 1 2.354 0l.319.493c.281.435.829.613 1.313.427l.547-.212a1.403 1.403 0 0 1 1.904 1.384l-.031.586c-.028.517.31.984.811 1.117l.567.151a1.4 1.4 0 0 1 .728 2.238l-.371.456a1.096 1.096 0 0 0 0 1.38l.371.456a1.404 1.404 0 0 1-.728 2.238l-.567.151c-.501.133-.839.6-.811 1.117l.031.586a1.403 1.403 0 0 1-1.904 1.384l-.547-.212a1.095 1.095 0 0 0-1.313.427l-.319.493a1.404 1.404 0 0 1-2.354 0l-.319-.493a1.095 1.095 0 0 0-1.313-.427l-.547.212a1.403 1.403 0 0 1-1.904-1.384l.031-.586a1.094 1.094 0 0 0-.811-1.117l-.567-.151a1.4 1.4 0 0 1-.728-2.238l.371-.456a1.096 1.096 0 0 0 0-1.38l-.371-.456a1.404 1.404 0 0 1 .728-2.238l.567-.151c.501-.133.839-.6.811-1.117l-.031-.586a1.403 1.403 0 0 1 1.904-1.384l.547.212a1.095 1.095 0 0 0 1.313-.427L6.823.67zm3.735 3.897a.791.791 0 0 0-1.107.159L5.197 10.41a.79.79 0 1 0 1.266.948l4.255-5.684a.791.791 0 0 0-.16-1.107zm0 3.432a1.822 1.822 0 0 1 0 3.642 1.822 1.822 0 0 1 0-3.642zm0 1.288a.533.533 0 1 1 0 1.067.533.533 0 0 1 0-1.067zM5.356 4.358a1.822 1.822 0 1 1-1.821 1.821c0-1.005.816-1.821 1.821-1.821zm0 1.288a.533.533 0 1 1-.001 1.065.533.533 0 0 1 .001-1.065z"/>
</svg>
