<svg xmlns="http://www.w3.org/2000/svg" width="16" height="16" viewBox="0 0 16 16">
  <path fill-rule="evenodd" d="M13 1a2 2 0 0 1 2 2v10a2 2 0 0 1-2 2H3a2 2 0 0 1-2-2V3a2 2 0 0 1 2-2h10zm-.856 10a.857.857 0 1 1-.002 1.714.857.857 0 0 1 .002-1.714zm-.431-2a1 1 0 0 0 0-2h-.801A1.912 1.912 0 0 1 9 5.088v-.801a1 1 0 0 0-2 0v.801A1.912 1.912 0 0 1 5.088 7h-.801a1 1 0 0 0 0 2h.801C6.144 9 7 9.856 7 10.912v.801a1 1 0 0 0 2 0v-.801C9 9.856 9.856 9 10.912 9h.801zm-.141-5a.573.573 0 1 1-.001 1.145A.573.573 0 0 1 11.572 4zM4 3a1 1 0 1 1 0 2 1 1 0 0 1 0-2z"/>
</svg>
