<svg xmlns="http://www.w3.org/2000/svg" width="16" height="16" viewBox="0 0 16 16">
  <path fill-rule="evenodd" d="M13.003 0a1.004 1.004 0 0 1 .858.492l.007.012 1.998 3.46c.097.169.14.354.133.536a.996.996 0 0 1-.133.536L14.155 8l1.711 2.964c.097.169.14.354.133.536a.996.996 0 0 1-.133.536l-.923 1.598a1 1 0 0 1-1.732-1l.655-1.134L12.423 9H9.598l-1.454 2.518L9.577 14H11a1 1 0 0 1 0 2H8.997a1.004 1.004 0 0 1-.858-.492l-.001-.001-.001-.001v-.001l-.005-.009-1.73-2.996H2.997a1.004 1.004 0 0 1-.858-.492l-.001-.001-.001-.001v-.001a.04.04 0 0 1-.005-.009L.134 8.536A.998.998 0 0 1 .001 8a.996.996 0 0 1 .133-.536l1.995-3.456.017-.029a1.001 1.001 0 0 1 .851-.479h3.405L8.129.508 8.146.48A.995.995 0 0 1 8.997 0h4.006zM3.577 5.5L2.134 8l1.443 2.5h2.825L7.845 8 6.402 5.5H3.577zm6-3.5L8.144 4.482 9.598 7h2.825l1.443-2.5L12.423 2H9.577z"/>
</svg>
