<svg xmlns="http://www.w3.org/2000/svg" width="16" height="16" viewBox="0 0 16 16">
  <path fill-rule="evenodd" d="M3.869 1.149A.998.998 0 0 1 5.394 2c0 .36-.19.676-.476.852a7.28 7.28 0 0 0-.458.31A5.99 5.99 0 0 0 2.005 8a6 6 0 0 0 5.441 5.97s.27.028.554.03a1 1 0 0 1 .007 2H8c-4.415 0-8-3.585-8-8a8.007 8.007 0 0 1 3.869-6.851zM8.026 0A8.004 8.004 0 0 1 16 8a7.975 7.975 0 0 1-3.857 6.839l-.064.038a.998.998 0 0 1-1.48-.877 1 1 0 0 1 .5-.866 8.8 8.8 0 0 0 .411-.275A5.987 5.987 0 0 0 13.995 8a5.998 5.998 0 0 0-5.478-5.973S8.148 2.001 8 2A1 1 0 0 1 7.957.001V0h.069z"/>
</svg>
