<svg xmlns="http://www.w3.org/2000/svg" width="16" height="16" viewBox="0 0 16 16">
  <path fill-rule="evenodd" d="M.862 11.609a7.816 7.816 0 0 1-.548-1.391 1 1 0 0 1 1.916-.574c.029.095.057.18.082.252h.001a6.5 6.5 0 0 0 .096.266l.005.014a5.995 5.995 0 0 0 3.506 3.447s.253.097.527.173a1 1 0 0 1-.511 1.933l-.007-.002a7.978 7.978 0 0 1-5.067-4.118zm12.827-1.713c.032-.095.072-.217.107-.343a1 1 0 0 1 1.933.511l-.002.007a8.223 8.223 0 0 1-.196.63l-.003.008-.002.005a7.978 7.978 0 0 1-5.294 4.964c-.024.008-.048.014-.072.02a1 1 0 0 1-.496-1.937c.168-.048.468-.159.468-.159a5.99 5.99 0 0 0 3.556-3.706h.001zM1.108 3.937A8.008 8.008 0 0 1 5.782.314a1 1 0 0 1 .574 1.916c-.317.098-.523.181-.523.181a5.99 5.99 0 0 0-3.462 3.525l-.007.019s-.121.349-.16.492a1 1 0 0 1-1.942-.475v-.001l.011-.041.006-.025a8 8 0 0 1 .829-1.968zm12.496 1.934a5.995 5.995 0 0 0-3.559-3.507s-.349-.121-.492-.16a1 1 0 0 1 .475-1.942h.001l.041.011.025.006a7.996 7.996 0 0 1 5.494 5.191l-.003.001a11.245 11.245 0 0 1 .112.369 1 1 0 0 1-1.937.496c-.045-.157-.145-.43-.157-.465z"/>
</svg>
