<svg xmlns="http://www.w3.org/2000/svg" width="16" height="16" viewBox="0 0 16 16">
  <path fill-rule="evenodd" d="M7.376 11.329a.756.756 0 0 1 1.248 0l2.221 3.353A.833.833 0 0 1 10.167 16H5.833a.833.833 0 0 1-.711-1.267l.033-.051 2.207-3.332.014-.021zm-3.379 1.399A.607.607 0 0 1 3.49 13H2a2 2 0 0 1-2-2V3a2 2 0 0 1 2-2h12a2 2 0 0 1 2 2v8a2 2 0 0 1-2 2h-1.495a.6.6 0 0 1-.5-.269l-.974-1.47a.168.168 0 1 1 .14-.261h2.401a.428.428 0 0 0 .428-.428V3.428A.428.428 0 0 0 13.572 3H2.428A.428.428 0 0 0 2 3.428v7.144c0 .236.192.428.428.428h2.401a.168.168 0 0 1 .14.261l-.972 1.467z"/>
</svg>
