<svg xmlns="http://www.w3.org/2000/svg" width="16" height="16" viewBox="0 0 16 16">
  <path fill-rule="evenodd" d="M12 0a2 2 0 0 1 2 2v11a2 2 0 0 1-2 2H4a2 2 0 0 1-2-2V2a2 2 0 0 1 2-2h8zM5.75 12h-1.5a.25.25 0 0 0-.25.25v.5c0 .138.112.25.25.25h1.5a.25.25 0 0 0 .25-.25v-.5a.25.25 0 0 0-.25-.25zm3.25.25a.25.25 0 0 0-.25-.25h-1.5a.25.25 0 0 0-.25.25v.5c0 .138.112.25.25.25h1.5a.25.25 0 0 0 .25-.25v-.5zm2.75-.25h-1.5a.25.25 0 0 0-.25.25v.5c0 .138.112.25.25.25h1.5a.25.25 0 0 0 .25-.25v-.5a.25.25 0 0 0-.25-.25zm.25-1.75a.25.25 0 0 0-.25-.25h-1.5a.25.25 0 0 0-.25.25v.5c0 .138.112.25.25.25h1.5a.25.25 0 0 0 .25-.25v-.5zM8.75 10h-1.5a.25.25 0 0 0-.25.25v.5c0 .138.112.25.25.25h1.5a.25.25 0 0 0 .25-.25v-.5a.25.25 0 0 0-.25-.25zM6 10.25a.25.25 0 0 0-.25-.25h-1.5a.25.25 0 0 0-.25.25v.5c0 .138.112.25.25.25h1.5a.25.25 0 0 0 .25-.25v-.5zM5.75 8h-1.5a.25.25 0 0 0-.25.25v.5c0 .138.112.25.25.25h1.5A.25.25 0 0 0 6 8.75v-.5A.25.25 0 0 0 5.75 8zM9 8.25A.25.25 0 0 0 8.75 8h-1.5a.25.25 0 0 0-.25.25v.5c0 .138.112.25.25.25h1.5A.25.25 0 0 0 9 8.75v-.5zM11.75 8h-1.5a.25.25 0 0 0-.25.25v.5c0 .138.112.25.25.25h1.5a.25.25 0 0 0 .25-.25v-.5a.25.25 0 0 0-.25-.25zM12 2.586A.587.587 0 0 0 11.414 2H4.586A.587.587 0 0 0 4 2.586v2.828c0 .323.263.586.586.586h6.828A.587.587 0 0 0 12 5.414V2.586z"/>
</svg>
