<svg xmlns="http://www.w3.org/2000/svg" width="16" height="16" viewBox="0 0 16 16">
  <path fill-rule="evenodd" d="M8 0c4.415 0 8 3.585 8 8s-3.585 8-8 8-8-3.585-8-8 3.585-8 8-8zM6.99 2.706a.564.564 0 0 1 .823.341l.581 2.168c.08.3-.097.608-.397.688l-.04.009-.714.164s-.595.145-.569.613c.038.669.627 1.626.627 1.626.001.002.535.989 1.095 1.356.392.257.816-.186.816-.186l.498-.537.028-.03a.562.562 0 0 1 .794 0l1.587 1.587a.562.562 0 0 1-.116.883l-1.709.987c-.914.528-1.289.171-1.616.006-.776-.39-1.931-1.246-3.022-3.116l.01-.006-.01.006C4.582 7.385 4.419 5.957 4.468 5.09c.021-.366-.101-.869.813-1.397l1.709-.987z"/>
</svg>
