<svg xmlns="http://www.w3.org/2000/svg" width="16" height="16" viewBox="0 0 16 16">
  <path fill-rule="evenodd" d="M1.364 12.273a1.364 1.364 0 1 1-.002 2.728 1.364 1.364 0 0 1 .002-2.728zM2.621 3a.62.62 0 0 0-.586.416l-.002.004A1.045 1.045 0 0 1 0 3.074V3a2 2 0 0 1 2-2h12a2 2 0 0 1 2 2v10a2 2 0 0 1-2 2h-2l-.021-.001A.998.998 0 0 1 12 13h1.38a.62.62 0 0 0 .62-.621V3.621A.62.62 0 0 0 13.38 3H2.621zM.895 8.659a5.002 5.002 0 0 1 5.434 5.434l-.024.146a.909.909 0 0 1-1.806-.145v-.001a3.184 3.184 0 0 0-3.604-3.604A.912.912 0 0 1 .77 8.68l.125-.021zm.042-1.832a.9.9 0 1 1-.071-1.802l.187-.018c.098-.003.197-.005.297-.005 4.766 0 8.636 3.87 8.636 8.637 0 .152-.004.304-.012.454v.004a.911.911 0 0 1-1.821-.003v-.001a6.821 6.821 0 0 0-7.104-7.266H.937z"/>
</svg>
