<svg xmlns="http://www.w3.org/2000/svg" width="16" height="16" viewBox="0 0 16 16">
  <path fill-rule="evenodd" d="M7 12.384l-.384.383a.999.999 0 1 1-1.414-1.414l2.06-2.06A.999.999 0 0 1 8 9a.999.999 0 0 1 .738.293l2.06 2.06a1 1 0 0 1-1.414 1.414L9 12.384V15a1 1 0 0 1-2 0v-2.616zm-3.698.618l-.058.001A3.246 3.246 0 0 1 0 9.758c0-1.31.779-2.44 1.898-2.952a3.289 3.289 0 0 1 3.535-4.548 4.142 4.142 0 0 1 7.798 2.385A4.328 4.328 0 0 1 16 8.679a4.328 4.328 0 0 1-3.273 4.195 2.607 2.607 0 0 0-.645-2.624L9.844 8.012a2.588 2.588 0 0 0-1.829-.764h-.022a2.603 2.603 0 0 0-1.851.764L3.904 10.25a2.611 2.611 0 0 0-.602 2.752z"/>
</svg>
