<svg xmlns="http://www.w3.org/2000/svg" width="16" height="16" viewBox="0 0 16 16">
  <path fill-rule="evenodd" d="M8.875 2c.003 0 1.516-.026 2.28.635.825.714.845 1.99.845 1.99v3.412s.003 1.885-.754 2.756c-.757.872-2.431 1.886-2.96 2.614-.529.729-.834 1.722-1.672 1.722-.837 0-1.239-.521-1.239-1.311 0-.377.349-1.144.349-2.193 0-.408-.34-.625-.893-.625H3c-1.263 0-2-.771-2-2 0-.653.359-1.223.889-1.524a1.751 1.751 0 0 1 .876-1.75 1.751 1.751 0 0 1 .875-1.75A1.75 1.75 0 0 1 5.375 2h3.5zM13 9.438c0 .724.276 1.312 1 1.312s1-.588 1-1.312V3.313C15 2.588 14.724 2 14 2s-1 .588-1 1.313v6.125z"/>
</svg>
