<svg xmlns="http://www.w3.org/2000/svg" width="16" height="16" viewBox="0 0 16 16">
  <path fill-rule="evenodd" d="M7.627 13.203l4.237-4.237 2.17 2.17-3.152 3.152-1.085 1.085c-.001.001-.243.225-.712.314l-1.621.306a.438.438 0 0 1-.36-.097.438.438 0 0 1-.097-.36l.306-1.621c.089-.468.312-.71.314-.712zM5.544 14H3a2 2 0 0 1-2-2V2a2 2 0 0 1 2-2h8a2 2 0 0 1 2 2v3.077l-1.682 1.681-.429.429A.497.497 0 0 0 10.5 7h-7a.5.5 0 0 0 0 1h6.576a4706.774 4706.774 0 0 0-3.691 3.694c-.004.004-.509.552-.709 1.611L5.544 14zm9.007-6.812a.643.643 0 0 0-.909 0l-.856.856 2.17 2.17.856-.856a.643.643 0 0 0 0-.909l-1.261-1.261zM7.5 9h-4a.5.5 0 0 0 0 1h4a.5.5 0 0 0 0-1zm3-4h-7a.5.5 0 0 0 0 1h7a.5.5 0 0 0 0-1zm0-2h-7a.5.5 0 0 0 0 1h7a.5.5 0 0 0 0-1z"/>
</svg>
