<svg xmlns="http://www.w3.org/2000/svg" width="16" height="16" viewBox="0 0 16 16">
  <path fill-rule="evenodd" d="M12 15H3a2 2 0 0 1-2-2V4a2 2 0 0 1 2-2h4.044a1.001 1.001 0 0 1 0 2H3.399A.399.399 0 0 0 3 4.399v8.202a.4.4 0 0 0 .399.399h8.202a.4.4 0 0 0 .399-.399V8.986a.997.997 0 0 1 .961-.976C13.489 7.99 14 8.424 14 9v4a2 2 0 0 1-2 2zM5.697 7.892l4.708-4.708 2.411 2.411-3.502 3.503-1.206 1.205c-.001.001-.27.25-.792.349l-1.801.34a.488.488 0 0 1-.4-.107.488.488 0 0 1-.107-.4l.34-1.801c.099-.521.347-.79.349-.792zm7.693-6.683a.714.714 0 0 0-1.01 0l-.951.951 2.411 2.411.951-.951a.714.714 0 0 0 0-1.01L13.39 1.209z"/>
</svg>
