<svg xmlns="http://www.w3.org/2000/svg" width="16" height="16" viewBox="0 0 16 16">
  <path fill-rule="evenodd" d="M1 3.5C1 1.568 4.137 0 8 0s7 1.568 7 3.5v1c0 .377-.119.739-.34 1.079C13.101 8.326 9.483 10.998 9.48 11v2.154c0 .817-.575 1.39-1.327 1.71-.873.371-1.633-.082-1.633-.899V11S2.899 8.327 1.34 5.579a2.276 2.276 0 0 1-.189-.353A1.856 1.856 0 0 1 1 4.5v-1zm7-1.869c2.626 0 4.759.979 4.759 2.184C12.759 5.021 10.626 6 8 6c-2.626 0-4.759-.979-4.759-2.185C3.241 2.61 5.374 1.631 8 1.631z"/>
</svg>
