<svg xmlns="http://www.w3.org/2000/svg" width="16" height="16" viewBox="0 0 16 16">
  <path fill-rule="evenodd" d="M7.125 14.998c-.003 0-1.516.026-2.28-.635-.825-.714-.845-1.99-.845-1.99V8.961s-.003-1.885.754-2.756c.757-.872 2.431-1.886 2.96-2.614.529-.729.834-1.722 1.672-1.722.837 0 1.239.521 1.239 1.311 0 .377-.349 1.144-.349 2.193 0 .408.34.625.893.625H13c1.263 0 2 .771 2 2 0 .653-.359 1.223-.889 1.524a1.751 1.751 0 0 1-.876 1.75 1.751 1.751 0 0 1-.875 1.75 1.75 1.75 0 0 1-1.735 1.976h-3.5zM3 7.56c0-.724-.276-1.312-1-1.312S1 6.836 1 7.56v6.125c0 .725.276 1.313 1 1.313s1-.588 1-1.313V7.56z"/>
</svg>
