<svg xmlns="http://www.w3.org/2000/svg" width="16" height="16" viewBox="0 0 16 16">
  <path fill-rule="evenodd" d="M2.782 10.582a.863.863 0 0 1 1.379-.216l1.473 1.473a.866.866 0 0 1-.216 1.379l-4.275 2.195a.413.413 0 0 1-.556-.556l2.195-4.275zm6.521-7.559l-.184-.184a1.049 1.049 0 1 1 1.484-1.484l4.09 4.09a1.049 1.049 0 1 1-1.484 1.484l-.211-.21c-.527 1.031-1.387 2.486-2.692 4.114l.187.187c.78.78.78 2.047 0 2.828l-.088.088a.5.5 0 0 1-.707 0L2.092 6.33a.499.499 0 0 1 0-.707l.088-.088a2 2 0 0 1 2.828 0l.165.165c1.644-1.294 3.1-2.15 4.13-2.677z"/>
</svg>
