<svg xmlns="http://www.w3.org/2000/svg" width="16" height="16" viewBox="0 0 16 16">
  <path fill-rule="evenodd" d="M7 14.011c-.669 0-1.338-.011-2.006-.011a4.962 4.962 0 0 1-1.94-.394A5.01 5.01 0 0 1 .002 9.129a5.012 5.012 0 0 1 .177-1.458 5.026 5.026 0 0 1 1.798-2.653c.12-.091.242-.187.378-.25.098-.046.2-.072.306-.088.054-.004.106-.006.16-.006.161.011.315.051.456.132a1.01 1.01 0 0 1 .447 1.196 1.006 1.006 0 0 1-.298.434c-.086.073-.184.132-.274.202a3.132 3.132 0 0 0-.719.809 3.014 3.014 0 0 0-.138 2.852 3.04 3.04 0 0 0 1.406 1.405c.383.185.797.279 1.221.295.693.009 1.385.006 2.078.004V9.875C7 9.392 7.348 9 7.778 9c.189 0 .362.076.497.202l3.07 2.59a.911.911 0 0 1 .322.708.911.911 0 0 1-.322.708l-3.07 2.59a.726.726 0 0 1-.497.202c-.43 0-.778-.392-.778-.875v-1.114zM9 3.997v2.128C9 6.608 8.652 7 8.222 7a.726.726 0 0 1-.497-.202l-3.07-2.59a.911.911 0 0 1-.322-.708c0-.291.127-.549.322-.708l3.07-2.59A.726.726 0 0 1 8.222 0C8.652 0 9 .392 9 .875v1.111c.709-.003 1.419.007 2.128.016a4.942 4.942 0 0 1 2.148.546 5.003 5.003 0 0 1 1.038 8.195 4.8 4.8 0 0 1-.352.284c-.086.064-.174.131-.27.181a.985.985 0 0 1-.459.118 1.01 1.01 0 0 1-.949-.649 1.012 1.012 0 0 1-.008-.679c.059-.168.162-.319.298-.434.086-.073.184-.132.274-.202a3.132 3.132 0 0 0 .719-.809 3.014 3.014 0 0 0 .138-2.852 3.04 3.04 0 0 0-1.406-1.405 3.057 3.057 0 0 0-1.221-.295c-.693-.009-1.385-.006-2.078-.004z"/>
</svg>
