<svg xmlns="http://www.w3.org/2000/svg" width="16" height="16" viewBox="0 0 16 16">
  <path fill-rule="evenodd" d="M7.274 13.536a1.285 1.285 0 0 1-1.865.118L.52 9.113A1.466 1.466 0 0 1 0 8c0-.441.201-.839.52-1.113l4.873-4.526a1.282 1.282 0 0 1 1.881.103L2.501 6.897A1.466 1.466 0 0 0 1.993 8c0 .436.196.829.508 1.103l4.773 4.433zm3.725-2.706v1.884a1.286 1.286 0 0 1-2.148.954l-.005-.005a1.037 1.037 0 0 1-.058-.057L4.16 9.095A1.464 1.464 0 0 1 3.661 8c0-.432.192-.821.499-1.095l4.645-4.529a1.286 1.286 0 0 1 2.194.91v1.872c5.184.029 5 4.842 5 4.842v.959L16 11v.656a1 1 0 0 1-1.921.389s-.477-1.213-2.075-1.215h-1.005z"/>
</svg>
