<svg xmlns="http://www.w3.org/2000/svg" width="16" height="16" viewBox="0 0 16 16">
  <path fill-rule="evenodd" d="M10.999 10.995V9.338c0-.483.348-.875.778-.875.189 0 .362.076.497.202l3.07 2.589c.195.16.322.418.322.709a.911.911 0 0 1-.322.708l-3.07 2.589a.722.722 0 0 1-.497.203c-.43 0-.778-.392-.778-.875v-1.592a37.645 37.645 0 0 1-.336-.005 2.48 2.48 0 0 1-1.862-.931l-.535-.695a.602.602 0 0 1-.002-.728l.666-.885a.347.347 0 0 1 .548-.006c.294.369.595.733.905 1.088a.484.484 0 0 0 .339.158l.277.003zm0-8.007V1.412c0-.483.348-.875.778-.875.189 0 .362.076.497.203l3.07 2.589a.911.911 0 0 1 .322.708.915.915 0 0 1-.322.709l-3.07 2.589a.726.726 0 0 1-.497.202c-.43 0-.778-.392-.778-.875V4.979c-.095.003-.19.008-.285.015a.538.538 0 0 0-.353.183c-1.818 2.214-3.404 4.609-5.158 6.874a2.51 2.51 0 0 1-1.879.94c-.442.007-.884.001-1.325.001a.989.989 0 0 1-.924-.617 1.01 1.01 0 0 1 .315-1.176 1.006 1.006 0 0 1 .543-.205c.454-.015.909.029 1.361-.004a.51.51 0 0 0 .336-.174c1.817-2.214 3.405-4.607 5.157-6.873a2.523 2.523 0 0 1 1.899-.95l.313-.005zM5.052 6.337a.346.346 0 0 1-.552-.005 313.63 313.63 0 0 0-.861-1.153.467.467 0 0 0-.353-.187c-.429-.006-.858 0-1.287 0a1.023 1.023 0 0 1-.556-.168 1.01 1.01 0 0 1-.237-1.441.99.99 0 0 1 .727-.389c.471-.015.941-.008 1.412-.001a2.45 2.45 0 0 1 1.846.923c.196.255.39.511.582.769a.602.602 0 0 1-.007.727l-.714.925z"/>
</svg>
