<svg xmlns="http://www.w3.org/2000/svg" width="16" height="16" viewBox="0 0 16 16">
  <path fill-rule="evenodd" d="M7.597 2.011a.596.596 0 0 0-.531.323l-.004.008a1.087 1.087 0 0 1-1.965-.919l.138-.353.001-.002A2 2 0 0 1 7 .011h7a2 2 0 0 1 2 2V11.5c0 1.768-1.599 2.568-1.599 2.568l-2.684 1.791-.001.001a1.164 1.164 0 0 1-1.718-1.027l.001-.155v-.667H6.993a2.001 2.001 0 0 1-1.764-1.058l-.001-.001-.138-.353a1.087 1.087 0 0 1 1.965-.92l.008.015c.1.188.298.317.527.317h2.409l.001-3V5.703c0-1.797 1.503-2.463 1.503-2.463l2.422-1.229H7.597zm-3.011 4l-.293-.293a1 1 0 0 1 1.414-1.414l1.986 1.985.014.015a.986.986 0 0 1 .292.664L8 6.999v.043l-.001.001v.022l-.001.001v.011a.844.844 0 0 1-.012.101l-.001.004v.003l-.001.003v.004l-.001.002v.001a.987.987 0 0 1-.276.523l-.014.014-1.986 1.986a1 1 0 0 1-1.414-1.414l.293-.293H1a1 1 0 0 1 0-2h3.586z"/>
</svg>
