<svg xmlns="http://www.w3.org/2000/svg" width="16" height="16" viewBox="0 0 16 16">
  <path fill-rule="evenodd" d="M1.029 5.502l.724-2.704c.295-1.099 1.246-1.81 2.174-1.794C4.334.996 6.121.996 8 .997c1.879-.001 3.666-.001 4.073.007.928-.016 1.879.695 2.174 1.794l.725 2.705a1 1 0 0 1 .491 1.834l.006.022c.325.275.531.686.531 1.145v1.5c0 .234-.054.455-.149.652a.76.76 0 0 0 .012.702c.09.152.137.331.137.521 0 .578-.438 1.055-1 1.118v.507a1.501 1.501 0 0 1-3 0v-.5H4v.5a1.501 1.501 0 0 1-3 0v-.507a1.127 1.127 0 0 1-.87-1.643.753.753 0 0 0 .01-.694 1.669 1.669 0 0 1-.14-.656v-1.5c0-.451.199-.855.513-1.13a1 1 0 0 1 .486-1.872h.03zM3 9.004a1 1 0 1 1 0 2 1 1 0 0 1 0-2zm10 0a1 1 0 1 1 0 2 1 1 0 0 1 0-2zm-1-2h.509a.61.61 0 0 0 .588-.768l-.745-2.781a.61.61 0 0 0-.589-.451H4.237a.61.61 0 0 0-.589.451l-.745 2.781a.608.608 0 0 0 .588.768H4c.582-.002 7.418-.002 8 0z"/>
</svg>
