<svg xmlns="http://www.w3.org/2000/svg" width="16" height="16" viewBox="0 0 16 16">
  <path fill-rule="evenodd" d="M11.5 8a.875.875 0 0 1 1.75 0v.024a5.277 5.277 0 0 1-6.125 5.204v1.006c0 .423-.304.766-.68.766a.635.635 0 0 1-.436-.177l-2.686-2.266a.797.797 0 0 1-.282-.62c0-.254.111-.48.282-.619L6.01 9.052a.635.635 0 0 1 .435-.177c.377 0 .681.343.681.766v1.802a3.525 3.525 0 0 0 4.375-3.42V8zM8.875 2.818V1.766c0-.423.305-.766.68-.766.166 0 .318.067.436.177l2.686 2.266c.17.14.282.365.282.62 0 .254-.111.48-.282.619L9.99 6.948a.635.635 0 0 1-.435.177c-.376 0-.681-.343-.681-.766V4.604A3.525 3.525 0 0 0 4.5 8a.875.875 0 0 1-1.75 0v-.018a5.276 5.276 0 0 1 6.125-5.164z"/>
</svg>
