<svg xmlns="http://www.w3.org/2000/svg" width="16" height="16" viewBox="0 0 16 16">
  <path fill-rule="evenodd" d="M8 0c4.415 0 8 3.585 8 8s-3.585 8-8 8-8-3.585-8-8 3.585-8 8-8zm4.293 8.899a4.54 4.54 0 0 1-2.348 2.729l-.086.04c-.232.119-.85.501-.748 1.171.171 1.137 1.2.699 1.2.699a6.014 6.014 0 0 0 3.622-4.639l.001-.004v-.006c.011-.078.061-.602-.485-.713-.792-.162-1.067.448-1.136.656l-.02.067zm-8.606-.067c-.069-.208-.344-.818-1.136-.656-.546.111-.496.635-.485.713a6.012 6.012 0 0 0 3.623 4.649c.002.001 1.029.436 1.2-.699.098-.642-.417-1.001-.683-1.142a4.54 4.54 0 0 1-2.499-2.798l-.02-.067zM8 6.5a1.5 1.5 0 1 1-.001 3.001A1.5 1.5 0 0 1 8 6.5zm5.089-1.677a5.996 5.996 0 0 0-10.178 0c-.108.195-.236.554.089.802.299.228.756.074.897.018l.043-.018C4.848 5.247 6.329 5 8 5c1.671 0 3.152.247 4.06.625l.043.018c.141.056.598.21.897-.018.325-.248.197-.607.089-.802z"/>
</svg>
