<svg xmlns="http://www.w3.org/2000/svg" width="16" height="16" viewBox="0 0 16 16">
  <path fill-rule="evenodd" d="M6 13.788a3.044 3.044 0 0 1-4.21.739 2.992 2.992 0 0 1-.74-4.185l.569-.806a3.043 3.043 0 0 1 4.214-.745L12.03 0l.013.009a2.976 2.976 0 0 1 .736 4.163L9.845 8.334l.322.457a3.043 3.043 0 0 1 4.214.745l.569.806a2.992 2.992 0 0 1-.74 4.185 3.044 3.044 0 0 1-4.21-.739l-.005-.006-.568-.807L8 10.951l-1.427 2.024-.568.807-.005.006zm5.075-1.964a.996.996 0 0 1 .247-1.394 1.014 1.014 0 0 1 1.405.248l.574.815a.997.997 0 0 1-.246 1.395 1.015 1.015 0 0 1-1.405-.248l-.575-.816zM7.111 9.071c0-.489.4-.886.893-.886a.89.89 0 0 1 .892.886c0 .489-.4.885-.892.885a.889.889 0 0 1-.893-.885zM5.526 6.809a.27.27 0 0 1-.444.003L3.226 4.178A2.975 2.975 0 0 1 3.962.015l.012-.009 2.967 4.209a.46.46 0 0 1 .004.525L5.526 6.809zm-.601 5.015a.996.996 0 0 0-.247-1.394 1.014 1.014 0 0 0-1.405.248l-.574.815a.997.997 0 0 0 .246 1.395 1.015 1.015 0 0 0 1.405-.248l.575-.816z"/>
</svg>
