<svg width="16" height="16" xmlns="http://www.w3.org/2000/svg">
  <path d="M7.5 1C9.495 1 11 2.504 11 4.5c0 .382-.084.772-.234 1.14.654.199 1.13.517 1.46.816.82.74 1.272 1.821 1.272 3.044 0 2.439-1.962 4.416-4.467 4.499a5.118 5.118 0 0 1-3.034-.859A3.005 3.005 0 0 1 3 16a1 1 0 0 1 0-2c.551 0 1-.449 1-1V4.5C4.019 2.552 5.582 1 7.5 1zM6 9.472V9.5c0 .62.265 1.218.746 1.684.573.554 1.354.842 2.218.816 1.421-.047 2.534-1.145 2.534-2.5 0-.65-.218-1.204-.612-1.56-.446-.402-1.136-.567-1.993-.48a1 1 0 0 1-.58-1.874C8.781 5.332 9 4.787 9 4.5 9 3.463 8.246 3 7.5 3A1.5 1.5 0 0 0 6 4.5v4.972z"/>
</svg>
