<svg xmlns="http://www.w3.org/2000/svg" width="16" height="16" viewBox="0 0 16 16">
  <path fill-rule="evenodd" d="M9 16H6.997C3.135 16 0 12.415 0 8s3.135-8 6.997-8H9c3.864 0 7 3.585 7 8s-3.136 8-7 8zM6.997 1.741c2.896 0 5.247 2.804 5.247 6.259 0 3.455-2.35 6.259-5.247 6.259S1.749 11.455 1.749 8c0-3.455 2.351-6.259 5.248-6.259zM8 12H5.999a1 1 0 0 1 0-2V7.249a1.001 1.001 0 0 1-1-1.663l1.293-1.293a.996.996 0 0 1 .404-.246v-.001H6.7A1.02 1.02 0 0 1 6.993 4h.006l.05.001.015.001a.82.82 0 0 1 .101.012l.017.003a.982.982 0 0 1 .523.276c.15.148.241.331.276.523l.003.017a.82.82 0 0 1 .012.101l.002.036V10H8a1 1 0 0 1 0 2z"/>
</svg>
