<svg xmlns="http://www.w3.org/2000/svg" width="16" height="16" viewBox="0 0 16 16">
  <path fill-rule="evenodd" d="M6.997 1.379V1a1 1 0 0 1 2 0v.419c.313.046.623.112.926.203.51.152.999.374 1.444.667.529.348.99.795 1.351 1.315.202.292.377.607.508.937.044.111.091.225.116.343a1.006 1.006 0 0 1-.151.766 1.008 1.008 0 0 1-1.361.285.993.993 0 0 1-.385-.45c-.035-.089-.066-.178-.103-.266a2.932 2.932 0 0 0-1.133-1.297 3.64 3.64 0 0 0-1.212-.472v3.434l.233.035c1.04.169 2.119.421 2.951 1.109a3.299 3.299 0 0 1 1.045 1.563c.107.345.162.706.177 1.067.011.263.001.527-.038.788a3.376 3.376 0 0 1-.456 1.255c-.428.699-1.104 1.203-1.851 1.522-.652.279-1.356.426-2.061.493V15a1 1 0 0 1-2 0v-.301c-.999-.119-1.978-.424-2.8-1.014a4.353 4.353 0 0 1-.944-.913 4.268 4.268 0 0 1-.495-.833 4.698 4.698 0 0 1-.385-1.457 1.48 1.48 0 0 1-.009-.319 1 1 0 0 1 .328-.639 1.008 1.008 0 0 1 1.342.01 1 1 0 0 1 .311.577c.01.08.017.161.027.241.038.264.101.523.211.767.062.137.137.269.225.392.451.63 1.196.966 1.935 1.122.084.018.169.034.254.047V8.648a27.523 27.523 0 0 1-.49-.071c-.908-.151-1.847-.376-2.59-.949a2.951 2.951 0 0 1-1.018-1.435 3.578 3.578 0 0 1-.168-.952c-.02-.444.037-.887.186-1.308a3.387 3.387 0 0 1 1.049-1.478c.814-.668 1.869-.96 2.9-1.064.044-.005.087-.009.131-.012zm2 7.528v3.797a4.873 4.873 0 0 0 1.143-.267c.271-.102.534-.238.756-.427a1.363 1.363 0 0 0 .483-.817c.04-.213.035-.436.01-.652a1.613 1.613 0 0 0-.209-.659 1.179 1.179 0 0 0-.202-.249 1.928 1.928 0 0 0-.564-.355 4.818 4.818 0 0 0-.957-.287 10.317 10.317 0 0 0-.46-.084zm-2-5.519a5.193 5.193 0 0 0-.774.142c-.266.072-.527.17-.763.313a1.551 1.551 0 0 0-.573.57c-.088.16-.141.339-.156.521-.009.105-.005.211.005.316.017.182.06.366.156.524.042.07.093.133.152.189.158.153.361.256.564.336.334.133.688.21 1.041.273.116.021.232.04.348.058V3.388z"/>
</svg>
