<svg xmlns="http://www.w3.org/2000/svg" width="16" height="16" viewBox="0 0 16 16">
  <path fill-rule="evenodd" d="M3.001 5.971c-.001-.035 0-.07.001-.105A4.979 4.979 0 0 1 4.465 2.46a5.008 5.008 0 0 1 2.9-1.425c.168-.022.337-.032.506-.039h.258a4.932 4.932 0 0 1 1.59.303 5.008 5.008 0 0 1 3.266 4.312c.02.253.04.515-.056.755a1.014 1.014 0 0 1-.434.498 1.008 1.008 0 0 1-1.193-.153 1.002 1.002 0 0 1-.286-.536c-.02-.111-.016-.223-.02-.335-.005-.077-.005-.076-.012-.153a3.052 3.052 0 0 0-.312-1.056 3.029 3.029 0 0 0-1.994-1.559 3.03 3.03 0 0 0-1.061-.053A3.003 3.003 0 0 0 5.004 5.84c-.003.05-.003.1-.004.15.003.133.004.267.01.401.019.341.059.679.126 1.014.041.199.091.395.147.59H9a1 1 0 0 1 0 2H5.9c.034.159.06.32.077.482a4.932 4.932 0 0 1-.427 2.518c1.177 0 2.355.014 3.533-.001a2.46 2.46 0 0 0 .778-.147 2.174 2.174 0 0 0 1.222-1.25l.024-.053c.094-.173.223-.318.395-.416a.97.97 0 0 1 .27-.107 1.01 1.01 0 0 1 1.065.426 1.002 1.002 0 0 1 .135.781 1.91 1.91 0 0 1-.148.382c-.087.183-.189.36-.302.529a4.207 4.207 0 0 1-1.187 1.187 3.968 3.968 0 0 1-.975.464c-.271.087-.55.145-.832.176a5.1 5.1 0 0 1-.391.027c-1.898.026-3.796.002-5.694.002a1.044 1.044 0 0 1-.494-.131 1.007 1.007 0 0 1-.454-1.188c.055-.163.153-.312.281-.427.065-.057.139-.101.208-.152a2.88 2.88 0 0 0 .147-.122c.164-.154.31-.323.432-.512.257-.396.397-.855.429-1.325.013-.182.01-.364-.015-.546a3.842 3.842 0 0 0-.143-.597H3a1 1 0 0 1 0-2h.219a7.624 7.624 0 0 1-.098-.496A9.4 9.4 0 0 1 3 6.001l.001-.03z"/>
</svg>
