<svg xmlns="http://www.w3.org/2000/svg" width="16" height="16" viewBox="0 0 16 16">
  <path fill-rule="evenodd" d="M1.856 6.004a7.27 7.27 0 0 1 .577-1.386 7.363 7.363 0 0 1 3.098-3.024 7.24 7.24 0 0 1 3.434-.8c.599.013 1.193.09 1.772.244a7.327 7.327 0 0 1 3.828 2.501l.042.056c.09.139.153.286.174.452a1.007 1.007 0 0 1-.118.606 1.009 1.009 0 0 1-.996.508 1.009 1.009 0 0 1-.61-.31c-.081-.093-.157-.189-.239-.282a5.298 5.298 0 0 0-6.711-1.007 5.362 5.362 0 0 0-2.126 2.442h6.416a1 1 0 0 1 0 2H3.55a5.296 5.296 0 0 0 .076 1h5.288a1 1 0 0 1 0 2h-4.5a5.346 5.346 0 0 0 1.693 1.637 5.284 5.284 0 0 0 1.81.685 5.308 5.308 0 0 0 5.094-1.922l.046-.053a1.005 1.005 0 0 1 1.216-.192c.353.195.557.596.508.996a1.07 1.07 0 0 1-.174.452c-.053.07-.108.138-.165.206a7.333 7.333 0 0 1-2.922 2.095 7.332 7.332 0 0 1-5.67-.145 7.348 7.348 0 0 1-3.7-3.759h-.602a1 1 0 0 1 0-2h.057a7.422 7.422 0 0 1-.055-1h-.24a1 1 0 0 1 0-2h.546z"/>
</svg>
