<svg xmlns="http://www.w3.org/2000/svg" width="16" height="16" viewBox="0 0 16 16">
  <path fill-rule="evenodd" d="M2.669 14l-.954.996-.004.003-.003.004a.997.997 0 0 1-1.702-.71V6a2 2 0 0 1 1.998-2h.59v5.175a3.175 3.175 0 0 0 3.172 3.176h5.448A2 2 0 0 1 9.247 14H2.669zM16 12.392a1 1 0 0 1-1.701.711l-.001-.001-.003-.003-.003-.003L12.244 11H6.012a2 2 0 0 1-1.997-2V3a2 2 0 0 1 1.997-2h7.99A2 2 0 0 1 16 3v9.392zM7.011 5a1 1 0 1 1-.002 2 1 1 0 0 1 .002-2zm2.996 0a1 1 0 1 1-.001 1.999A1 1 0 0 1 10.007 5zm2.997 0a1 1 0 1 1-.003 1.999A1 1 0 0 1 13.004 5z"/>
</svg>
