<svg xmlns="http://www.w3.org/2000/svg" width="16" height="16" viewBox="0 0 16 16">
  <path fill-rule="evenodd" d="M9.945 6.365c1.08.032 1.736-.63 1.581-1.784a1.844 1.844 0 0 1 .912-1.779l2.563-1.48a1.845 1.845 0 0 1-.674 2.518l.798-.461a1.844 1.844 0 0 1-.675 2.517l.399-.23a1.844 1.844 0 0 1-.675 2.518l-.068.039c.106 1.059-.404 1.489-.766 1.697 0 0-.146.092-.163.095-.755.433-1.05.437-1.886.483l.57.603a.858.858 0 0 1 .988 1.382l-.853.813a.858.858 0 0 1-1.364-.997l-.829-.877a.952.952 0 0 1-.213.234.849.849 0 0 0-.027.194c-.014.728.354 1.214.686 1.503a.443.443 0 0 1-.021.695c-.441.371-1.12.874-1.611 1.238a1.035 1.035 0 0 1-1.234 0l-1.654-1.227a.475.475 0 0 1-.037-.736c.348-.285.733-.785.745-1.473a.779.779 0 0 0-.019-.185.972.972 0 0 1-.197-.203l-.862.912a.858.858 0 0 1-1.396.922l-.853-.813a.858.858 0 0 1 1.054-1.344l.603-.638c-.881-.049-1.171-.043-1.944-.486-.017-.003-.163-.095-.163-.095-.362-.208-.872-.638-.766-1.697l-.068-.039a1.844 1.844 0 0 1-.675-2.518l.399.23a1.844 1.844 0 0 1-.675-2.517l.798.461a1.845 1.845 0 0 1-.674-2.518l2.563 1.48c.647.374.981 1.081.912 1.779-.155 1.153.5 1.816 1.578 1.784v-.618l-.781-.179a.337.337 0 0 1-.158-.569l1.173-1.134a.916.916 0 0 1 .687-.307c.509 0 .845.412.845.921v1.327c0 .326.042.495.182.559.134-.065.188-.23.188-.559V4.479c0-.509.327-.921.836-.921.253 0 .483.102.649.267l1.214 1.174a.336.336 0 0 1-.158.569l-.781.179-.003-.008v.626zM8 0a1.31 1.31 0 1 1 0 2.619A1.31 1.31 0 0 1 8 0z"/>
</svg>
