<svg xmlns="http://www.w3.org/2000/svg" width="16" height="16" viewBox="0 0 16 16">
  <path d="M14.38 11.81c.553 0 1 .447 1 1 0 .937-.41 1.824-1.126 2.432-.575.489-1.308.758-2.064.758-1.23 0-2.363-.72-2.887-1.834-1.263-2.682.572-6.091 1.293-7.414.303-.65.471-1.273.471-1.752 0-1.71-.986-3-2.295-3C7.43 2 6.379 3.322 6.379 5.009c0 .818.368 1.821 1.124 3.063.022.036.025.076.041.114C7.826 8.733 8 9.344 8 10c0 2.206-1.794 4-4 4s-4-1.794-4-4 1.794-4 4-4c.169 0 .33.029.494.05-.071-.356-.115-.703-.115-1.041C4.379 2.2 6.309 0 8.772 0c2.449 0 4.295 2.149 4.295 5 0 .989-.363 1.971-.669 2.62-.004.009-.013.014-.017.024-.005.009-.004.02-.009.029-.575 1.054-2.101 3.854-1.26 5.641.196.416.619.686 1.078.686.361 0 .618-.153.769-.282.268-.227.421-.559.421-.908 0-.553.448-1 1-1zM4 12c1.103 0 2-.897 2-2s-.897-2-2-2-2 .897-2 2 .897 2 2 2z"/>
</svg>
