<svg xmlns="http://www.w3.org/2000/svg" width="16" height="16" viewBox="0 0 16 16">
  <path d="M15.276 14.039c.531.153.837.707.685 1.238-.126.438-.526.724-.961.724-.091 0-.184-.012-.276-.039-1.086-.311-1.934-.78-2.598-1.326-.619.185-1.3.312-2.059.362a.7906.7906 0 0 1-.068.003c-.522 0-.961-.405-.997-.933-.037-.551.38-1.028.931-1.065.27-.018.522-.049.765-.088-.585-1.075-.747-2.169-.699-2.919V3.501c-.031-.5-.547-.5-.741-.5-1.131 0-1.581.797-1.707 1.083v5.917c0 .552-.448 1-1 1-.553 0-1-.448-1-1v-6.5c-.018-.5-.407-.5-.616-.5-1.067 0-1.714.891-1.935 1.258v5.742c0 .552-.448 1-1 1s-1-.448-1-1v-6c.002-.532-.184-.946-.511-1.14C.015 2.579-.142 1.965.14 1.49c.282-.474.895-.633 1.371-.349.345.206.618.499.851.826.615-.521 1.464-.966 2.573-.966.973 0 1.566.393 1.894.723.024.025.042.053.065.079.582-.456 1.354-.802 2.364-.802 1.996 0 2.733 1.49 2.741 2.492v2.39c.383-.226.799-.357 1.238-.357.644 0 1.262.282 1.739.796.74.794 1.122 2.107 1.021 3.513-.062.869-.301 1.681-.681 2.375-.007.015-.007.032-.015.047-.012.02-.027.037-.038.057-.014.024-.025.051-.039.075-.02.032-.047.057-.07.087-.274.427-.609.801-1.002 1.121.324.17.696.32 1.124.442zm-3.28-3.96c-.012.181-.04 1.18.62 2.17.386-.249.689-.559.91-.927.262-.45.433-1.025.476-1.63.073-1.016-.218-1.716-.489-2.008-.098-.105-.191-.158-.276-.158-.374 0-1.124.877-1.227 2.309-.001.015-.01.026-.011.041v.125c0 .014-.007.025-.008.038 0 .014.006.026.005.04z"/>
</svg>
