<svg xmlns="http://www.w3.org/2000/svg" width="16" height="16" viewBox="0 0 16 16">
  <path fill-rule="evenodd" d="M6.16 15.09a.565.565 0 0 1-.7.835C2.633 14.456-.03 11.609 1.42 7.67 2.7 4.194 7.853 2.895 7.034.602a.434.434 0 0 1 .482-.597A2.853 2.853 0 0 1 9.93 2.442c.205 1.408-1.041 2.674-.438 4.783.307 1.073 1.507 1.345 1.772 1.162.26-.181-.059-.394-.257-1.016-.444-1.395.066-2.459.762-3.211.262-.282.801-.162.77.397-.046.812.443 1.441 1.224 2.361 1.676 1.975 1.262 4.657.895 5.619-.508 1.327-1.561 2.38-2.703 3.132a.577.577 0 1 1-.819-.769c.392-.552.683-1.168.717-1.826.049-.966-.413-1.699-.676-2.084a.332.332 0 0 0-.298-.142c-.118.009-.232.076-.272.186-.29.794-1.171 1.884-1.745 1.917-.426-.043-1.21-.621-1.561-1.718-.251-.783-.257-1.93-.251-2.614a.296.296 0 0 0-.455-.252c-.632.507-1.593 1.683-1.548 3.837.023 1.129.524 2.113 1.113 2.886z"/>
</svg>
