<svg xmlns="http://www.w3.org/2000/svg" xmlns:xlink="http://www.w3.org/1999/xlink" width="16" height="16" viewBox="0 0 16 16">
  <defs>
    <path id="categories-mailings-a" d="M14.5 16h-10c-.828 0-1.5-.672-1.5-1.5v-8C3 5.672 3.672 5 4.5 5h10c.828 0 1.5.672 1.5 1.5v8c0 .828-.672 1.5-1.5 1.5zm-5.009-3.028c-.191-.001-.323-.064-.482-.199-.065-.055-.088-.079-.122-.115l-.998-.998-1.654 1.654c-.282.282-.74.282-1.022 0-.283-.282-.283-.74 0-1.022l1.653-1.654-1.643-1.644c-.295-.295-.295-.774 0-1.07.148-.148.342-.221.535-.221h.01c.19.002.38.076.526.221L9.5 11.138l3.206-3.214c.146-.145.336-.219.526-.221h.01c.193 0 .387.073.535.221.295.296.295.775 0 1.07l-1.643 1.644 1.653 1.654c.283.282.283.74 0 1.022-.282.282-.74.282-1.022 0l-1.654-1.654-.998.998c-.034.036-.057.06-.122.115-.161.137-.295.2-.491.199h-.009zM2 11h-.5C.672 11 0 10.328 0 9.5v-7C0 1.672.672 1 1.5 1h9c.828 0 1.5.672 1.5 1.5V4H4.072C2.928 4 2 4.928 2 6.072V11z"/>
  </defs>
  <use xlink:href="#categories-mailings-a" fill-rule="evenodd"/>
</svg>
