<svg xmlns="http://www.w3.org/2000/svg" width="16" height="16" viewBox="0 0 16 16">
  <path fill-rule="evenodd" d="M13.2 2c.993 0 1.8.807 1.8 1.8v8.4c0 .993-.807 1.8-1.8 1.8H2.8c-.993 0-1.8-.807-1.8-1.8V3.8C1 2.807 1.807 2 2.8 2h10.4zM5.049 8.094L3.036 6.081a.756.756 0 1 1 1.07-1.07l3.886 3.886 3.891-3.891a.757.757 0 1 1 1.071 1.07l-2.01 2.009 1.87 1.87a.723.723 0 0 1-1.022 1.022l-1.87-1.87-1.31 1.31a.745.745 0 0 1-.62.313.756.756 0 0 1-.62-.313l-1.301-1.3-1.859 1.859A.723.723 0 0 1 3.19 9.953l1.859-1.859z"/>
</svg>
