<svg xmlns="http://www.w3.org/2000/svg" width="16" height="16" viewBox="0 0 16 16">
  <path fill-rule="evenodd" d="M10.427.032c.653 0 1.208.418 1.415 1H12c1.656 0 3 1.344 3 3v8a1 1 0 0 1-1 1h-.936l.734 1.271a1.11 1.11 0 0 1-1.923 1.11l-1.374-2.381H5.486l-1.374 2.381a1.11 1.11 0 0 1-1.923-1.11l.734-1.271H2a1 1 0 0 1-1-1v-8c0-1.656 1.344-3 3-3h.197c.206-.582.762-1 1.415-1h4.815zM4 9.032a1 1 0 1 1 0 2 1 1 0 0 1 0-2zm8 0a1 1 0 1 1 0 2 1 1 0 0 1 0-2zm-5-2v-4H4a1 1 0 0 0-1 1v2a1 1 0 0 0 1 1h3zm5-4H9v4h3a1 1 0 0 0 1-1v-2a1 1 0 0 0-1-1z"/>
</svg>
