<svg xmlns="http://www.w3.org/2000/svg" width="16" height="16" viewBox="0 0 16 16">
  <path fill-rule="evenodd" d="M5 13.5a1.5 1.5 0 0 1-3 0v-2.414A2.999 2.999 0 0 1 .501 8.489V7.475c0-1.655 1.344-3 3-3h2.221c1.317-.014 2.389-.198 3.905-2.108C10.291 1.508 11.112 1 12 1c2.208 0 4 3.137 4 7s-1.792 7-4 7c-.891 0-1.715-.511-2.381-1.376-1.778-2.237-2.946-2.097-4.619-2.1V13.5zm5.186-3.529c.318 1.597 1.011 2.706 1.814 2.706 1.104 0 2-2.096 2-4.677 0-2.581-.896-4.677-2-4.677-.796 0-1.484 1.09-1.806 2.665a2.002 2.002 0 0 1-.008 3.983zM4 7a1 1 0 1 1 0 2 1 1 0 0 1 0-2z"/>
</svg>
