<svg xmlns="http://www.w3.org/2000/svg" width="16" height="16" viewBox="0 0 16 16">
  <path fill-rule="evenodd" d="M1.005 6.227A6.505 6.505 0 0 1 7.5 0h1a6.503 6.503 0 0 1 6.494 6.227C15.612 6.543 16 7.173 16 8v3c0 1.1-.712 1.894-1.78 1.99C14.197 14.666 12.708 16 11 16H8a1 1 0 0 1 0-2h2.931a1.073 1.073 0 0 0 1.068-1.025A1.252 1.252 0 0 1 11 11.75v-4.5c0-.69.56-1.25 1.25-1.25h.723a4.691 4.691 0 0 0-4.662-4.189h-.622A4.693 4.693 0 0 0 3.026 6h.724C4.44 6 5 6.56 5 7.25v4.5C5 12.44 4.44 13 3.75 13H2c-1.188 0-2-.826-2-2V8c0-.827.388-1.457 1.005-1.773z"/>
</svg>
