<svg xmlns="http://www.w3.org/2000/svg" width="16" height="16" viewBox="0 0 16 16">
  <path fill-rule="evenodd" d="M16 14.753a1.75 1.75 0 0 0-3.499 0v.897c0 .193.156.35.35.35h2.799a.35.35 0 0 0 .35-.35v-.897zM2.5 16H.4a.4.4 0 0 1-.4-.4v-3.1a2.5 2.5 0 0 1 4.958-.458H5a2.5 2.5 0 0 1 2.5 2.5V15.6a.4.4 0 0 1-.4.4H2.5zM6 4.447V4c0-2.208 1.792-4 4-4s4 1.792 4 4v5a4.006 4.006 0 0 1-3 3.874V15a1 1 0 0 1-2 0v-2.126a4.003 4.003 0 0 1-1.94-1.163 2.266 2.266 0 0 1-.1-.096L4.672 9.327A2.915 2.915 0 0 1 6 4.447z"/>
</svg>
