<svg xmlns="http://www.w3.org/2000/svg" width="16" height="16" viewBox="0 0 16 16">
  <path fill-rule="evenodd" d="M14.666 13.297a.999.999 0 1 1-1.414 1.414l-2.151-2.152a1 1 0 0 1 1.414-1.414l2.151 2.152zM5.549 9.024l7.732-7.733a.5.5 0 0 1 .707 0 3.502 3.502 0 0 1 0 4.95l-5.611 5.611a.999.999 0 0 1-1.414 0l-.707-.707-3.559 3.559a1 1 0 0 1-1.414-1.414l4.266-4.266zm-.174-5.478L3.833 2.004a.59.59 0 1 1 .835-.835l.88.881.001-.001.987.987A2.501 2.501 0 0 1 3 6.572l-.987-.987-.846-.847a.612.612 0 1 1 .867-.867l1.511 1.511a.35.35 0 1 0 .522-.467L2.105 2.953a.591.591 0 0 1 .835-.836l1.932 1.932a.355.355 0 1 0 .503-.503z"/>
</svg>
