<svg xmlns="http://www.w3.org/2000/svg" width="16" height="16" viewBox="0 0 16 16">
  <path fill-rule="evenodd" d="M11.5 15H3a2 2 0 0 1-2-2V3a2 2 0 0 1 2-2h10a2 2 0 0 1 2 2v10a2 2 0 0 1-2 2h-1.5zM9.376 3H3.624A.625.625 0 0 0 3 3.624v8.752c0 .344.28.624.624.624H4a1 1 0 0 1 1-1h3a1 1 0 0 1 1 1h.376c.344 0 .624-.28.624-.624V3.624A.625.625 0 0 0 9.376 3zM8.5 7a.5.5 0 0 1 .5.5v1a.5.5 0 0 1-.5.5h-4a.5.5 0 0 1-.5-.5v-1a.5.5 0 0 1 .5-.5h4zm0-3a.5.5 0 0 1 .5.5v1a.5.5 0 0 1-.5.5h-4a.5.5 0 0 1-.5-.5v-1a.5.5 0 0 1 .5-.5h4z"/>
</svg>
