<svg xmlns="http://www.w3.org/2000/svg" width="16" height="16" viewBox="0 0 16 16">
  <path fill-rule="evenodd" d="M0 13.329a1.011 1.011 0 0 1 .254-.666.988.988 0 0 1 .807-.333 1.002 1.002 0 0 1 .864.617c.024.059.042.119.067.178a1.494 1.494 0 0 0 .561.667c.233.146.507.203.78.203.296 0 .592-.068.837-.24.202-.141.359-.34.471-.559.032-.063.056-.13.081-.196.01-.029.022-.058.034-.085l.002-.005.002-.004c.016-.033.033-.066.052-.097l.007-.012.011-.015a.977.977 0 0 1 .362-.334.987.987 0 0 1 .283-.101l.03-.006h.004l.002-.001h.002a1.016 1.016 0 0 1 .626.106 1.02 1.02 0 0 1 .348.31l.004.007a.878.878 0 0 1 .064.106l.012.025c.02.041.037.083.051.126.013.035.026.071.041.105.017.038.036.075.055.112.124.222.288.42.505.555.234.146.508.203.781.203.284 0 .57-.062.809-.221a1.501 1.501 0 0 0 .581-.778l.016-.043.003-.006.002-.005c.01-.023.02-.046.032-.069l.02-.037.002-.005.004-.006a.982.982 0 0 1 .206-.247.962.962 0 0 1 .512-.239l.05-.006a1.3 1.3 0 0 1 .108-.005h.013l.009.001a.99.99 0 0 1 .793.437l.003.004c.022.033.042.067.06.101l.012.024c.018.039.034.078.047.119.014.037.028.075.044.111a1.498 1.498 0 0 0 .56.667c.234.146.508.203.781.203.284 0 .569-.062.809-.221a1.51 1.51 0 0 0 .498-.577c.041-.081.069-.165.101-.25a1.134 1.134 0 0 1 .183-.29 1.025 1.025 0 0 1 .767-.329A.998.998 0 0 1 16 13.33v1.27a1.4 1.4 0 0 1-1.4 1.4H1.4A1.404 1.404 0 0 1 0 14.6v-1.271zM9.258 0c.409 0 .742.333.742.742v.704c2.329.385 4 1.409 4 2.497l-.001.039.001.055v3.532l.535.289c.56.303.785.99.513 1.566l-.692 1.464a.4.4 0 0 1-.221.203 2.377 2.377 0 0 0-1.22 1.046c-.053.094-.086.171-.131.268l-.038.1-.001.003a.082.082 0 0 1-.156.001l-.002-.004-.028-.074a2.047 2.047 0 0 0-.196-.383l-.03-.048-.013-.019-.001-.001c-.042-.056-.08-.114-.125-.169a2.413 2.413 0 0 0-2.211-.858 2.403 2.403 0 0 0-1.882 1.495l-.022.057v.001a.084.084 0 0 1-.079.058.084.084 0 0 1-.079-.058l-.027-.071a2.394 2.394 0 0 0-.259-.48l.002.004a2.459 2.459 0 0 0-.631-.623l-.003-.002V7.027a.193.193 0 0 0-.102-.171.192.192 0 0 0-.199.007l-1.543.997c-.12.077-.243.149-.369.215-.315.166-1.112.607-1.584.856-.317.167-.293.451-.14.776l.85 1.799a.195.195 0 0 1-.032.215 2.554 2.554 0 0 0-.418.65c-.015.034-.029.07-.042.104l-.012.03v.002a.082.082 0 0 1-.078.058.08.08 0 0 1-.078-.056l-.001-.003-.012-.031-.024-.061a2.396 2.396 0 0 0-1.357-1.326.396.396 0 0 1-.218-.202L.957 9.435a1.199 1.199 0 0 1 .525-1.572L2 7.591V4.037l.001-.055L2 3.943c0-1.071 1.62-2.081 3.894-2.479V.742c0-.409.332-.742.742-.742h2.622zm3.056 11.972l-.003-.004.009.013a.045.045 0 0 1-.006-.009zM12 6.489v-1.86c0-.714-1.792-1.45-4-1.45s-4 .736-4 1.45l.001.02L4 4.677v1.861l.042-.022a8.9 8.9 0 0 0 .661-.386l2.761-1.784a1 1 0 0 1 1.076-.005l2.812 1.775c.164.104.332.202.502.294l.146.079z"/>
</svg>
