<svg xmlns="http://www.w3.org/2000/svg" width="16" height="16" viewBox="0 0 16 16">
  <path fill-rule="evenodd" d="M0 5.423C.028 2.913 3.602.881 8 .881c4.415 0 8 2.048 8 4.571v5.096c0 2.523-3.585 4.571-8 4.571s-8-2.048-8-4.571V5.423zm9.841 4.479A13.75 13.75 0 0 1 8 10.024c-2.388 0-4.534-.6-6-1.549v2.073c0 1.417 2.689 2.568 6 2.568.525 0 1.035-.029 1.521-.083 1.488-.18 1.479-1.479 1.479-1.479v-.673c0-1.004-.939-1.007-1.127-.983l-.029.004h-.003zM8 2.75c3.311 0 6 1.149 6 2.565s-2.689 2.566-6 2.566-6-1.15-6-2.566S4.689 2.75 8 2.75z"/>
</svg>
