<svg xmlns="http://www.w3.org/2000/svg" width="16" height="16" viewBox="0 0 16 16">
  <path fill-rule="evenodd" d="M8 0c4.415 0 8 3.585 8 8s-3.585 8-8 8-8-3.585-8-8 3.585-8 8-8zm-.924 1.77a6.301 6.301 0 0 0-4.422 2.902 10.303 10.303 0 0 1 3.418-.699l.005.023c.096.47.17.948.2 1.436a11.867 11.867 0 0 0-4.47 1.421 6.282 6.282 0 0 0-.061 1.893A10.305 10.305 0 0 1 6.249 7.03c-.013.137-.022.274-.041.412-.055.413-.137.815-.239 1.209-1.382.3-2.686.844-3.856 1.59a6.303 6.303 0 0 0 7.768 3.771c-.054-.013-.106-.025-.158-.039a10.236 10.236 0 0 1-5.218-3.201 10.305 10.305 0 0 1 1.913-.594 11.813 11.813 0 0 0 5.707 2.579A6.284 6.284 0 0 0 14.298 8a6.27 6.27 0 0 0-1.055-3.489c.09 1.032.075 2.319-.145 3.958-.145.887-.637 1.839-1.043 2.659a10.236 10.236 0 0 1-1.613-.446c.425-.857.885-2.583.989-3.271a11.847 11.847 0 0 0-.273-4.86 6.279 6.279 0 0 0-1.91-.725c.646 1.642.743 3.474.46 5.349-.085.57-.353 2.016-.694 2.857a10.107 10.107 0 0 1-1.503-1.016 11.802 11.802 0 0 0-.435-7.246z"/>
</svg>
