<svg xmlns="http://www.w3.org/2000/svg" width="16" height="16" viewBox="0 0 16 16">
  <path fill-rule="evenodd" d="M1.165 7.793V3.835A3.836 3.836 0 0 1 5 0a3.836 3.836 0 0 1 3.835 3.835v3.958A5.002 5.002 0 0 1 5 16a5.002 5.002 0 0 1-3.835-8.207zm2.112.752V3.723a1.724 1.724 0 0 1 3.446 0v4.822A3.001 3.001 0 1 1 2 11c0-1.015.505-1.912 1.277-2.455zm.94.614V6.783a.784.784 0 0 1 1.566 0v2.376a2 2 0 1 1-1.566 0zM13 0a3.001 3.001 0 0 1 0 6 3.001 3.001 0 0 1 0-6zm0 1.545a1.456 1.456 0 1 1-.001 2.911A1.456 1.456 0 0 1 13 1.545z"/>
</svg>
