<svg xmlns="http://www.w3.org/2000/svg" width="16" height="16" viewBox="0 0 16 16">
  <path fill-rule="evenodd" d="M7 2.02V2a1 1 0 0 1 2 0v.026c2.774.382 5.391 2.252 6.831 4.422l.002.003c.106.159.167.35.167.555l-.001.036.001.036v.496a1 1 0 0 1-1.9.437l-.013-.028c-.13-.272-.32-.472-.587-.472a.5.5 0 0 0-.5.5v.384a1 1 0 0 1-2 0v-.012a1 1 0 0 0-2 0V13a3.001 3.001 0 0 1-6 0v-1a1.001 1.001 0 0 1 2 0v1a1 1 0 0 0 2 0V8.383a1 1 0 0 0-2 0v.012a1 1 0 0 1-2 0v-.384a.5.5 0 0 0-.5-.5c-.267 0-.457.2-.587.472l-.013.028A1 1 0 0 1 0 7.574V7c0-.229.077-.441.208-.61C1.663 4.233 4.242 2.385 7 2.02z"/>
</svg>
