<svg xmlns="http://www.w3.org/2000/svg" width="16" height="16" viewBox="0 0 16 16">
  <path fill-rule="evenodd" d="M11 2.058v2.417a1 1 0 0 1-2 0V1.11a1.001 1.001 0 0 1 1.14-.99C13.562.517 16 1.878 16 3.5v9c0 1.932-3.585 3.5-8 3.5s-8-1.568-8-3.5v-9C0 1.877 2.443.51 5.872.115v.004A1.001 1.001 0 0 1 7 1.11v3.365a1 1 0 0 1-2 0V2.06c-1.793.439-3 1.261-3 2.202 0 1.405 2.689 2.545 6 2.545s6-1.14 6-2.545c0-.941-1.207-1.763-3-2.204zm1.465 10.612a.657.657 0 0 1-.255 1.014c-1.13.427-2.6.681-4.21.681-1.936 0-3.67-.367-4.823-.948a.535.535 0 0 1-.116-.834c.434-.454 1.083-1.124 1.529-1.585a.654.654 0 0 1 .97.031l.866 1.012a.384.384 0 0 0 .61-.031l1.738-2.498a.715.715 0 0 1 1.147-.037l2.544 3.195zM4.016 7.899a1.116 1.116 0 0 1 0 2.23 1.115 1.115 0 0 1 0-2.23z"/>
</svg>
