<svg xmlns="http://www.w3.org/2000/svg" width="16" height="16" viewBox="0 0 16 16">
  <path fill-rule="evenodd" d="M0 10.952V6.303c0-.063.008-.125.023-.183.059-.335.251-.636.539-.828L7.089.941a1.645 1.645 0 0 1 1.824 0l6.531 4.354a1.248 1.248 0 0 1 0 2.078L13.002 9v2.334c0 2.76-2.241 4.001-5.001 4.001C5.242 15.335 3 14.094 3 11.334V9L1.47 7.98v2.089c.315.169.53.501.53.883v1a1 1 0 0 1-2 0v-1zm8.001-.618c1.656 0 3 .672 3 1.5 0 .829-1.344 1.501-3 1.501s-3-.672-3-1.501c0-.828 1.344-1.5 3-1.5z"/>
</svg>
