<svg xmlns="http://www.w3.org/2000/svg" width="16" height="16" viewBox="0 0 16 16">
  <path fill-rule="evenodd" d="M14.257 11.774c-.702 0-1.273-.571-1.273-1.272v-5.52c0-1.728-1.167-2.981-2.775-2.981-.02 0-.036.005-.056.005-.02 0-.038-.005-.059-.005-1.211 0-2.1.448-2.748 1.035-.497-.639-1.244-1.035-2.137-1.035-1.229 0-2.163.474-2.829 1.014-.238-.349-.523-.659-.885-.874C1.02 1.858.407 2.014.124 2.49c-.281.475-.125 1.088.349 1.37.328.195.514.608.511 1.141v6c0 .552.448 1 1 1s1-.448 1-1V5.692c0-.354.135-.694.379-.951.416-.344 1.014-.74 1.846-.74.72 0 .775.751.775.981v6.019c0 .552.448 1 1 1s1-.448 1-1V5.635c0-.138.028-.275.083-.402.248-.459.833-1.197 2.084-1.226.767.037.833.75.833.975v5.52c0 1.804 1.468 3.272 3.273 3.272h.758c.552 0 1-.448 1-1s-.448-1-1-1h-.758z"/>
</svg>
