<svg xmlns="http://www.w3.org/2000/svg" width="16" height="16" viewBox="0 0 16 16">
  <path d="M10.624 7c1.998 0 3.624 1.626 3.624 3.624 0 1.998-1.626 3.624-3.624 3.624-.715 0-1.379-.215-1.941-.574C8.073 15.04 6.652 16 5 16c-.552 0-1-.448-1-1s.448-1 1-1c1.103 0 2-.814 2-1.814V3.977C6.991 3.534 6.787 3 5.871 3 4.046 3 3.207 4.731 3 5.237V9c0 .552-.448 1-1 1s-1-.448-1-1V4c.002-.532-.184-.946-.511-1.14-.474-.282-.631-.896-.349-1.371.281-.475.895-.632 1.371-.349.47.28.844.689 1.1 1.182C3.363 1.602 4.419 1 5.871 1c1.172 0 1.881.467 2.269.859.848.856.861 2.001.86 2.128v3.415C9.491 7.153 10.037 7 10.624 7zm0 5.248c.896 0 1.624-.729 1.624-1.624 0-.896-.728-1.624-1.624-1.624C9.728 9 9 9.728 9 10.624c0 .895.728 1.624 1.624 1.624z"/>
</svg>
