<svg xmlns="http://www.w3.org/2000/svg" width="16" height="16" viewBox="0 0 16 16">
  <path fill-rule="evenodd" d="M1.719 6.695c-.385.397-1.019.408-1.414.024-.398-.383-.408-1.017-.024-1.414l2.898-3c.217-.224.525-.334.837-.298.31.037.586.216.744.485L5.861 4.36l1.985-2.055c.218-.224.525-.334.837-.298.31.037.586.216.744.485l1.101 1.868 1.985-2.055c.217-.224.522-.334.837-.298.31.037.585.216.744.485l1.768 3c.28.476.121 1.089-.354 1.37-.16.094-.335.138-.507.138-.343 0-.677-.176-.863-.492l-1.1-1.868-1.986 2.055c-.032.034-.075.048-.111.077-.035.028-.059.066-.1.09-.025.015-.053.02-.079.033-.028.013-.056.025-.085.035-.1.037-.202.061-.305.065-.009 0-.019.004-.028.004-.003 0-.007.001-.01.001-.11 0-.217-.024-.321-.059-.027-.01-.053-.02-.079-.032-.186-.082-.352-.213-.463-.401l-1.1-1.868-1.985 2.055c-.033.034-.076.048-.112.077-.035.028-.06.066-.1.09-.025.014-.053.02-.078.033-.029.013-.057.025-.086.036-.1.036-.201.06-.304.064-.01 0-.019.004-.029.004-.003 0-.007.001-.01.001-.11 0-.218-.024-.321-.059-.027-.01-.052-.02-.079-.032-.186-.081-.352-.213-.463-.401l-1.1-1.868-1.985 2.055zm12.375 2.797l1.768 3c.28.476.122 1.089-.354 1.369-.16.094-.334.139-.507.139-.343 0-.676-.176-.863-.492l-1.1-1.868-1.985 2.055c-.033.033-.075.047-.111.075-.036.029-.06.067-.1.091-.026.015-.054.021-.081.034-.027.013-.053.024-.082.034-.103.039-.207.063-.313.067-.007 0-.013.002-.02.002-.004.001-.007.002-.011.002-.112 0-.219-.025-.324-.061-.026-.009-.05-.019-.075-.03-.186-.081-.353-.213-.464-.401l-1.1-1.868-1.986 2.055c-.033.033-.075.048-.111.076-.035.028-.06.066-.1.09-.026.015-.054.021-.08.033-.028.014-.054.025-.083.035-.102.039-.207.063-.312.067-.007 0-.014.002-.021.002-.003.001-.007.002-.011.002-.112 0-.22-.025-.324-.061-.025-.009-.049-.019-.074-.03-.187-.081-.354-.212-.465-.401l-1.1-1.868-1.986 2.055c-.384.397-1.018.406-1.414.024-.397-.384-.408-1.017-.024-1.414l2.899-3c.217-.225.524-.333.837-.298.31.036.585.216.744.485l1.1 1.868 1.986-2.055c.217-.225.525-.333.837-.298.31.037.585.216.743.485l1.101 1.868 1.985-2.055c.217-.225.522-.333.837-.298.31.036.586.216.744.485z"/>
</svg>
