<svg xmlns="http://www.w3.org/2000/svg" width="16" height="16" viewBox="0 0 16 16">
  <path fill-rule="evenodd" d="M10 16H6a1 1 0 0 1-1-1v-1H1a1 1 0 0 1-1-1V7c0-2.208 1.792-4 4-4h5.235c.173 0 .312.14.312.312V6a1 1 0 0 0 1 1H12a1 1 0 0 1-1-1V1a1 1 0 0 1 1-1h3a1 1 0 0 1 1 1v1a1 1 0 0 1-1 1h-2v1.483h1.775c.221 0 .428.108.554.289C15.751 5.411 16 6.177 16 7v6a1 1 0 0 1-1 1h-4v1a1 1 0 0 1-1 1zM5.6 5H4.4A2.4 2.4 0 0 0 2 7.4v4.4c0 .11.09.2.2.2h5.6a.2.2 0 0 0 .2-.2V7.4A2.4 2.4 0 0 0 5.6 5zm.6 2.4a.8.8 0 1 1 0 1.6H3.8a.8.8 0 1 1 0-1.6h2.4z"/>
</svg>
