<svg xmlns="http://www.w3.org/2000/svg" width="16" height="16" viewBox="0 0 16 16">
  <path fill-rule="evenodd" d="M14.564 15H1.477A1 1 0 0 1 1 13.121V8a1 1 0 0 1-.665-1.747l5.424-4.949A.995.995 0 0 1 6.477 1h3.046a.995.995 0 0 1 .718.304l5.424 4.949A1 1 0 0 1 15 8v5.1a1 1 0 0 1-.436 1.9zM9 13h.554a.422.422 0 0 0 .423-.422V7h.184a.318.318 0 1 0 .212-.557l-3.6-3.203a.428.428 0 0 0-.569.001L2.623 6.443A.32.32 0 0 0 2.835 7H3v5.578c0 .233.189.422.422.422H4v-3a1 1 0 0 1 2 0v3h1v-3a1 1 0 0 1 2 0v3zM6.477 5a1 1 0 1 1 0 2 1 1 0 0 1 0-2z"/>
</svg>
