<svg xmlns="http://www.w3.org/2000/svg" width="16" height="16" viewBox="0 0 16 16">
  <path fill-rule="evenodd" d="M8 0c4.415 0 8 3.585 8 8s-3.585 8-8 8-8-3.585-8-8 3.585-8 8-8zm-.447 1.718c-.498.035-.98.128-1.44.272a9.549 9.549 0 0 0 1.213 2.988 11.683 11.683 0 0 0-2.605 2.143 9.577 9.577 0 0 0-2.408-1.829 6.25 6.25 0 0 0-.479 1.422 8.05 8.05 0 0 1 1.95 1.576 11.704 11.704 0 0 0-1.376 2.608c.286.55.651 1.054 1.08 1.494.27-1.015.686-1.97 1.233-2.836a8.066 8.066 0 0 1 1.144 4.37c.472.17.97.286 1.487.339a9.556 9.556 0 0 0-1.685-5.983 10.233 10.233 0 0 1 2.544-2.1 9.475 9.475 0 0 0 5.93 3.219c.103-.45.157-.919.157-1.401l-.001-.095a8 8 0 0 1-4.696-2.396 10.067 10.067 0 0 1 3.685-.697l.147.003a6.35 6.35 0 0 0-1.162-1.442 11.54 11.54 0 0 0-3.629.924 8.048 8.048 0 0 1-1.089-2.579z"/>
</svg>
