<svg width="16" height="16" viewBox="0 0 16 16" fill="none" xmlns="http://www.w3.org/2000/svg">
<path fill-rule="evenodd" clip-rule="evenodd" d="M5.403 7.056L5.227 6.88C4.80528 6.45791 4.56839 5.88566 4.56839 5.289C4.56839 4.69234 4.80528 4.12009 5.227 3.698L7.172 1.754C7.92224 1.00436 8.93942 0.583267 10 0.583267C11.0606 0.583267 12.0778 1.00436 12.828 1.754L14.243 3.168C14.9927 3.91841 15.4138 4.93576 15.4138 5.9965C15.4138 7.05724 14.9927 8.07459 14.243 8.825L12.298 10.769C11.8759 11.1907 11.3037 11.4276 10.707 11.4276C10.1103 11.4276 9.53809 11.1907 9.116 10.769L8.939 10.592L7.707 11.823C7.576 11.954 7.299 12.214 6.865 12.214C6.055 12.214 4.892 11.967 4.646 12.214C4.384 12.473 4.494 12.869 4.496 13.995C4.515 14.638 3.765 14.995 3 14.995H2C1.341 14.995 1 14.7 1 13.995V11.977C1 11.657 1.122 11.337 1.366 11.094L5.403 7.056V7.056ZM12.405 6.279C12.5925 6.09147 12.6978 5.83716 12.6978 5.572C12.6978 5.30683 12.5925 5.05253 12.405 4.865L11.132 3.591C10.9434 3.40884 10.6908 3.30805 10.4286 3.31033C10.1664 3.3126 9.91559 3.41777 9.73018 3.60318C9.54477 3.78859 9.4396 4.0394 9.43733 4.3016C9.43505 4.5638 9.53584 4.8164 9.718 5.005L10.991 6.279C11.1785 6.46647 11.4328 6.57179 11.698 6.57179C11.9632 6.57179 12.2175 6.46647 12.405 6.279V6.279Z" fill="white"/>
</svg>
