<svg width="16" height="16" viewBox="0 0 16 16" fill="none" xmlns="http://www.w3.org/2000/svg">
<g clip-path="url(#clip0)">
<path fill-rule="evenodd" clip-rule="evenodd" d="M13 3C14.656 3 16 4.344 16 6V11C15.9988 11.713 15.7438 12.4023 15.2807 12.9444C14.8176 13.4865 14.1766 13.846 13.4726 13.9585C12.7685 14.071 12.0474 13.9291 11.4384 13.5584C10.8294 13.1876 10.3723 12.6121 10.149 11.935C9.954 11.401 9.531 11 9 11H6.996C6.444 11 6.067 11.367 5.829 12C5.59235 12.6664 5.12795 13.2279 4.51771 13.5853C3.90746 13.9428 3.1906 14.0732 2.49357 13.9536C1.79654 13.834 1.16414 13.4721 0.707922 12.9317C0.251705 12.3914 0.000987748 11.7072 0 11L0 6C0 4.344 1.344 3 3 3H13ZM12.119 8.387C12.2013 8.4694 12.2666 8.56722 12.3112 8.67486C12.3557 8.7825 12.3786 8.89786 12.3786 9.01435C12.3785 9.13084 12.3555 9.24619 12.3109 9.35379C12.2663 9.4614 12.2009 9.55916 12.1185 9.6415C12.0361 9.72384 11.9383 9.78914 11.8306 9.83368C11.723 9.87821 11.6076 9.90111 11.4911 9.90107C11.3747 9.90102 11.2593 9.87803 11.1517 9.83341C11.0441 9.78878 10.9463 9.7234 10.864 9.641C10.6977 9.47458 10.6043 9.24891 10.6044 9.01365C10.6045 8.77838 10.6981 8.55279 10.8645 8.3865C11.0309 8.22021 11.2566 8.12684 11.4919 8.12694C11.7271 8.12703 11.9527 8.22058 12.119 8.387ZM3.877 5.485H3.12C3.01975 5.485 2.9236 5.52482 2.85271 5.59571C2.78182 5.6666 2.742 5.76275 2.742 5.863V6.741H1.858C1.75739 6.74126 1.66099 6.78142 1.58995 6.85265C1.5189 6.92389 1.479 7.02039 1.479 7.121V7.88C1.479 8.089 1.649 8.259 1.858 8.259H2.742V9.137C2.742 9.346 2.911 9.515 3.12 9.515H3.877C3.97725 9.515 4.0734 9.47518 4.14429 9.40429C4.21517 9.3334 4.255 9.23725 4.255 9.137V8.259H5.142C5.24244 8.25874 5.33868 8.21872 5.4097 8.1477C5.48072 8.07668 5.52074 7.98044 5.521 7.88V7.121C5.521 7.02039 5.4811 6.92389 5.41005 6.85265C5.33901 6.78142 5.24261 6.74126 5.142 6.741H4.255V5.863C4.255 5.76275 4.21517 5.6666 4.14429 5.59571C4.0734 5.52482 3.97725 5.485 3.877 5.485V5.485ZM13.74 6.873C13.9063 7.03942 13.9997 7.26509 13.9996 7.50035C13.9995 7.73562 13.9059 7.96121 13.7395 8.1275C13.5731 8.29379 13.3474 8.38716 13.1121 8.38707C12.8769 8.38697 12.6513 8.29342 12.485 8.127C12.3187 7.96058 12.2253 7.73491 12.2254 7.49965C12.2255 7.26438 12.3191 7.03879 12.4855 6.8725C12.6519 6.70621 12.8776 6.61284 13.1129 6.61293C13.3481 6.61303 13.5737 6.70658 13.74 6.873V6.873ZM10.514 6.873C10.5963 6.9554 10.6616 7.05322 10.7062 7.16086C10.7507 7.2685 10.7736 7.38386 10.7736 7.50035C10.7735 7.61684 10.7505 7.73219 10.7059 7.83979C10.6613 7.9474 10.5959 8.04516 10.5135 8.1275C10.4311 8.20984 10.3333 8.27514 10.2256 8.31968C10.118 8.36421 10.0026 8.38711 9.88615 8.38707C9.76966 8.38702 9.65431 8.36403 9.54671 8.31941C9.4391 8.27478 9.34134 8.2094 9.259 8.127C9.09271 7.96058 8.99934 7.73491 8.99943 7.49965C8.99953 7.26438 9.09308 7.03879 9.2595 6.8725C9.42592 6.70621 9.65159 6.61284 9.88685 6.61293C10.1221 6.61303 10.3477 6.70658 10.514 6.873V6.873ZM12.119 5.359C12.2013 5.4414 12.2666 5.53922 12.3112 5.64686C12.3557 5.7545 12.3786 5.86986 12.3786 5.98635C12.3785 6.10284 12.3555 6.21819 12.3109 6.32579C12.2663 6.4334 12.2009 6.53116 12.1185 6.6135C12.0361 6.69584 11.9383 6.76114 11.8306 6.80568C11.723 6.85021 11.6076 6.87311 11.4911 6.87307C11.3747 6.87302 11.2593 6.85003 11.1517 6.80541C11.0441 6.76078 10.9463 6.6954 10.864 6.613C10.6977 6.44658 10.6043 6.22091 10.6044 5.98565C10.6045 5.75038 10.6981 5.52479 10.8645 5.3585C11.0309 5.19221 11.2566 5.09884 11.4919 5.09893C11.7271 5.09903 11.9527 5.19258 12.119 5.359ZM9 2H6.671C6.40578 2 6.15143 1.89464 5.96389 1.70711C5.77636 1.51957 5.671 1.26522 5.671 1C5.671 0.734784 5.77636 0.48043 5.96389 0.292893C6.15143 0.105357 6.40578 0 6.671 0L9 0C9.26522 0 9.51957 0.105357 9.70711 0.292893C9.89464 0.48043 10 0.734784 10 1C10 1.26522 9.89464 1.51957 9.70711 1.70711C9.51957 1.89464 9.26522 2 9 2Z" fill="white"/>
</g>
<defs>
<clipPath id="clip0">
<rect width="16" height="16" fill="white"/>
</clipPath>
</defs>
</svg>
