<svg width="16" height="16" viewBox="0 0 16 16" fill="none" xmlns="http://www.w3.org/2000/svg">
<g clip-path="url(#clip0)">
<path fill-rule="evenodd" clip-rule="evenodd" d="M7.597 2.011C7.48734 2.01078 7.37975 2.04082 7.28606 2.09781C7.19238 2.15479 7.11623 2.23652 7.066 2.334L7.062 2.342C6.92891 2.58368 6.70891 2.76571 6.44658 2.85119C6.18425 2.93666 5.89924 2.91919 5.64932 2.80231C5.3994 2.68542 5.20328 2.47788 5.10072 2.22175C4.99816 1.96562 4.99683 1.68007 5.097 1.423L5.235 1.07L5.236 1.068C5.40677 0.748605 5.66106 0.481575 5.97174 0.295415C6.28242 0.109255 6.63782 0.0109531 7 0.0110016H14C14.5304 0.0110016 15.0391 0.221715 15.4142 0.596788C15.7893 0.971861 16 1.48057 16 2.011V11.5C16 13.268 14.401 14.068 14.401 14.068L11.717 15.859L11.716 15.86C11.5384 15.9561 11.339 16.0043 11.1371 16C10.9353 15.9957 10.738 15.939 10.5647 15.8354C10.3915 15.7318 10.2481 15.5849 10.1487 15.4092C10.0494 15.2334 9.99743 15.0349 9.998 14.833L9.999 14.678V14.011H6.993C6.63074 14.0108 6.27531 13.9123 5.96465 13.726C5.65398 13.5397 5.39972 13.2725 5.229 12.953L5.228 12.952L5.09 12.599C4.98873 12.3417 4.98929 12.0556 5.09157 11.7987C5.19385 11.5419 5.39016 11.3336 5.64054 11.2164C5.89093 11.0992 6.17658 11.0818 6.43935 11.1677C6.70212 11.2536 6.92227 11.4365 7.055 11.679L7.063 11.694C7.163 11.882 7.361 12.011 7.59 12.011H9.999L10 9.011V5.703C10 3.906 11.503 3.24 11.503 3.24L13.925 2.011H7.597ZM4.586 6.011L4.293 5.718C4.11084 5.5294 4.01005 5.2768 4.01233 5.0146C4.0146 4.7524 4.11977 4.50159 4.30518 4.31618C4.49059 4.13077 4.7414 4.02561 5.0036 4.02333C5.2658 4.02105 5.5184 4.12184 5.707 4.304L7.693 6.289L7.707 6.304C7.88517 6.48019 7.98957 6.71761 7.999 6.968L8 6.999V7.042L7.999 7.043V7.065L7.998 7.066V7.077C7.99603 7.11088 7.99203 7.14461 7.986 7.178L7.985 7.182V7.185L7.984 7.188V7.192L7.983 7.194V7.195C7.94662 7.39345 7.85029 7.57597 7.707 7.718L7.693 7.732L5.707 9.718C5.5184 9.90016 5.2658 10.001 5.0036 9.99868C4.7414 9.9964 4.49059 9.89123 4.30518 9.70582C4.11977 9.52041 4.0146 9.2696 4.01233 9.0074C4.01005 8.74521 4.11084 8.4926 4.293 8.304L4.586 8.011H1C0.734784 8.011 0.48043 7.90564 0.292893 7.71811C0.105357 7.53057 0 7.27622 0 7.011C0 6.74579 0.105357 6.49143 0.292893 6.30389C0.48043 6.11636 0.734784 6.011 1 6.011H4.586V6.011Z" fill="white"/>
</g>
<defs>
<clipPath id="clip0">
<rect width="16" height="16" fill="white"/>
</clipPath>
</defs>
</svg>
