<svg width="16" height="16" viewBox="0 0 16 16" fill="none" xmlns="http://www.w3.org/2000/svg">
<path fill-rule="evenodd" clip-rule="evenodd" d="M15 15H5C4.73478 15 4.48043 14.8946 4.29289 14.7071C4.10536 14.5196 4 14.2652 4 14V13.7C4 11.22 6.01 9.206 8.488 9.2V8.404C8.03521 8.13978 7.65957 7.76153 7.39849 7.30693C7.13741 6.85232 7.00002 6.33724 7 5.813V3.544C7.0202 2.76176 7.34513 2.01835 7.90554 1.47222C8.46595 0.926102 9.2175 0.620466 10 0.620466C10.7825 0.620466 11.5341 0.926102 12.0945 1.47222C12.6549 2.01835 12.9798 2.76176 13 3.544V5.813C13 6.33724 12.8626 6.85232 12.6015 7.30693C12.3404 7.76153 11.9648 8.13978 11.512 8.404V9.2C12.7032 9.2037 13.8444 9.67938 14.6856 10.5228C15.5268 11.3663 15.9995 12.5088 16 13.7V14C16 14.2652 15.8946 14.5196 15.7071 14.7071C15.5196 14.8946 15.2652 15 15 15ZM2.541 13H0.753C0.553373 12.9997 0.361998 12.9203 0.220841 12.7792C0.0796832 12.638 0.000264582 12.4466 0 12.247C0.000484808 11.3799 0.33301 10.5459 0.929262 9.91639C1.52551 9.28685 2.34022 8.90955 3.206 8.862V8.288C2.8826 8.09942 2.61427 7.82937 2.42776 7.50477C2.24125 7.18018 2.14307 6.81237 2.143 6.438V5.143C2.14339 4.75227 2.25054 4.36908 2.45288 4.03483C2.65522 3.70058 2.94506 3.42797 3.29107 3.24647C3.63708 3.06497 4.02612 2.98148 4.41613 3.00501C4.80615 3.02855 5.18232 3.15821 5.504 3.38L5.5 3.534C5.5 4.319 5.494 5.105 5.501 5.89C5.507 6.143 5.53 6.395 5.577 6.645C5.65 7.034 5.776 7.408 5.945 7.765L5.954 7.782C5.79009 7.98472 5.59089 8.15615 5.366 8.288V8.584C4.08332 9.37313 3.14202 10.6133 2.727 12.061C2.64009 12.3685 2.57789 12.6825 2.541 13V13Z" fill="white"/>
</svg>
