<svg xmlns="http://www.w3.org/2000/svg" width="16" height="16" viewBox="0 0 16 16">
  <path fill-rule="evenodd" d="M13 15H3a2 2 0 0 1-2-2V3a2 2 0 0 1 1.999-2 1 1 0 0 1 2 0h6a1 1 0 0 1 2 0H13a2 2 0 0 1 2 2v10a2 2 0 0 1-2 2zm-4.925-3.148c1.03 0 1.857-.7 1.857-1.636 0-.78-.714-1.554-1.789-1.554-.293 0-.534.074-.714.168.293-.572.917-.881 1.345-.982.188-.041.369-.189.369-.411 0-.249-.211-.43-.474-.43-1.075 0-2.488 1.278-2.488 3.021 0 1.205.917 1.824 1.894 1.824zM3.55 7c-1.188 0-1.669.754-1.669 1.077 0 .161.136.376.436.376a.447.447 0 0 0 .406-.255c.105-.209.331-.417.797-.417.383 0 .699.228.699.558 0 .337-.346.579-.707.579-.233 0-.451.148-.451.383 0 .263.226.397.474.397.458 0 .879.263.879.667 0 .41-.406.693-.879.693-.504 0-.812-.243-.925-.505a.512.512 0 0 0-.443-.289c-.271 0-.496.168-.496.457 0 .39.721 1.124 1.879 1.124 1.06 0 1.879-.606 1.879-1.42 0-.518-.316-.955-.864-1.204.421-.236.609-.586.609-1.016C5.174 7.673 4.565 7 3.55 7zm10.088.861c.278 0 .488-.141.488-.397 0-.222-.21-.397-.488-.397h-1.947a.469.469 0 0 0-.474.424l-.18 1.555c-.008.04-.008.094-.008.107 0 .162.166.377.429.377.285 0 .451-.128.977-.128.361 0 .932.236.932.788 0 .437-.353.861-.962.861-.594 0-.722-.377-1.098-.377-.33 0-.496.188-.496.404 0 .161.098.296.248.39.173.108.669.377 1.338.377 1.173 0 1.932-.747 1.932-1.649 0-1.023-.962-1.568-1.774-1.568-.308 0-.548.068-.548.068l.105-.835h1.526zM8.06 9.396c.617 0 .94.41.94.834 0 .458-.421.834-.94.834-.519 0-.955-.383-.955-.834 0-.471.414-.834.955-.834zM3.999 3a1 1 0 1 1 0 2 1 1 0 0 1 0-2zm8 0a1 1 0 1 1 0 2 1 1 0 0 1 0-2z"/>
</svg>
