<svg xmlns="http://www.w3.org/2000/svg" width="16" height="16" viewBox="0 0 16 16">
  <path fill-rule="evenodd" d="M8.00442 1.76682c.45034-.00467.90114.168 1.2446.51333l5.243 5.24067c.6832.68133.6832 1.792 0 2.478-.68273.68133-1.792.68133-2.4752 0 0 0-1.68186-1.68467-2.86813-2.87-.63187-.63-1.65667-.63-2.28853 0-1.18627 1.18533-2.86814 2.87-2.86814 2.87-.6832.68133-1.79247.68133-2.4752 0-.6832-.686-.6832-1.79667 0-2.478l5.243-5.24067c.34347-.34533.79427-.518 1.2446-.51333zM8.00028 9.2341c1.38071 0 2.5 1.11928 2.5 2.5 0 1.3807-1.11929 2.5-2.5 2.5s-2.5-1.1193-2.5-2.5c0-1.38072 1.11929-2.5 2.5-2.5z"/>
</svg>
