<svg xmlns="http://www.w3.org/2000/svg" width="16" height="16" viewBox="0 0 16 16">
  <path d="M8.5 11.9904c.828 0 1.5.672 1.5 1.5s-.672 1.5-1.5 1.5-1.5-.672-1.5-1.5.672-1.5 1.5-1.5zm.28-9.9844C11.386 1.875 13 3.754 13 5.695c0 3.017-2.737 3.501-3.302 4.722-.265.573-.742.583-1.034.583-.419 0-1.104-.203-1.104-1.022 0-2.419 2.955-2.422 2.955-4.061 0-.819-.514-1.377-1.382-1.377-1.212 0-1.617 1.081-1.743 1.472-.18.563-.524 1.22-1.429 1.112C5 7.009 5 6.112 5 5.644c0-1.053.856-3.49 3.78-3.638z"/>
</svg>
