<svg width="16" height="16" xmlns="http://www.w3.org/2000/svg">
  <path d="M12.895 14.308a7.958 7.958 0 0 1-4.9 1.68A7.998 7.998 0 0 1 0 7.994 7.998 7.998 0 0 1 7.994 0a7.998 7.998 0 0 1 7.994 7.994 7.958 7.958 0 0 1-1.68 4.901l1.4 1.4a1 1 0 0 1-1.414 1.412l-1.399-1.399zm-4.9-12.31a5.999 5.999 0 0 1 5.995 5.996 5.999 5.999 0 0 1-5.996 5.996A5.999 5.999 0 0 1 2 7.994 5.999 5.999 0 0 1 7.994 2zm-1 6.996H4.597a.6.6 0 0 1-.6-.6v-.8a.6.6 0 0 1 .6-.599h6.795a.6.6 0 0 1 .6.6v.799a.6.6 0 0 1-.6.6H6.995z" fill-rule="evenodd"/>
</svg>
