<svg xmlns="http://www.w3.org/2000/svg" width="16" height="16" viewBox="0 0 16 16">
  <path fill-rule="evenodd" d="M12.998 15H3.002a2 2 0 0 1-2-2V3a2 2 0 0 1 2-2h9.996a2 2 0 0 1 2 2v10a2 2 0 0 1-2 2zm.004-11.163a.348.348 0 0 0-.592-.246l-8.816 8.814a.347.347 0 0 0 .245.592h8.603a.56.56 0 0 0 .56-.56v-8.6zm-1.377 5.91c.208 0 .377.169.377.376v.754a.377.377 0 0 1-.377.376H8.378a.376.376 0 0 1-.376-.376v-.754c0-.207.168-.376.376-.376h3.247zM5.878 3h-.756a.379.379 0 0 0-.379.378v1.363H3.381a.38.38 0 0 0-.379.379v.76c0 .209.17.379.379.379h1.362v1.363c0 .209.17.378.379.378h.756a.379.379 0 0 0 .379-.378V6.259h1.365c.21 0 .38-.17.38-.379v-.76a.38.38 0 0 0-.38-.379H6.257V3.378A.379.379 0 0 0 5.878 3z"/>
</svg>
