<svg xmlns="http://www.w3.org/2000/svg" xmlns:xlink="http://www.w3.org/1999/xlink" width="16" height="16" viewBox="0 0 16 16">
  <defs>
    <path id="wysiwyg-keyboard-a" d="M13 3c1.104 0 2 .896 2 2v6c0 1.104-.896 2-2 2H3c-1.104 0-2-.896-2-2V5c0-1.104.896-2 2-2h10zm-2.004 8.116c0-.064-.052-.116-.117-.116H5.121c-.065 0-.117.052-.117.116v.233c0 .065.052.117.117.117h5.758c.065 0 .117-.052.117-.117v-.233zM12.5 8h-1c-.276 0-.5.224-.5.5v1c0 .276.224.5.5.5h1c.276 0 .5-.224.5-.5v-1c0-.276-.224-.5-.5-.5zM9 8.5c0-.276-.224-.5-.5-.5h-1c-.276 0-.5.224-.5.5v1c0 .276.224.5.5.5h1c.276 0 .5-.224.5-.5v-1zM4.5 8h-1c-.276 0-.5.224-.5.5v1c0 .276.224.5.5.5h1c.276 0 .5-.224.5-.5v-1c0-.276-.224-.5-.5-.5zM13 5.5c0-.276-.224-.5-.5-.5h-1c-.276 0-.5.224-.5.5v1c0 .276.224.5.5.5h1c.276 0 .5-.224.5-.5v-1zM4.5 5h-1c-.276 0-.5.224-.5.5v1c0 .276.224.5.5.5h1c.276 0 .5-.224.5-.5v-1c0-.276-.224-.5-.5-.5zm4 0h-1c-.276 0-.5.224-.5.5v1c0 .276.224.5.5.5h1c.276 0 .5-.224.5-.5v-1c0-.276-.224-.5-.5-.5z"/>
  </defs>
  <use xlink:href="#wysiwyg-keyboard-a" fill-rule="evenodd"/>
</svg>
