<svg xmlns="http://www.w3.org/2000/svg" xmlns:xlink="http://www.w3.org/1999/xlink" width="16" height="16" viewBox="0 0 16 16">
  <defs>
    <path id="wysiwyg-style-a" d="M8.59095 13.231c-.358.46-1.306 1.281-3 .329-1.983-1.114-2.543-3.092-2.558-3.149-.06-.205-.04-.434.076-.633.115-.2.302-.332.51-.383.058-.015 2.051-.519 4.006.641.677.401 1.041.842 1.22 1.26.157-.166.362-.33.626-.487 1.574-.933 3.178-.527 3.225-.515.167.04.318.147.411.307.093.161.109.345.061.51-.013.046-.463 1.638-2.059 2.535-1.585.89-2.359-.146-2.518-.415zm-4.013-5.223c-.085-.324-.13-.665-.13-1.016V3.386c0-.323.263-.586.586-.586.077 0 .15.015.217.042 0 0 .543.201 1.15.856.776-1.258 1.701-1.621 1.737-1.635.096-.041.201-.063.311-.063.11 0 .215.022.311.063.043.016.959.38 1.731 1.627.567-.608 1.075-.822 1.136-.846.069-.028.145-.044.225-.044.33 0 .597.268.597.597v3.595c0 .66-.16 1.283-.444 1.833-.842.007-1.962.168-3.089.778-.218-.188-.476-.374-.779-.554-1.27-.753-2.551-.996-3.559-1.041z"/>
  </defs>
  <use xlink:href="#wysiwyg-style-a" fill-rule="evenodd"/>
</svg>
