<svg xmlns="http://www.w3.org/2000/svg" width="16" height="16" viewBox="0 0 16 16">
  <path fill-rule="evenodd" d="M8 0c4.415 0 8 3.585 8 8s-3.585 8-8 8-8-3.585-8-8 3.585-8 8-8zm-.554 10.581a.646.646 0 0 0-.632.215c-.386.453-1.042 1.236-1.042 1.236a.531.531 0 0 0 .193.83A5.344 5.344 0 0 0 8 13.265c.721 0 1.408-.145 2.033-.409a.525.525 0 0 0 .192-.821c-.281-.339-.665-.799-1.035-1.241a.65.65 0 0 0-.637-.217A2.35 2.35 0 0 1 8 10.64c-.19 0-.375-.02-.554-.059zm2.988-1.58a.64.64 0 0 0 .1.661c.377.461 1.036 1.245 1.036 1.245a.53.53 0 0 0 .849-.044c.524-.824.832-1.8.832-2.848v-.001a.458.458 0 0 0-.576-.442l-1.635.438a.649.649 0 0 0-.469.508 2.192 2.192 0 0 1-.137.483zm-5.01-.482a.644.644 0 0 0-.465-.503c-.598-.167-1.633-.444-1.633-.444a.459.459 0 0 0-.576.443c0 1.048.308 2.024.838 2.844a.525.525 0 0 0 .838.044c.289-.338.68-.802 1.045-1.236a.65.65 0 0 0 .101-.668 2.174 2.174 0 0 1-.148-.48zM8 7a1 1 0 1 1 0 2 1 1 0 0 1 0-2zM6.77 5.696a.642.642 0 0 0 .347-.57c.008-.596.008-1.625.008-1.625a.533.533 0 0 0-.677-.513 5.325 5.325 0 0 0-2.833 2.141.522.522 0 0 0 .308.782c.436.122 1.029.283 1.587.433a.647.647 0 0 0 .635-.176c.179-.19.391-.348.625-.472zm3.091.468a.643.643 0 0 0 .628.174c.576-.147 1.59-.419 1.59-.419a.53.53 0 0 0 .315-.795A5.334 5.334 0 0 0 9.55 2.997a.522.522 0 0 0-.666.504c-.005.445-.007 1.053-.008 1.624 0 .243.136.466.352.577.237.118.449.276.633.462z"/>
</svg>
