<svg xmlns="http://www.w3.org/2000/svg" width="16" height="16" viewBox="0 0 16 16">
  <path fill-rule="evenodd" d="M9.8 16H6.2c-.662 0-1.2-.523-1.2-1.167v-2.421c0-.264.104-.517.29-.704l2.262-2.282a.598.598 0 0 1 .849-.004l2.303 2.285a1 1 0 0 1 .296.71v2.416C11 15.477 10.462 16 9.8 16zm-6.217-5H1.167C.523 11 0 10.462 0 9.8V6.2C0 5.538.523 5 1.167 5h2.421c.264 0 .517.104.704.29l2.282 2.262a.598.598 0 0 1 .004.849l-2.285 2.303a1 1 0 0 1-.71.296zm11.25 0h-2.416a1 1 0 0 1-.71-.296L9.422 8.401a.598.598 0 0 1 .004-.849l2.282-2.262a.998.998 0 0 1 .704-.29h2.421C15.477 5 16 5.538 16 6.2v3.6c0 .662-.523 1.2-1.167 1.2zM5.29 4.292A.998.998 0 0 1 5 3.588V1.167C5 .523 5.538 0 6.2 0h3.6c.662 0 1.2.523 1.2 1.167v2.416a1 1 0 0 1-.296.71L8.401 6.578a.598.598 0 0 1-.849-.004L5.29 4.292z"/>
</svg>
