<svg xmlns="http://www.w3.org/2000/svg" width="16" height="16" viewBox="0 0 16 16">
  <path fill-rule="evenodd" d="M14.217 8c0-.552-.448-1-1-1h-1.96c.201-1.517.852-2.986 1.959-4.378.343-.432.272-1.061-.161-1.405-.431-.344-1.062-.272-1.405.161C10.27 3.113 9.452 5.039 9.242 7H6.759C6.55 5.039 5.731 3.114 4.351 1.378c-.345-.433-.974-.505-1.405-.161-.433.344-.504.973-.161 1.405C3.892 4.015 4.544 5.484 4.744 7h-1.96c-.552 0-1 .448-1 1s.448 1 1 1h1.96c-.2 1.516-.852 2.985-1.959 4.378-.343.432-.272 1.061.161 1.405.184.146.403.217.622.217.294 0 .586-.129.783-.378C5.731 12.886 6.55 10.961 6.759 9h2.483c.21 1.961 1.028 3.887 2.408 5.622.197.249.489.378.783.378.219 0 .438-.071.622-.217.433-.344.504-.973.161-1.405-1.107-1.392-1.758-2.861-1.959-4.378h1.96c.552 0 1-.448 1-1"/>
</svg>
