<svg xmlns="http://www.w3.org/2000/svg" width="16" height="16" viewBox="0 0 16 16">
  <path fill-rule="evenodd" d="M14.923 1.618c-.102-.244-.296-.439-.541-.541C14.26 1.027 14.131 1 14 1H5c-.552 0-1 .448-1 1 0 .553.448 1 1 1h6.586L6.16 8.427 4.027 6.293c-.391-.39-1.024-.39-1.415 0-.39.391-.39 1.024 0 1.414l2.134 2.134-3.453 3.452c-.391.391-.391 1.024 0 1.414.195.196.451.293.707.293.256 0 .512-.097.707-.293l3.453-3.452 2.133 2.133c.195.195.451.293.707.293.256 0 .512-.098.707-.293.391-.391.391-1.023 0-1.414L7.574 9.841 13 4.414V10.5c0 .553.448 1 1 1s1-.447 1-1V2c0-.13-.026-.259-.077-.382"/>
</svg>
