<svg xmlns="http://www.w3.org/2000/svg" width="16" height="16" viewBox="0 0 16 16">
  <path fill-rule="evenodd" d="M12.286 14.99H3.714c-.946 0-1.714-.896-1.714-2V3.01c0-1.104.768-2 1.714-2h6.124c.83 0 1.618.362 2.158.992l1.32 1.54c.441.515.684 1.171.684 1.849v7.599c0 1.104-.768 2-1.714 2zM6 9.99a1 1 0 0 0-2 0v2a1 1 0 0 0 2 0v-2zm3 2a1 1 0 1 0-2 0 1 1 0 0 0 2 0zm3-2a1 1 0 0 0-2 0v2a1 1 0 0 0 2 0v-2zm-3-3a1 1 0 0 0-2 0v2a1 1 0 0 0 2 0v-2zm-3 0a1 1 0 1 0-2 0 1 1 0 0 0 2 0zm6 0a1 1 0 1 0-2 0 1 1 0 0 0 2 0z"/>
</svg>
