<svg xmlns="http://www.w3.org/2000/svg" width="16" height="16" viewBox="0 0 16 16">
  <path fill-rule="evenodd" d="M11.486 4H12c4.034 0 4 2 4 2v5c0 2.81-3.461 5.01-5 5-1.118.007-3.249-1.151-4.332-2.862 2.139-.888 4.818-3.165 4.818-5.901V4zM11 10.97c1.405 0 2.082.882 2.393 1.556a.207.207 0 0 1-.071.251.21.21 0 0 1-.261-.017c-.394-.214-1.035-.415-2.061-.415-1.007 0-1.634.203-2.019.425a.206.206 0 0 1-.335-.226c.3-.686.958-1.574 2.354-1.574zM6 0c4.034 0 4 2 4 2v5c0 2.811-3.461 5.01-5 5-1.539.01-5-2.189-5-5V2s-.021-2 4-2h2zm7.343 7.744c-.714-.235-1.408-.079-1.549.35-.141.428.324.966 1.037 1.202.714.235 1.408.078 1.549-.35.141-.429-.324-.967-1.037-1.202zM5 9c1.448 0 2.122-.937 2.421-1.617a.189.189 0 0 0-.071-.226.187.187 0 0 0-.235.022c-.388.227-1.041.447-2.115.447-1.055 0-1.693-.223-2.072-.457a.186.186 0 0 0-.308.195C2.907 8.057 3.562 9 5 9zM2.65 3.744c.713-.235 1.407-.078 1.548.35.141.428-.323.967-1.037 1.202-.713.235-1.407.078-1.548-.35-.141-.428.323-.967 1.037-1.202zm4.693 0c-.714-.235-1.408-.078-1.549.35-.141.428.324.967 1.037 1.202.714.235 1.408.078 1.549-.35.141-.428-.324-.967-1.037-1.202z"/>
</svg>
