<svg xmlns="http://www.w3.org/2000/svg" xmlns:xlink="http://www.w3.org/1999/xlink" width="16" height="16" viewBox="0 0 16 16">
  <defs>
    <path id="wysiwyg-align_right-a" d="M13.502 13.996H4.498c-.275 0-.498-.224-.498-.498 0-.275.223-.498.498-.498h9.004c.275 0 .498.223.498.498 0 .274-.223.498-.498.498zm0-1.999H8.498c-.275 0-.498-.223-.498-.499 0-.275.223-.498.498-.498h5.004c.275 0 .498.223.498.498 0 .276-.223.499-.498.499zm-.004-1.993H6.502c-.277 0-.502-.225-.502-.502S6.225 9 6.502 9h6.996c.277 0 .502.225.502.502s-.225.502-.502.502zm.004-2.008H4.498c-.275 0-.498-.224-.498-.498C4 7.223 4.223 7 4.498 7h9.004c.275 0 .498.223.498.498 0 .274-.223.498-.498.498zm-.004-1.992H6.502c-.277 0-.502-.225-.502-.502S6.225 5 6.502 5h6.996c.277 0 .502.225.502.502s-.225.502-.502.502zm-.003-1.993H2.505c-.279 0-.505-.227-.505-.506S2.226 3 2.505 3h10.99c.279 0 .505.226.505.505s-.226.506-.505.506z"/>
  </defs>
  <use xlink:href="#wysiwyg-align_right-a" fill-rule="evenodd"/>
</svg>
