<svg xmlns="http://www.w3.org/2000/svg" xmlns:xlink="http://www.w3.org/1999/xlink" width="16" height="16" viewBox="0 0 16 16">
  <defs>
    <path id="wysiwyg-clear-a" d="M6.79725 13.94225c-.698.049-1.412-.193-1.944-.725l-2.122-2.122c-.975-.975-.975-2.56 0-3.535l4.829-4.829c.975-.975 2.56-.975 3.535 0l2.122 2.122c.975.975.975 2.56 0 3.535l-4.023 4.023h4.006c.423 0 .767.344.767.767 0 .424-.344.768-.767.768h-6.327c-.026 0-.051-.001-.076-.004zm2.867-4.334l-3.263-3.264-2.257 2.256c-.39.391-.39 1.024 0 1.415l1.85 1.849c.39.39 1.024.39 1.414 0l2.256-2.256z"/>
  </defs>
  <use xlink:href="#wysiwyg-clear-a" fill-rule="evenodd"/>
</svg>
