<svg xmlns="http://www.w3.org/2000/svg" xmlns:xlink="http://www.w3.org/1999/xlink" width="16" height="16" viewBox="0 0 16 16">
  <defs>
    <path id="wysiwyg-image-a" d="M13.002 2c1.103 0 2 .897 2 2v8.002c0 1.103-.897 2-2 2H3c-1.103 0-2-.897-2-2V4c0-1.103.897-2 2-2h10.002zm-1.115 10.001c.422 0 .764-.34.764-.759 0-.118-.027-.229-.075-.329h.001l-.003-.004c-.009-.018-.018-.036-.029-.053l-2.184-3.54c-.129-.247-.388-.416-.687-.416-.244 0-.461.112-.602.287h-.001l-1.897 2.895-1.35-1.327c-.134-.123-.312-.197-.508-.197-.264 0-.496.135-.63.34l-1.2 1.912h.001c-.086.122-.136.271-.136.432 0 .419.342.759.764.759h7.772zm-7.372-7.73c.687 0 1.245.558 1.245 1.245s-.558 1.245-1.245 1.245S3.27 6.203 3.27 5.516s.558-1.245 1.245-1.245z"/>
  </defs>
  <use xlink:href="#wysiwyg-image-a" fill-rule="evenodd"/>
</svg>
