<svg xmlns="http://www.w3.org/2000/svg" xmlns:xlink="http://www.w3.org/1999/xlink" width="16" height="16" viewBox="0 0 16 16">
  <defs>
    <path id="wysiwyg-indent_increase-a" d="M13.504 13.996H2.5c-.275 0-.498-.224-.498-.498 0-.275.223-.498.498-.498h11.004c.275 0 .498.223.498.498 0 .274-.223.498-.498.498zm0-1.999H7.5c-.275 0-.498-.223-.498-.499 0-.275.223-.498.498-.498h6.004c.275 0 .498.223.498.498 0 .276-.223.499-.498.499zM2.78 10.915c-.08.055-.177.087-.281.087-.275 0-.499-.224-.499-.499V6.502c0-.276.224-.499.499-.499.109 0 .21.035.292.094L5.752 8.07c.019.011.037.023.055.037.119.091.196.235.196.396 0 .163-.078.308-.2.399-.015.011-.031.022-.048.032L2.78 10.916v-.001zm10.72-.911H7.504c-.277 0-.502-.225-.502-.502S7.227 9 7.504 9H13.5c.277 0 .502.225.502.502s-.225.502-.502.502zm.004-2.008H7.5c-.275 0-.498-.224-.498-.498 0-.275.223-.498.498-.498h6.004c.275 0 .498.223.498.498 0 .274-.223.498-.498.498zM13.5 6.004H7.504c-.277 0-.502-.225-.502-.502S7.227 5 7.504 5H13.5c.277 0 .502.225.502.502s-.225.502-.502.502zm-.003-1.993H2.507c-.279 0-.505-.227-.505-.506S2.228 3 2.507 3h10.99c.279 0 .505.226.505.505s-.226.506-.505.506z"/>
  </defs>
  <use xlink:href="#wysiwyg-indent_increase-a" fill-rule="evenodd"/>
</svg>
