<svg xmlns="http://www.w3.org/2000/svg" width="16" height="16" viewBox="0 0 16 16">
  <path fill-rule="evenodd" d="M15 13a1 1 0 0 1 0 2H9a1 1 0 0 1 0-2h6zM5.408 9a.592.592 0 0 1 .469.953L3.486 13.26l-.001.001-.001.002a.598.598 0 0 1-.97-.003L.117 9.945A.593.593 0 0 1 .592 9h4.816zM15 9a1 1 0 0 1 0 2H9a1 1 0 0 1 0-2h6zM5.408 7H.592a.592.592 0 0 1-.475-.945L2.514 2.74a.598.598 0 0 1 .97-.003l.002.003 2.391 3.307A.592.592 0 0 1 5.408 7zM15 5a1 1 0 0 1 0 2H9a1 1 0 0 1 0-2h6zm0-4a1 1 0 0 1 0 2H9a1 1 0 0 1 0-2h6z"/>
</svg>
