<svg xmlns="http://www.w3.org/2000/svg" width="16" height="16" viewBox="0 0 16 16">
  <path fill-rule="evenodd" d="M4.05 11.95a1.485 1.485 0 0 0-2.1 0l-.258.258a1.487 1.487 0 0 0 0 2.1c.58.579 1.521.579 2.1 0l.258-.258c.58-.579.58-1.521 0-2.1zm3.393-3.393a1.485 1.485 0 0 0-2.1 0l-.258.257a1.488 1.488 0 0 0 0 2.101c.58.579 1.521.579 2.101 0l.257-.258c.58-.58.58-1.521 0-2.1zm3.402-3.402a1.488 1.488 0 0 0-2.101 0l-.257.258a1.485 1.485 0 1 0 2.1 2.1l.258-.257a1.488 1.488 0 0 0 0-2.101zm3.463-3.463a1.487 1.487 0 0 0-2.1 0L12 1.9A1.485 1.485 0 1 0 14.1 4l.208-.208a1.487 1.487 0 0 0 0-2.1z"/>
</svg>
