<svg xmlns="http://www.w3.org/2000/svg" xmlns:xlink="http://www.w3.org/1999/xlink" width="16" height="16" viewBox="0 0 16 16">
  <defs>
    <path id="wysiwyg-signature-a" d="M13.252 11.50415c.413 0 .748.336.748.748 0 .413-.335.748-.748.748H2.748c-.413 0-.748-.335-.748-.748 0-.412.335-.748.748-.748h10.504zm-2.29-2.012c-.572.392-1.219.662-1.889.743-2.117.255-2.646-.949-2.688-1.786 0 0-.548 1.786-2.212 1.786-1.664 0-3.056-2.208-1.488-5.562 1.568-3.355 3.176-2.698 3.7-2.457.309.143.678.571.929 1.35.092.011.19.034.292.076.518.212.774.694.645 1.02-.128.325-.655.846-.645 1.789 0 .039-.001.075-.003.109-.003 1.665.078 2.526 1.47 2.223.246-.054.471-.123.679-.204-.57-.581-1.004-1.345-1.036-2.34-.083-2.542 2.062-2.428 2.355-2.401.673.04 2.121.329 2.062 2.082-.029.859-.423 1.763-1.039 2.523.087.037.176.072.266.105 1.362.494 1.719.572 1.626 1.162-.092.59-.711.739-1.406.491-.267-.095-.921-.311-1.618-.709zm-6.647-.709s-.957.155-.823-1.881c.108-1.635 1.166-3.177 1.721-3.175.511.002 1.032.37.982 1.492-.068 1.492-.894 3.603-1.88 3.564zm6.56-3.564c-.275-.002-.802.128-.802 1.02 0 .541.336 1.089.901 1.547.392-.396.642-.853.796-1.293.324-.929-.406-1.271-.886-1.274h-.009z"/>
  </defs>
  <use xlink:href="#wysiwyg-signature-a" fill-rule="evenodd"/>
</svg>
