<svg xmlns="http://www.w3.org/2000/svg" xmlns:xlink="http://www.w3.org/1999/xlink" width="16" height="16" viewBox="0 0 16 16">
  <defs>
    <path id="wysiwyg-smile-a" d="M8 1c3.863 0 7 3.137 7 7s-3.137 7-7 7-7-3.137-7-7 3.137-7 7-7zm0 1.767c2.888 0 5.233 2.345 5.233 5.233 0 2.888-2.345 5.233-5.233 5.233-2.888 0-5.233-2.345-5.233-5.233 0-2.888 2.345-5.233 5.233-5.233zm2.195 6.026c.09-.319.384-.554.733-.554.419 0 .76.341.76.761 0 .029-.001.057-.004.085l-.003.018C11.469 10.78 9.91 12 8.014 12c-1.895 0-3.45-1.219-3.664-2.894-.005-.034-.007-.07-.007-.106 0-.42.34-.761.76-.761.374 0 .684.269.749.624.136.6.734 1.62 2.162 1.62 1.439 0 2-1.051 2.181-1.69zM7 5.755C7 5.338 6.662 5 6.245 5s-.756.338-.756.755v1.001c0 .417.339.755.756.755S7 7.173 7 6.756V5.755zm3.497-.006c0-.414-.335-.749-.748-.749C9.335 5 9 5.335 9 5.749v1.014c0 .413.335.748.749.748.413 0 .748-.335.748-.748V5.749z"/>
  </defs>
  <use xlink:href="#wysiwyg-smile-a" fill-rule="evenodd"/>
</svg>
