<svg xmlns="http://www.w3.org/2000/svg" xmlns:xlink="http://www.w3.org/1999/xlink" width="16" height="16" viewBox="0 0 16 16">
  <defs>
    <path id="wysiwyg-spellcheck-a" d="M8.475 11.111l3.568-3.568c.39-.39 1.024-.39 1.414 0 .391.39.391 1.024 0 1.414l-4.75 4.75c-.201.202-.468.299-.732.293-.264.006-.531-.091-.732-.293l-3.072-3.071c-.39-.391-.39-1.024 0-1.414.39-.391 1.024-.391 1.414 0l1.909 1.909c.037.036.266.25.459.25.217 0 .441-.192.522-.27zm2.565-6.794c0 1.281.837 2.261 2.157 2.261 1.191 0 1.835-.754 1.835-1.281 0-.415-.226-.679-.708-.679-.516 0-.58.528-1.127.528-.419 0-.708-.339-.708-.829V3.261c0-.49.289-.829.708-.829.483 0 .547.528 1.062.528.483 0 .708-.264.708-.679 0-.527-.643-1.281-1.77-1.281-1.32 0-2.157.98-2.157 2.261v1.056zM2.745 5.354h1.438l.171.459c.171.458.445.764.821.764.445 0 .753-.344.753-.764 0-.229-.171-.688-.171-.688L4.662 1.917C4.463 1.344 4.148 1 3.464 1c-.684 0-.992.344-1.198.917L1.171 5.125S1 5.584 1 5.813c0 .42.308.764.753.764.377 0 .65-.306.821-.764l.171-.459zm5.723-4.203c1.418 0 1.959.603 1.959 1.394 0 .792-.743 1.018-.743 1.018v.075s1.013.226 1.013 1.244c0 .867-.608 1.545-2.026 1.545H7.118c-.473 0-.743-.301-.743-.753V1.905c.007-.453.27-.754.743-.754h1.35zm.203 3.028h-.989v.967h.989c.304 0 .542-.163.542-.554 0-.226-.238-.413-.542-.413zm-4.796-.2l-.377-1.146H3.43l-.377 1.146h.822zm4.593-1.708h-.786v.91h.786c.27 0 .472-.134.472-.441 0-.306-.202-.469-.472-.469z"/>
  </defs>
  <use xlink:href="#wysiwyg-spellcheck-a" fill-rule="evenodd"/>
</svg>
