<svg xmlns="http://www.w3.org/2000/svg" xmlns:xlink="http://www.w3.org/1999/xlink" width="16" height="16" viewBox="0 0 16 16">
  <defs>
    <path id="wysiwyg-translate_english-a" d="M13.748 9c.587 0 .922.335.922.838 0 .503-.335.838-.335.838l-2.263 2.594v.084h1.76c.586 0 .838.24.838.742 0 .503-.252.769-.838.769h-3.435c-.587 0-.922-.335-.922-.838 0-.502.335-.838.335-.838l2.346-2.513v-.084H10.48c-.586 0-.891-.285-.891-.787 0-.503.305-.805.891-.805h3.268zM2.105 10.268v-.474c0-.353.286-.639.639-.639.353 0 .64.286.64.639v.499c0 .607.31.881.917.881h.93v-1.107c0-.241.189-.436.423-.436.088 0 .17.028.238.076v-.001l2.042 1.732c.014.009.028.018.041.028.102.08.169.207.169.349 0 .141-.065.266-.166.346h-.001c-.014.012-.03.023-.046.032l-2.03 1.725c-.07.051-.155.082-.247.082-.234 0-.423-.195-.423-.436v-1.083H4.105c-1.104 0-2-.897-2-2v-.213zM6.268 2c.519 0 .816.338.816.845v4.31c0 .507-.297.845-.816.845-.52 0-.817-.338-.817-.836V5.803h-.668L3.522 7.578S3.225 8 2.816 8C2.297 8 2 7.662 2 7.155c0-.38.297-.76.297-.76l.779-1.015v-.084s-.853-.338-.853-1.394C2.223 2.93 3.039 2 4.449 2h1.819zm4.849 3.826v1.107c0 .241-.189.436-.423.436-.088 0-.17-.028-.238-.076v.001L8.414 5.562c-.014-.009-.028-.018-.041-.028-.102-.08-.169-.207-.169-.349 0-.141.065-.266.166-.346.015-.012.031-.023.047-.032l2.03-1.725c.069-.051.155-.082.247-.082.234 0 .423.195.423.436v1.083h.994c1.104 0 2 .897 2 2v.687c0 .353-.287.639-.64.639-.353 0-.64-.286-.64-.639v-.499c0-.607-.31-.881-.917-.881h-.797zM5.451 4.538V3.314H4.449c-.334 0-.65.237-.65.588 0 .438.316.636.65.636h1.002z"/>
  </defs>
  <use xlink:href="#wysiwyg-translate_english-a" fill-rule="evenodd"/>
</svg>
