<svg xmlns="http://www.w3.org/2000/svg" xmlns:xlink="http://www.w3.org/1999/xlink" width="16" height="16" viewBox="0 0 16 16">
  <defs>
    <path id="wysiwyg-translate_russian-a" d="M8.626 13.116c0-1.938-2.678-1.787-2.823-2.305-.06-.214.037-.418.461-.492.291-.051.654.017.867.196.272.23.353.464.568.593.095.056.339.098.496.039.333-.126.365-.549.363-.695-.008-.538-.704-1.373-1.976-1.373-1.59 0-2.272.807-2.272 1.884 0 1.452 2.817 1.248 2.821 2.326.001.384-.506.456-.824.434-.443-.03-.609-.136-.795-.275-.44-.33-.36-.61-.757-.587-.451.027-.581.309-.581.793 0 .538.682 1.346 2.09 1.346 1.635 0 2.362-.862 2.362-1.884zm2.556-1.256c0-.405.256-.705.653-.705s.69.276.69.681v2.228c0 .507.098.936.586.936s.813-.405.813-.912V11.86c0-1.418-.732-2.33-1.627-2.33-.82 0-1.115.423-1.115.423V8.568c0-.506-.272-.911-.76-.911s-.724.39-.724.897v5.52c0 .506.236.926.724.926s.76-.405.76-.912V11.86zm3.306-7.115c.241 0 .436.189.436.423 0 .092-.03.177-.082.247l-1.724 2.03c-.01.016-.021.032-.032.046l-.001.001c-.08.101-.205.165-.346.165-.142 0-.269-.066-.348-.168v-.001a.26268.26268 0 0 1-.028-.04l-1.732-2.042c-.048-.068-.076-.15-.076-.238 0-.234.196-.423.436-.423h1.107v-.548c0-.608-.273-.918-.881-.918H9.719c-.353 0-.64-.287-.64-.64 0-.353.287-.639.64-.639h1.686c1.104 0 2 .896 2 2v.745h1.083zm-8.261.848V2.792c0-.44.277-.792.805-.792s.832.352.832.792v3.416c0 .44-.352.792-.88.792H1.88C1.352 7 1 6.648 1 6.208V2.792c0-.44.301-.792.829-.792s.756.352.756.792v2.801h.967V2.792c0-.44.352-.792.88-.792s.88.352.88.792v2.801h.915z"/>
  </defs>
  <use xlink:href="#wysiwyg-translate_russian-a" fill-rule="evenodd"/>
</svg>
