<svg xmlns="http://www.w3.org/2000/svg" width="16" height="16" viewBox="0 0 16 16">
  <g fill="none" fill-rule="evenodd">
    <path fill="#4EE301" d="M14 14c0-.552-.448-1-1-1H3c-.552 0-1 .448-1 1s.448 1 1 1h10c.552 0 1-.448 1-1z"/>
    <path fill="#333" d="M2.709 10.729h-.001l3.243-3.243 3.343 3.308-.967.966h-.002c-.135.144-.326.234-.538.234H3.223c-.407 0-.738-.33-.738-.737 0-.207.086-.394.224-.528zM7.896 3H14v5.104l-1.939 1.939c-.586.586-1.536.586-2.122 0L6.457 6.561c-.586-.586-.586-1.536 0-2.122L7.896 3z"/>
  </g>
</svg>
