<svg xmlns="http://www.w3.org/2000/svg" xmlns:xlink="http://www.w3.org/1999/xlink" width="16" height="16" viewBox="0 0 16 16">
  <defs>
    <path id="wysiwyg-link-a" d="M9.5455 6.0105l.793.793c1.054 1.054 1.054 2.765 0 3.818l-2.598 2.599c-1.054 1.054-2.765 1.054-3.819 0l-1.131-1.131c-1.054-1.054-1.054-2.765 0-3.819l.435-.434c.322-.323.846-.323 1.169 0 .323.322.323.846 0 1.169l-.345.345-.011.011-.036.036c-.469.469-.469 1.229 0 1.697l.91.911c.469.468 1.229.468 1.697 0l2.493-2.492c.468-.469.468-1.229 0-1.697l-.681-.681c-.311-.311-.311-.815 0-1.125.31-.311.814-.311 1.124 0zm-3.085 3.985l-.788-.788c-1.054-1.054-1.054-2.765 0-3.818l2.598-2.599c1.054-1.054 2.765-1.054 3.819 0l1.131 1.131c1.054 1.054 1.054 2.765 0 3.819l-.159.159-.296.271c-.322.323-.846.323-1.169 0-.323-.323-.323-.847 0-1.17l.365-.34.011-.011.036-.036c.469-.469.469-1.229 0-1.697l-.91-.911c-.469-.468-1.229-.468-1.697 0l-2.493 2.492c-.468.469-.468 1.229 0 1.697l.677.677c.31.31.31.814 0 1.124-.311.311-.815.311-1.125 0z"/>
  </defs>
  <use xlink:href="#wysiwyg-link-a" fill-rule="evenodd"/>
</svg>
