<svg xmlns="http://www.w3.org/2000/svg" width="16" height="16" viewBox="0 0 16 16">
  <path fill-rule="evenodd" d="M12 14H4c-1.104 0-2-.896-2-2V7c0-.681.341-1.283.862-1.644L7.428 2.18C7.59 2.066 7.787 2 8 2c.213 0 .41.066.572.18l4.566 3.176c.521.361.862.963.862 1.644v5c0 1.104-.896 2-2 2zm-1.209-7.06c-.253-.253-.634-.253-.888 0L7.366 9.478 6.097 8.209c-.254-.254-.635-.254-.888 0-.254.254-.254.634 0 .888l1.713 1.713c.126.127.253.19.444.19.19 0 .317-.063.444-.19l2.981-2.982c.254-.253.254-.634 0-.888z"/>
</svg>
