<svg xmlns="http://www.w3.org/2000/svg" width="16" height="16" viewBox="0 0 16 16">
  <path fill-rule="evenodd" d="M.999 10.737v-.945a.788.788 0 0 1 1.576 0v.945l-.001.045v.005c0 .748.382 1.084 1.13 1.084H4v-1.379c0-.275.218-.499.485-.499.101 0 .195.032.273.086l2.341 1.985.046.032a.503.503 0 0 1 .194.4.505.505 0 0 1-.19.396v.001a.507.507 0 0 1-.054.036l-2.326 1.977a.477.477 0 0 1-.284.094.493.493 0 0 1-.485-.5v-1.019h-.539a2.464 2.464 0 0 1-2.462-2.463v-.281zM13.899 8c.7 0 1.1.4 1.1 1s-.4 1-.4 1l-2.7 3.097v.1h2.1c.7 0 1 .286 1 .886 0 .6-.3.917-1 .917h-4.1c-.7 0-1.1-.4-1.1-1s.4-1 .4-1l2.8-3v-.1h-2c-.7 0-1.065-.34-1.065-.94 0-.6.365-.96 1.065-.96h3.9zM5.873 1c.606 0 .952.394.952.986v5.028c0 .592-.346.986-.952.986s-.953-.394-.953-.976V5.437h-.779l-1.472 2.07S2.323 8 1.847 8c-.607 0-.953-.394-.953-.986 0-.444.346-.887.346-.887l.91-1.183v-.099s-.996-.394-.996-1.627C1.154 2.085 2.106 1 3.751 1h2.122zm6.125 3.151V5.53c0 .276-.217.5-.484.5a.472.472 0 0 1-.273-.087L8.9 3.958c-.016-.01-.032-.02-.046-.032a.502.502 0 0 1-.194-.399c0-.162.074-.306.19-.397a.397.397 0 0 1 .054-.037l2.326-1.976a.471.471 0 0 1 .284-.095c.267 0 .484.224.484.5v1.02h.539A2.463 2.463 0 0 1 15 5.004v1.212a.79.79 0 0 1-1.576 0v-.931l.001-.044v-.006c0-.748-.382-1.084-1.13-1.084h-.297zM4.92 3.96V2.533H3.751c-.389 0-.758.276-.758.685 0 .512.369.742.758.742H4.92z"/>
</svg>
