<svg width="16" height="16" viewBox="0 0 16 16" fill="none" xmlns="http://www.w3.org/2000/svg">
<path fill-rule="evenodd" clip-rule="evenodd" d="M8 8.262C9.999 8.262 11.584 6.656 11.584 4.631C11.584 2.676 9.999 1 8 1C6.001 1 4.416 2.606 4.416 4.63C4.416 6.656 6.001 8.262 8 8.262ZM8 3.165C8.827 3.165 9.516 3.863 9.516 4.631C9.516 5.469 8.827 6.097 8 6.097C7.173 6.097 6.484 5.399 6.484 4.631C6.484 3.863 7.173 3.165 8 3.165ZM9.447 11.195L11.584 13.219C11.6822 13.3143 11.7603 13.4283 11.8136 13.5543C11.8669 13.6803 11.8943 13.8157 11.8943 13.9525C11.8943 14.0893 11.8669 14.2247 11.8136 14.3507C11.7603 14.4767 11.6822 14.5907 11.584 14.686C11.383 14.887 11.1103 15 10.826 15C10.5417 15 10.269 14.887 10.068 14.686L8.068 12.731L6.07 14.686C5.863 14.896 5.588 14.966 5.312 14.966C5.036 14.966 4.761 14.896 4.554 14.686C4.45581 14.5907 4.37775 14.4767 4.32444 14.3507C4.27113 14.2247 4.24366 14.0893 4.24366 13.9525C4.24366 13.8157 4.27113 13.6803 4.32444 13.5543C4.37775 13.4283 4.45581 13.3143 4.554 13.219L6.553 11.195C5.863 11.055 5.105 10.775 4.485 10.357C4.003 10.007 3.865 9.379 4.141 8.89C4.416 8.401 5.105 8.262 5.588 8.541C7.035 9.449 8.965 9.449 10.412 8.541C10.895 8.261 11.584 8.401 11.859 8.891C12.135 9.379 11.997 10.077 11.515 10.357C10.895 10.776 10.205 11.055 9.447 11.195V11.195Z" fill="white"/>
</svg>
