<svg width="16" height="16" viewBox="0 0 16 16" fill="none" xmlns="http://www.w3.org/2000/svg">
<path fill-rule="evenodd" clip-rule="evenodd" d="M15.623 3.901C15.742 3.528 15.623 3.257 15.098 3.257H13.353C12.912 3.257 12.709 3.495 12.59 3.749C12.59 3.749 11.692 5.918 10.438 7.324C10.032 7.731 9.845 7.866 9.625 7.866C9.506 7.866 9.354 7.731 9.354 7.358V3.884C9.354 3.444 9.218 3.24 8.845 3.24H6.1C5.829 3.24 5.66 3.444 5.66 3.647C5.66 4.071 6.287 4.172 6.354 5.359V7.934C6.354 8.493 6.253 8.595 6.032 8.595C5.439 8.595 3.999 6.409 3.135 3.918C2.965 3.427 2.796 3.24 2.355 3.24H0.593C0.085 3.24 0 3.478 0 3.732C0 4.189 0.593 6.494 2.762 9.544C4.202 11.628 6.253 12.747 8.1 12.747C9.218 12.747 9.354 12.492 9.354 12.069V10.493C9.354 9.985 9.455 9.9 9.811 9.9C10.065 9.9 10.523 10.035 11.557 11.035C12.743 12.221 12.946 12.764 13.607 12.764H15.352C15.861 12.764 16.098 12.509 15.962 12.018C15.81 11.527 15.234 10.815 14.488 9.968C14.081 9.493 13.471 8.968 13.285 8.714C13.031 8.375 13.099 8.239 13.285 7.934C13.268 7.934 15.403 4.918 15.623 3.901" fill="white"/>
</svg>
