<svg width="16" height="16" viewBox="0 0 32 32" xmlns="http://www.w3.org/2000/svg"><path d="M16.084 0c-8.823 0-16 7.178-16 16s7.177 16 16 16c3.243 0 6.37-.977 9.012-2.783L23 26.78a12.76 12.76 0 0 1-6.915 2.03c-7.064 0-12.81-5.746-12.81-12.81 0-7.063 5.746-12.809 12.81-12.809 7.063 0 12.81 5.746 12.81 12.81 0 .93-.105 1.855-.302 2.755-.41 1.684-1.585 2.204-2.487 2.134-.89-.072-1.946-.706-1.953-2.272V16c0-4.449-3.62-8.068-8.068-8.068-4.449 0-8.068 3.62-8.068 8.068 0 4.449 3.62 8.068 8.068 8.068 2.254 0 4.295-.93 5.76-2.426a5.15 5.15 0 0 0 4.006 2.427 5.333 5.333 0 0 0 3.655-1.071c.964-.732 1.666-1.773 2.059-3.031.063-.201.178-.667.18-.673h-.001c.262-1.136.34-2.184.34-3.294 0-8.822-7.177-16-16-16zm-4.878 16a4.884 4.884 0 0 1 4.878-4.878A4.884 4.884 0 0 1 20.962 16a4.884 4.884 0 0 1-4.878 4.878A4.884 4.884 0 0 1 11.206 16z" fill="#FFF"/></svg>