<svg xmlns="http://www.w3.org/2000/svg" xmlns:xlink="http://www.w3.org/1999/xlink" width="16" height="16" viewBox="0 0 16 16">
  <defs>
    <path id="wysiwyg-align_center-a" d="M12.502 13c.275 0 .498.223.498.498 0 .274-.223.498-.498.498H3.498c-.275 0-.498-.224-.498-.498 0-.275.223-.498.498-.498h9.004zm-2-2c.275 0 .498.223.498.498 0 .276-.223.499-.498.499H5.498c-.275 0-.498-.223-.498-.499 0-.275.223-.498.498-.498h5.004zm.996-2c.277 0 .502.225.502.502s-.225.502-.502.502H4.502c-.277 0-.502-.225-.502-.502S4.225 9 4.502 9h6.996zm1.004-2c.275 0 .498.223.498.498 0 .274-.223.498-.498.498H3.498c-.275 0-.498-.224-.498-.498C3 7.223 3.223 7 3.498 7h9.004zm-1.004-2c.277 0 .502.225.502.502s-.225.502-.502.502H4.502c-.277 0-.502-.225-.502-.502S4.225 5 4.502 5h6.996zm1.997-2c.279 0 .505.226.505.505s-.226.506-.505.506H2.505c-.279 0-.505-.227-.505-.506S2.226 3 2.505 3h10.99z"/>
  </defs>
  <use xlink:href="#wysiwyg-align_center-a" fill-rule="evenodd"/>
</svg>
