<svg xmlns="http://www.w3.org/2000/svg" width="16" height="16" viewBox="0 0 16 16">
  <path fill-rule="evenodd" d="M13.2 15H2.8c-.993 0-1.8-.807-1.8-1.8V5.976S.939 4.558 2.138 3.359l1.481-1.481S4.272 1 5.92 1h4.16c1.648 0 2.301.878 2.301.878l1.481 1.481C15.061 4.558 15 5.976 15 5.976V13.2c0 .993-.807 1.8-1.8 1.8zM9.184 9.404l-.499-2.226h-.001a.5.5 0 0 0-.485-.378H7.8a.5.5 0 0 0-.485.378l-.499 2.226H5.762c-.412 0-.746.288-.746.643 0 .157.064.3.172.412l2.208 2.54a.79.79 0 0 0 .604.266.79.79 0 0 0 .604-.266l2.208-2.54a.59.59 0 0 0 .172-.412c0-.355-.334-.643-.746-.643H9.184zM11.509 5a.446.446 0 1 0 .329-.748l-.806-.878s-.546-.675-1.328-.675l-1.735-.003-1.673.003c-.782 0-1.328.675-1.328.675l-.806.878A.446.446 0 0 0 4.491 5h7.018z"/>
</svg>
