<svg width="16" height="16" viewBox="0 0 16 16" xmlns="http://www.w3.org/2000/svg">
  <path d="M10.54012 12.03605c-.87437.5909-1.9272.93574-3.06067.93574C4.45558 12.97179 2 10.51332 2 7.48589S4.45558 2 7.47945 2c3.02388 0 5.47945 2.45846 5.47945 5.4859 0 1.12695-.3405 2.17554-.92367 3.0478l1.65479 1.65596c.4133.41379.4133 1.0862 0 1.5-.4133.41379-1.08493.41379-1.49824 0l-1.65166-1.65361zM7.47945 3.94122c1.9546 0 3.54051 1.58778 3.54051 3.54467 0 1.9569-1.5859 3.54467-3.5405 3.54467-1.9546 0-3.54052-1.58777-3.54052-3.54467s1.58591-3.54467 3.54051-3.54467z" fill-rule="evenodd"/>
</svg>
