<svg xmlns="http://www.w3.org/2000/svg" width="16" height="16" viewBox="0 0 16 16">
  <path fill-rule="evenodd" d="M3.376 1.473A7.956 7.956 0 0 1 8 0c1.728 0 3.329.549 4.638 1.482l.551-.551a1.295 1.295 0 0 1 1.83 1.83l-.543.543A7.965 7.965 0 0 1 16 8a7.962 7.962 0 0 1-1.495 4.656l.514.514a1.295 1.295 0 0 1-1.83 1.83l-.511-.511A7.96 7.96 0 0 1 8 16a7.964 7.964 0 0 1-4.664-1.501L2.834 15a1.295 1.295 0 0 1-1.83-1.83l.501-.501A7.96 7.96 0 0 1 0 8c0-1.76.569-3.388 1.534-4.709l-.53-.53a1.295 1.295 0 0 1 1.83-1.83l.542.542zm2.589 10.571a.593.593 0 0 1 .631-.135 4.195 4.195 0 0 0 2.801.008.588.588 0 0 1 .625.134c.216.208.51.503.743.736a.402.402 0 0 1 .113.35.397.397 0 0 1-.22.294 6.052 6.052 0 0 1-5.326-.006.399.399 0 0 1-.106-.642l.739-.739zM2.569 5.342a.402.402 0 0 1 .644-.107l.72.72a.638.638 0 0 1 .15.664c-.07.193-.124.392-.163.594a4.189 4.189 0 0 0 .164 2.175.637.637 0 0 1-.148.665c-.213.216-.505.508-.733.736a.386.386 0 0 1-.619-.1v-.002a6.008 6.008 0 0 1-.56-1.768 6.077 6.077 0 0 1 .527-3.54l.018-.037zm10.325-.228a.287.287 0 0 1 .456.068l-.001.001c.278.525.477 1.091.588 1.674a6.074 6.074 0 0 1-.457 3.698l-.049.103a.402.402 0 0 1-.644.107l-.73-.73a.615.615 0 0 1-.143-.644c.089-.245.153-.499.192-.757a4.211 4.211 0 0 0-.194-2.035.613.613 0 0 1 .143-.643c.246-.249.599-.602.839-.842zM8 5.206A2.795 2.795 0 0 1 10.794 8 2.795 2.795 0 0 1 8 10.794 2.795 2.795 0 0 1 5.206 8 2.795 2.795 0 0 1 8 5.206zM5.213 3.191a.378.378 0 0 1 .1-.607 6.004 6.004 0 0 1 2.454-.625c.104-.004.207-.005.311-.004a5.993 5.993 0 0 1 2.589.619.4.4 0 0 1 .107.644l-.79.79a.491.491 0 0 1-.525.109 4.381 4.381 0 0 0-1.405-.271h-.108c-.48.009-.954.096-1.402.263a.488.488 0 0 1-.521-.111c-.221-.218-.556-.552-.81-.807z"/>
</svg>
