<svg xmlns="http://www.w3.org/2000/svg" width="16" height="16" viewBox="0 0 16 16">
  <path fill-rule="evenodd" d="M12.307 1.279a1 1 0 0 1 1.43 1.397C13.39 3.063 13 3.769 13 5c0 1.852 1.997 3.662 1.997 5.987 0 .904-.162 2.46-1.247 3.675l-.006.006-.003.004a1 1 0 1 1-1.46-1.366c.133-.141.719-.841.719-2.293 0-1.76-2.002-3.498-2.002-6.013 0-2.513 1.307-3.719 1.309-3.721zm-9.994 0a1.001 1.001 0 0 1 1.429 1.397c-.347.387-.736 1.093-.736 2.324 0 1.852 1.996 3.662 1.996 5.987 0 .904-.161 2.46-1.247 3.675a.027.027 0 0 0-.005.006l-.004.004a.999.999 0 1 1-1.46-1.366c.134-.141.72-.841.72-2.293 0-1.76-2.003-3.498-2.003-6.013 0-2.513 1.308-3.719 1.31-3.721zm4.993 0a1 1 0 0 1 1.43 1.397c-.347.387-.737 1.093-.737 2.324 0 1.852 1.997 3.662 1.997 5.987 0 .904-.161 2.46-1.247 3.675l-.006.006-.003.004a1 1 0 1 1-1.46-1.366c.134-.141.719-.841.719-2.293 0-1.76-2.002-3.498-2.002-6.013 0-2.513 1.307-3.719 1.309-3.721z"/>
</svg>
