<svg width="96" height="32" xmlns="http://www.w3.org/2000/svg" xmlns:xlink="http://www.w3.org/1999/xlink"><defs><path d="M82.261 23.478H79.26v-1.104c-1.16 1.014-2.675 1.619-4.457 1.619-4.263 0-7.724-3.456-7.724-7.712s3.461-7.712 7.724-7.712c1.782 0 3.298.604 4.457 1.619V9.083h3.002v14.395zm-38.105 0h-3.001V9.083h3.001v.8c.667-.626 1.922-1.312 3.478-1.314 1.999 0 3.789.91 4.978 2.335a6.472 6.472 0 0 1 4.979-2.335c3.573 0 6.48 2.902 6.48 6.47v8.44h-3.003v-8.44a3.479 3.479 0 0 0-6.955 0v8.44h-3.001v-8.44a3.479 3.479 0 0 0-3.478-3.473 3.479 3.479 0 0 0-3.478 3.473v8.44zm41.692 0h3.002V9.083h-3.002v14.395zm6.59 0h3.001V2.914h-3.002v20.564zM74.801 11.526c2.628 0 4.7 2.13 4.7 4.755 0 2.624-2.072 4.755-4.7 4.755a4.76 4.76 0 0 1-4.762-4.755 4.76 4.76 0 0 1 4.762-4.755zM87.352 2.4c1.137 0 2.061.922 2.061 2.058a2.061 2.061 0 0 1-4.123 0c0-1.136.924-2.058 2.062-2.058z" id="a"/></defs><g fill="none" fill-rule="evenodd"><g><path d="M16.084 0c-8.823 0-16 7.178-16 16s7.177 16 16 16c3.243 0 6.37-.977 9.012-2.783L23 26.78a12.76 12.76 0 0 1-6.915 2.03c-7.064 0-12.81-5.746-12.81-12.81 0-7.063 5.746-12.809 12.81-12.809 7.063 0 12.81 5.746 12.81 12.81 0 .93-.105 1.855-.302 2.755-.41 1.684-1.585 2.204-2.487 2.134-.89-.072-1.946-.706-1.953-2.272V16c0-4.449-3.62-8.068-8.068-8.068-4.449 0-8.068 3.62-8.068 8.068 0 4.449 3.62 8.068 8.068 8.068 2.254 0 4.295-.93 5.76-2.426a5.15 5.15 0 0 0 4.006 2.427 5.333 5.333 0 0 0 3.655-1.071c.964-.732 1.666-1.773 2.059-3.031.063-.201.178-.667.18-.673h-.001c.262-1.136.34-2.184.34-3.294 0-8.822-7.177-16-16-16zm-4.878 16a4.884 4.884 0 0 1 4.878-4.878A4.884 4.884 0 0 1 20.962 16a4.884 4.884 0 0 1-4.878 4.878A4.884 4.884 0 0 1 11.206 16z" fill="#FF9E00"/><use fill="#FFF" xlink:href="#a"/></g></g></svg>