<svg width="14" height="14" viewBox="0 0 14 14" fill="none" xmlns="http://www.w3.org/2000/svg">
<path fill-rule="evenodd" clip-rule="evenodd" d="M7.18446 5.65646L11.5245 1.31646C11.7336 1.1195 12.0113 1.01175 12.2986 1.01607C12.5859 1.02039 12.8602 1.13643 13.0633 1.33959C13.2665 1.54275 13.3825 1.81705 13.3869 2.10434C13.3912 2.39162 13.2834 2.66928 13.0865 2.87846L8.74646 7.21846L13.0865 11.5585C13.1868 11.6588 13.2664 11.7779 13.3207 11.909C13.375 12.0401 13.4029 12.1806 13.4029 12.3225C13.4029 12.4643 13.375 12.6048 13.3207 12.7359C13.2664 12.867 13.1868 12.9861 13.0865 13.0865C12.9861 13.1868 12.867 13.2664 12.7359 13.3207C12.6048 13.375 12.4643 13.4029 12.3225 13.4029C12.1806 13.4029 12.0401 13.375 11.909 13.3207C11.7779 13.2664 11.6588 13.1868 11.5585 13.0865L7.21846 8.74646L2.87846 13.0865C2.66928 13.2834 2.39162 13.3912 2.10434 13.3869C1.81705 13.3825 1.54275 13.2665 1.33959 13.0633C1.13643 12.8602 1.02039 12.5859 1.01607 12.2986C1.01175 12.0113 1.1195 11.7336 1.31646 11.5245L5.65646 7.18446L1.31646 2.84446C1.21613 2.74413 1.13654 2.62502 1.08225 2.49393C1.02795 2.36285 1 2.22235 1 2.08046C1 1.93857 1.02795 1.79807 1.08224 1.66699C1.13654 1.5359 1.21613 1.41679 1.31646 1.31646C1.41679 1.21613 1.5359 1.13654 1.66699 1.08224C1.79807 1.02795 1.93857 1 2.08046 1C2.22235 1 2.36285 1.02795 2.49393 1.08225C2.62502 1.13654 2.74413 1.21613 2.84446 1.31646L7.18446 5.65646V5.65646Z" fill="black"/>
</svg>
