<svg width="14" height="14" viewBox="0 0 14 14" fill="none" xmlns="http://www.w3.org/2000/svg">
<path fill-rule="evenodd" clip-rule="evenodd" d="M6.983 5.45501L11.323 1.11501C11.5322 0.918049 11.8098 0.810303 12.0971 0.814621C12.3844 0.81894 12.6587 0.934983 12.8619 1.13814C13.065 1.34131 13.1811 1.61561 13.1854 1.90289C13.1897 2.19017 13.082 2.46784 12.885 2.67701L8.545 7.01701L12.885 11.357C12.9853 11.4573 13.0649 11.5765 13.1192 11.7075C13.1735 11.8386 13.2015 11.9791 13.2015 12.121C13.2015 12.2629 13.1735 12.4034 13.1192 12.5345C13.0649 12.6656 12.9853 12.7847 12.885 12.885C12.7847 12.9853 12.6656 13.0649 12.5345 13.1192C12.4034 13.1735 12.2629 13.2015 12.121 13.2015C11.9791 13.2015 11.8386 13.1735 11.7075 13.1192C11.5764 13.0649 11.4573 12.9853 11.357 12.885L7.017 8.54501L2.677 12.885C2.46783 13.082 2.19016 13.1897 1.90288 13.1854C1.6156 13.1811 1.34129 13.065 1.13813 12.8619C0.934971 12.6587 0.818928 12.3844 0.81461 12.0971C0.810292 11.8099 0.918038 11.5322 1.115 11.323L5.455 6.98301L1.115 2.64301C1.01467 2.54268 0.935085 2.42357 0.880787 2.29249C0.826489 2.1614 0.798542 2.0209 0.798542 1.87901C0.798542 1.73712 0.826489 1.59663 0.880787 1.46554C0.935085 1.33445 1.01467 1.21534 1.115 1.11501C1.21533 1.01468 1.33444 0.935097 1.46553 0.880798C1.59661 0.8265 1.73711 0.798553 1.879 0.798553C2.02089 0.798553 2.16139 0.8265 2.29247 0.880799C2.42356 0.935097 2.54267 1.01468 2.643 1.11501L6.983 5.45501V5.45501Z" fill="black"/>
</svg>
