<svg width="6" height="5" viewBox="0 0 6 5" fill="none" xmlns="http://www.w3.org/2000/svg">
<path fill-rule="evenodd" clip-rule="evenodd" d="M0.170991 1.226C0.0808407 1.11623 0.0237158 0.983119 0.00626311 0.842152C-0.0111896 0.701185 0.0117476 0.55816 0.0724057 0.42972C0.133064 0.30128 0.228948 0.192706 0.348903 0.116632C0.468857 0.0405574 0.607948 0.000111612 0.749991 0H5.24999C5.39203 0.000111612 5.53113 0.0405574 5.65108 0.116632C5.77103 0.192706 5.86692 0.30128 5.92758 0.42972C5.98823 0.55816 6.01117 0.701185 5.99372 0.842152C5.97627 0.983119 5.91914 1.11623 5.82899 1.226L3.60599 4.192C3.53639 4.28746 3.44521 4.36512 3.33991 4.41866C3.2346 4.4722 3.11813 4.50011 2.99999 4.50011C2.88185 4.50011 2.76538 4.4722 2.66008 4.41866C2.55477 4.36512 2.4636 4.28746 2.39399 4.192L0.170991 1.226Z" fill="black"/>
</svg>
