<svg xmlns="http://www.w3.org/2000/svg" width="16" height="16" viewBox="0 0 16 16">
  <path fill-rule="evenodd" d="M13.2 14H2.8c-.993 0-1.8-.807-1.8-1.8V3.5A1.5 1.5 0 0 1 2.5 2h5A1.5 1.5 0 0 1 9 3.5V4h4.2A1.8 1.8 0 0 1 15 5.8v6.4c0 .993-.807 1.8-1.8 1.8zm-6.953-2a.494.494 0 0 1-.093-.29v-.881c0-.778.445-1.453 1.095-1.783a2.312 2.312 0 0 1-.071-.567V7.295c0-.351.08-.684.221-.982A1.487 1.487 0 0 0 5 7.487v.8c0 .47.218.889.559 1.161H5.5c-.828 0-1.5.673-1.5 1.5v.552a.5.5 0 0 0 .5.5h1.747zm4.185-2.552c.346-.275.568-.699.568-1.174V7.5a1.5 1.5 0 0 0-3 0v.774c0 .475.222.9.568 1.174H8.5c-.828 0-1.5.673-1.5 1.5v.552a.5.5 0 0 0 .5.5h4a.5.5 0 0 0 .5-.5v-.552c0-.827-.672-1.5-1.5-1.5h-.068z"/>
</svg>
