<svg xmlns="http://www.w3.org/2000/svg" width="16" height="16" viewBox="0 0 16 16">
  <path fill-rule="evenodd" d="M0 14.925a.729.729 0 0 0 .998.676l3.716-1.487a.85.85 0 0 1 .578-.017l5.326 1.776c.246.082.515.074.756-.023l3.662-1.464c.582-.233.964-.797.964-1.424V2.028a.695.695 0 0 0-.954-.646l-3.809 1.523a.701.701 0 0 1-.48.014L5.316 1.105a.908.908 0 0 0-.625.019L.913 2.635C.362 2.855 0 3.389 0 3.983v10.942zM5.518 3.538a.398.398 0 0 0-.355.056.399.399 0 0 0-.163.321v7.427c0 .281.181.53.448.616l3.977 1.285a.44.44 0 0 0 .575-.419V5.481a.663.663 0 0 0-.458-.63L5.518 3.538z"/>
</svg>
