<svg xmlns="http://www.w3.org/2000/svg" width="16" height="16" viewBox="0 0 16 16">
  <path fill-rule="evenodd" d="M8 0c4.415 0 8 3.585 8 8s-3.585 8-8 8-8-3.585-8-8 3.585-8 8-8zm0 2c3.311 0 6 2.689 6 6s-2.689 6-6 6-6-2.689-6-6 2.689-6 6-6zm3.875 3.198a.882.882 0 0 0-1.073-1.073L6.704 5.172c-.752.192-1.34.78-1.532 1.532l-1.047 4.098a.882.882 0 0 0 1.073 1.073l4.098-1.047a2.124 2.124 0 0 0 1.532-1.532l1.047-4.098zM6.532 7.624a.384.384 0 0 1 .635-.147l1.356 1.356a.383.383 0 0 1-.147.635l-2.165.74a.33.33 0 0 1-.419-.419l.74-2.165z"/>
</svg>
