<svg xmlns="http://www.w3.org/2000/svg" width="16" height="16" viewBox="0 0 16 16">
  <path fill-rule="evenodd" d="M3.284 4.708a4.493 4.493 0 0 1 2.052-2.249 2.185 2.185 0 0 1 4.334 0 4.513 4.513 0 0 1 2.058 2.249s.494.946.635 2.527c.046.51.232 1.273.49 1.773.32.62 1.089 1.674 1.183 2.818.02.107.03.215.03.325 0 .303-.076.597-.219.876l-.015.033c-.084.188-.162.303-.235.358-.968 1.256-3.332 2.142-6.094 2.142-2.77 0-5.139-.891-6.102-2.152-.065-.056-.135-.16-.21-.321a1.931 1.931 0 0 1-.251-.936c0-.123.014-.244.039-.363.108-1.13.863-2.167 1.179-2.78.258-.5.444-1.263.49-1.773.142-1.581.636-2.527.636-2.527zm4.219 9.354c-2.567 0-4.84-.871-4.84-1.775 0-.626 1.193-1.17 2.662-1.445a2.185 2.185 0 0 0 2.178 1.991 2.185 2.185 0 0 0 2.178-1.991c1.469.275 2.663.819 2.663 1.445 0 .904-2.273 1.775-4.841 1.775z"/>
</svg>
