<svg xmlns="http://www.w3.org/2000/svg" width="16" height="16" viewBox="0 0 16 16">
  <path fill-rule="evenodd" d="M8 0c4.415 0 8 3.585 8 8s-3.585 8-8 8-8-3.585-8-8 3.585-8 8-8zM6.964 11.478a1.022 1.022 0 0 0 2.042 0 1.022 1.022 0 0 0-2.042 0zm1.152-7.957c-1.728 0-2.724 1.453-2.724 2.16 0 .314.171.812.734.812.432 0 .72-.314.733-.589C6.898 5.629 7.186 5 8.064 5c.628 0 1.204.445 1.204.995 0 1.1-2.147 1.188-2.147 2.812 0 .55.38.943.851.943a.872.872 0 0 0 .877-.891c0-.88 2.069-1.018 2.069-2.903 0-1.375-1.27-2.435-2.802-2.435z"/>
</svg>
