<svg width="15" height="16" viewBox="0 0 15 16" fill="none" xmlns="http://www.w3.org/2000/svg">
<path fill-rule="evenodd" clip-rule="evenodd" d="M6.61967 13.1897L10.8603 8.93233L13.0322 11.1128L9.87745 14.28L8.79153 15.3702C8.79053 15.3712 8.54832 15.5963 8.07892 15.6857L6.45653 15.9932C6.39303 16.0045 6.32781 16.0017 6.26553 15.9848C6.20325 15.968 6.14543 15.9376 6.09622 15.8957C6.05453 15.8463 6.02421 15.7882 6.00742 15.7257C5.99064 15.6632 5.98781 15.5977 5.99914 15.534L6.3054 13.9052C6.39447 13.4349 6.61766 13.1917 6.61967 13.1897V13.1897ZM4.54789 13.9906H1.00086C0.735413 13.9906 0.480841 13.8847 0.293144 13.6963C0.105447 13.5078 0 13.2523 0 12.9858V12.6843C0 10.1924 2.01172 8.16867 4.49185 8.16265V7.36281C4.03867 7.09733 3.6627 6.71725 3.4014 6.26046C3.1401 5.80366 3.00259 5.2861 3.00257 4.75934V2.93761C3.02279 2.1516 3.348 1.40461 3.90889 0.85586C4.46977 0.307107 5.22197 0 6.00514 0C6.78831 0 7.54051 0.307107 8.10139 0.85586C8.66228 1.40461 8.98749 2.1516 9.00771 2.93761V4.75934C9.00769 5.2861 8.87018 5.80366 8.60888 6.26046C8.34758 6.71725 7.97161 7.09733 7.51844 7.36281V8.16265C7.92404 8.16365 8.32767 8.21942 8.71846 8.32844C7.60779 9.44239 6.49817 10.5574 5.38961 11.6735C5.38561 11.6775 4.88018 12.2281 4.67901 13.2922L4.54789 13.9906ZM13.5496 7.14577C13.4289 7.02471 13.2653 6.95671 13.0947 6.95671C12.9241 6.95671 12.7605 7.02471 12.6398 7.14577L11.7831 8.0059L13.9549 10.1863L14.8117 9.32622C14.9323 9.20507 15 9.0408 15 8.86953C15 8.69826 14.9323 8.534 14.8117 8.41285L13.5496 7.14577Z" fill="white"/>
</svg>
