<svg width="14" height="15" viewBox="0 0 14 15" fill="none" xmlns="http://www.w3.org/2000/svg">
<path fill-rule="evenodd" clip-rule="evenodd" d="M11.6021 5.9968C11.6662 5.99657 11.7296 6.00924 11.7886 6.03404C11.8475 6.05884 11.9007 6.09525 11.9448 6.14103C11.9889 6.18681 12.0231 6.24098 12.0451 6.30023C12.0672 6.35947 12.0767 6.42254 12.0731 6.48554L11.7005 13.161C11.7005 14.2644 10.7726 15 9.65181 15H4.60815C3.48836 15 2.56044 14.3144 2.56044 13.211L2.1178 6.49054C2.11333 6.42718 2.12218 6.3636 2.14381 6.30376C2.16544 6.24392 2.19937 6.18912 2.24348 6.14278C2.2876 6.09644 2.34095 6.05956 2.4002 6.03444C2.45946 6.00933 2.52334 5.99651 2.58785 5.9968H11.6021ZM1.13607 4.99733C0.993985 4.99787 0.857474 4.94295 0.756433 4.8446C0.655393 4.74625 0.598058 4.61249 0.596985 4.47261L0.598 4.46062C0.598 4.04684 0.852823 3.69203 1.21526 3.53911C1.67719 3.29824 2.92186 3.10035 4.55739 2.9974V1.40925C4.55739 0.631663 5.19902 0 5.98886 0H8.20612C8.99597 0 9.63759 0.631663 9.63759 1.40925V2.9974C11.2731 3.10035 12.5178 3.29824 12.9797 3.53911C13.3422 3.69203 13.597 4.04684 13.597 4.46062C13.597 4.75746 13.3533 4.99733 13.0518 4.99733H1.13607V4.99733ZM7.80714 1.59215H6.38785C6.34772 1.59215 6.30798 1.59993 6.27091 1.61505C6.23383 1.63017 6.20014 1.65233 6.17177 1.68026C6.14339 1.7082 6.12088 1.74136 6.10552 1.77786C6.09017 1.81436 6.08226 1.85348 6.08226 1.89299V2.93344C6.759 2.91909 7.43598 2.91909 8.11272 2.93344V1.89299C8.11272 1.85348 8.10482 1.81436 8.08946 1.77786C8.0741 1.74136 8.05159 1.7082 8.02322 1.68026C7.99484 1.65233 7.96115 1.63017 7.92408 1.61505C7.887 1.59993 7.84727 1.59215 7.80714 1.59215V1.59215Z" fill="#9C9C9C"/>
</svg>
