<svg xmlns="http://www.w3.org/2000/svg" width="16" height="16" viewBox="0 0 16 16">
  <path fill-rule="evenodd" d="M7.953 16A8.003 8.003 0 0 1 0 8c0-4.415 3.585-8 8-8s8 3.585 8 8v6.54A1.46 1.46 0 0 1 14.54 16H7.953zM8 1.99c3.311 0 6 2.688 6 6 0 3.311-2.689 6-6 6s-6-2.689-6-6c0-3.312 2.689-6 6-6zM8.503 5c.277 0 .502.225.502.503v1.509h1.492c.278 0 .503.225.503.502V8.52a.503.503 0 0 1-.503.502H9.005v1.481a.502.502 0 0 1-.502.502H7.497a.502.502 0 0 1-.502-.502V9.022H5.503A.503.503 0 0 1 5 8.52V7.514c0-.277.225-.502.503-.502h1.492V5.503c0-.278.225-.503.502-.503h1.006z"/>
</svg>
