<svg xmlns="http://www.w3.org/2000/svg" width="16" height="16" viewBox="0 0 16 16">
  <path fill-rule="evenodd" d="M11.555 1.005c-1.312-.069-2.431.3-3.25 1.077-.116.109-.204.241-.305.363-.1-.122-.189-.254-.304-.363-.819-.776-1.941-1.145-3.25-1.077C1.745 1.153 0 3.213 0 6.254c0 2.392 1.383 4.481 3.363 5.081.096.029.193.043.29.043.429 0 .825-.279.956-.711.16-.528-.138-1.086-.667-1.246C2.817 9.08 2 7.748 2 6.254c0-.936.249-3.125 2.555-3.252.519-.03 1.247.041 1.766.532.444.421.679 1.102.679 1.97v8.5c0 .552.448 1 1 1 .553 0 1-.448 1-1v-8.5c0-.868.235-1.549.68-1.97.519-.491 1.248-.561 1.766-.532C13.751 3.129 14 5.318 14 6.254c0 1.494-.816 2.826-1.941 3.167-.529.16-.828.718-.668 1.246.131.432.528.711.957.711.096 0 .194-.014.29-.043 1.98-.6 3.362-2.689 3.362-5.081 0-3.041-1.744-5.101-4.445-5.249"/>
</svg>
