<svg xmlns="http://www.w3.org/2000/svg" width="16" height="16" viewBox="0 0 16 16">
  <path fill-rule="evenodd" d="M7 2.535V1a1 1 0 0 1 2 0v1.535l1.242-1.242a1 1 0 0 1 1.414 1.414L9 5.364V7h1.637l2.656-2.657a1 1 0 0 1 1.414 1.415L13.465 7H15a1 1 0 0 1 0 2h-1.535l1.242 1.242a1 1 0 1 1-1.414 1.415L10.637 9H9v1.586l2.656 2.656a1 1 0 1 1-1.414 1.415L9 13.414V15a1 1 0 0 1-2 0v-1.586l-1.242 1.243c-.391.39-1.024.39-1.415 0a1.002 1.002 0 0 1 0-1.415L7 10.586V9H5.363l-2.656 2.657a1 1 0 0 1-1.414-1.415L2.535 9H1a1 1 0 0 1 0-2h1.535L1.293 5.758a1 1 0 1 1 1.414-1.415L5.363 7H7V5.364L4.343 2.707a1 1 0 0 1 1.415-1.414L7 2.535z"/>
</svg>
