<svg xmlns="http://www.w3.org/2000/svg" width="16" height="16" viewBox="0 0 16 16">
  <path fill-rule="evenodd" d="M5.475 4.19c1.073-1.073 2.816-1.073 3.889 0s1.073 2.816 0 3.889L6.56 10.884c-.39.39-1.024.39-1.414 0-.391-.391-.391-1.024 0-1.415l2.121-2.121.682-.682c.292-.292.292-.768 0-1.06-.293-.293-.768-.293-1.061 0L3.731 8.762c-.975.976-.975 2.56 0 3.536.976.975 2.56.975 3.536 0l5.061-5.061c.975-.976.975-2.56 0-3.536-.634-.634-1.526-.856-2.34-.665-.133.033-.274.012-.391-.06-.16-.091-.323-.175-.491-.248-.476-.207-.987-.316-1.5-.327-.057 0-.108-.035-.129-.089-.021-.053-.006-.113.036-.152.035-.033.065-.061.083-.077 1.767-1.548 4.46-1.48 6.145.205 1.756 1.756 1.756 4.608 0 6.364l-5.06 5.06c-1.756 1.756-4.608 1.756-6.364 0-1.756-1.756-1.756-4.608 0-6.364L5.475 4.19z"/>
</svg>
