<svg xmlns="http://www.w3.org/2000/svg" width="16" height="16" viewBox="0 0 16 16">
  <path fill-rule="evenodd" d="M8.004 0c.198 0 .398.059.572.181l5.055 3.539c.386.27.523.765.357 1.186l-.001.001a.99.99 0 0 1-.343.443L9.997 8l3.645 2.648a1.003 1.003 0 0 1-.012 1.632l-5.054 3.539a.994.994 0 0 1-.572.181h-.002a.985.985 0 0 1-.413-.09h-.001l-.002-.001a1 1 0 0 1-.583-.908v-4.826l-3.078 2.237a1 1 0 0 1-1.176-1.618L6.594 8 2.749 5.206a1 1 0 0 1 1.176-1.618l3.078 2.237V.999a1 1 0 0 1 .583-.908L7.588.09h.001A.985.985 0 0 1 8.002 0h.002zm.999 13.079l2.333-1.634L9.003 9.75v3.329zm0-6.829l2.333-1.695-2.333-1.634V6.25z"/>
</svg>
