<svg xmlns="http://www.w3.org/2000/svg" width="16" height="16" viewBox="0 0 16 16">
  <path fill-rule="evenodd" d="M8 0c4.415 0 8 3.585 8 8s-3.585 8-8 8-8-3.585-8-8 3.585-8 8-8zm0 2c3.311 0 6 2.689 6 6s-2.689 6-6 6-6-2.689-6-6 2.689-6 6-6zm2.61 3.596a1.006 1.006 0 0 1 .631.274c.264.252.371.639.274.99a1.043 1.043 0 0 1-.224.407l-3.262 3.262c-.082.071-.17.132-.27.176a1.014 1.014 0 0 1-.808 0 1.091 1.091 0 0 1-.27-.176 55.6 55.6 0 0 1-1.912-1.912 1.006 1.006 0 0 1-.26-.685 1.008 1.008 0 0 1 .941-.987 1.009 1.009 0 0 1 .766.291l1.139 1.14 2.523-2.522c.036-.031.035-.03.072-.059a1.008 1.008 0 0 1 .66-.199z"/>
</svg>
