<svg xmlns="http://www.w3.org/2000/svg" width="16" height="16" viewBox="0 0 16 16">
  <path fill-rule="evenodd" d="M13.5 16h-11A1.5 1.5 0 0 1 1 14.5V8H.75A.75.75 0 0 1 0 7.25v-1.5A.75.75 0 0 1 .75 5H4.5a2.5 2.5 0 0 1 0-5H5a3.99 3.99 0 0 1 3 1.355A3.99 3.99 0 0 1 11 0h.5a2.5 2.5 0 0 1 0 5h3.75a.75.75 0 0 1 .75.75v1.5a.75.75 0 0 1-.75.75H15v6.5a1.5 1.5 0 0 1-1.5 1.5zM9 10.36v-.5a.5.5 0 0 0-.5-.5h-1a.5.5 0 0 0-.5.5v4.029a.5.5 0 0 0 .5.5h1a.5.5 0 0 0 .5-.5V10.36zM7 7.5V8a.5.5 0 0 0 .5.5h1A.5.5 0 0 0 9 8V5.986a.5.5 0 0 0-.5-.5h-1a.5.5 0 0 0-.5.5V7.5zm-.101-4.071a1.843 1.843 0 0 0-1.843-1.843h-.402a.922.922 0 0 0 0 1.843h2.245zm4.447 0a.922.922 0 0 0 0-1.843h-.402a1.843 1.843 0 0 0-1.843 1.843h2.245z"/>
</svg>
