<svg xmlns="http://www.w3.org/2000/svg" width="16" height="16" viewBox="0 0 16 16">
  <path fill-rule="evenodd" d="M13 4.182c0 .517-.236 1.006-.64 1.328L9.244 7.99l3.114 2.48A1.7 1.7 0 0 1 13 11.801v2.622A1.577 1.577 0 0 1 11.423 16H4.577A1.577 1.577 0 0 1 3 14.423v-2.622a1.7 1.7 0 0 1 .642-1.331l3.114-2.48L3.64 5.51A1.699 1.699 0 0 1 3 4.182V1.644c0-.436.173-.854.481-1.163A1.647 1.647 0 0 1 4.644 0h6.712c.436 0 .854.173 1.163.481.308.309.481.727.481 1.163v2.538zM10.554 14h.081a.364.364 0 0 0 .365-.365v-1.271c0-.231-.1-.451-.274-.604L8.448 9.765a.68.68 0 0 0-.896 0L5.274 11.76a.805.805 0 0 0-.274.604v1.271c0 .202.163.365.365.365h.108l1.987-1.872a.792.792 0 0 1 1.083-.003L10.554 14zM11 3v-.635A.364.364 0 0 0 10.635 2h-5.27A.364.364 0 0 0 5 2.365V3c.003.002 1.321.967 3 1 1.68.033 3-1 3-1z"/>
</svg>
