<svg xmlns="http://www.w3.org/2000/svg" width="16" height="16" viewBox="0 0 16 16">
  <path fill-rule="evenodd" d="M8 .01c4.41 0 7.99 3.58 7.99 7.99S12.41 15.99 8 15.99.01 12.41.01 8 3.59.01 8 .01zm2.209 2.4A5.983 5.983 0 0 0 8 1.99c-.075 0-.149.002-.223.004l-.337.022-.082.008c-.506.069-.898.462-.898.986a1 1 0 0 0 1 1h.55a1 1 0 0 1 1 1v.003c.003.058.062.997 1 .997h1a1 1 0 0 1 0 2H4.328a2 2 0 0 1-2-2A5.99 5.99 0 0 0 1.99 8c0 1.501.552 2.875 1.464 3.929.537-.224.555-.842.556-.913v-.006a1 1 0 0 1 1-1h3a1 1 0 0 1 0 2h-.389s-1.005.012-1.005 1c0 .681.698.926 1.104.993.087.004.174.006.261.007.008-.003.014-.004.019 0h.019a6.01 6.01 0 0 0 5.183-3h-.637a1 1 0 0 1 0-2h1.36a6.012 6.012 0 0 0-1.51-5.086.997.997 0 0 1-.405.086h-1a1 1 0 0 1-.801-1.6z"/>
</svg>
