<svg xmlns="http://www.w3.org/2000/svg" width="16" height="16" viewBox="0 0 16 16">
  <path fill-rule="evenodd" d="M9.621 12.01c-.012 0-1.005.018-1.005 1 0 .973 1.274.695 1.392.656a6.034 6.034 0 0 0 3.657-3.656h-.655a1 1 0 0 1 0-2h1V8c0-.629-.097-1.235-.277-1.805l1.53-1.529A7.994 7.994 0 0 1 4.666 15.263l5.253-5.253a1 1 0 0 1 0 2h-.298zm-7.924.899A7.955 7.955 0 0 1 .01 8C.01 3.59 3.59.01 8 .01c1.85 0 3.554.63 4.909 1.687l.949-.95a1 1 0 0 1 1.414 1.414L2.1 15.334A1 1 0 0 1 .686 13.92l1.011-1.011zM6.595 8.01H4.328a2 2 0 0 1-2-2A5.99 5.99 0 0 0 1.99 8c0 1.303.416 2.509 1.121 3.494L6.595 8.01zm4.064-4.064a1 1 0 0 1-.45-1.536A5.983 5.983 0 0 0 8 1.99c-.075 0-.149.002-.223.004l-.337.022-.082.008c-.506.069-.898.462-.898.986 0 .551.448 1 1 1h.55a1 1 0 0 1 1 1v.003c.001.027.014.24.12.462l1.529-1.529z"/>
</svg>
