<svg xmlns="http://www.w3.org/2000/svg" width="16" height="16" viewBox="0 0 16 16">
  <path fill-rule="evenodd" d="M7 4v.002a.243.243 0 0 1-.415.172l-1.169-1.17A1.42 1.42 0 0 1 5 2a2 2 0 0 1 2-2h6a2 2 0 0 1 2 2v11a2 2 0 0 1-2 2H7a2.003 2.003 0 0 1-1.89-1.344.605.605 0 0 1 .152-.6 90.549 90.549 0 0 1 1.71-1.741c.202-.202.475-.315.761-.315H13V4H7zm2.999 8c.493 0 1 .508 1 1s-.507 1-1 1c-.492 0-1-.508-1-1s.508-1 1-1zM4.586 7l-.879-.879a1 1 0 0 1 1.414-1.414l2.586 2.586a.995.995 0 0 1 .232.363l.001.003a.986.986 0 0 1-.015.722l-.001.001v.001l-.001.001a.965.965 0 0 1-.216.323l-.012.012-2.574 2.574a1 1 0 0 1-1.414-1.415L4.586 9H1a1 1 0 0 1 0-2h3.586zm6.232-5H9.199a.501.501 0 0 0 0 1.003h1.619a.502.502 0 0 0 0-1.003z"/>
</svg>
