<svg xmlns="http://www.w3.org/2000/svg" width="16" height="16" viewBox="0 0 16 16">
  <path fill-rule="evenodd" d="M8.056 1c2.382 0 4.992.34 5.938.623.596.237.988.815.988 1.457C15 4.556 15 7.278 15 9.533c0 3.261-4.739 6.442-6.974 6.467H8c-2.224 0-7-3.193-7-6.467 0-2.255 0-4.977.018-6.453 0-.642.392-1.22.988-1.457C2.959 1.337 5.604.995 8 1h.056zM8 12.679a1.035 1.035 0 0 0 1.449.947c1.678-.768 3.684-2.551 3.684-4.368 0-1.654 0-3.65-.013-4.733a1.15 1.15 0 0 0-.724-1.068c-.557-.167-1.902-.36-3.315-.43a1.03 1.03 0 0 0-1.079 1.03C8 6.075 8 10.471 8 12.679z"/>
</svg>
