<svg xmlns="http://www.w3.org/2000/svg" width="16" height="16" viewBox="0 0 16 16">
  <g fill="none" fill-rule="evenodd">
    <path fill="#C7C7C7" d="M9 8c0-.552-.448-1-1-1s-1 .448-1 1v6c0 .552.448 1 1 1s1-.448 1-1V8zm-3 2c0-.552-.448-1-1-1s-1 .448-1 1v4c0 .552.448 1 1 1s1-.448 1-1v-4zm9-6c0-.552-.448-1-1-1s-1 .448-1 1v10c0 .552.448 1 1 1s1-.448 1-1V4zM3 12c0-.552-.448-1-1-1s-1 .448-1 1v2c0 .552.448 1 1 1s1-.448 1-1v-2zm9-6c0-.552-.448-1-1-1s-1 .448-1 1v8c0 .552.448 1 1 1s1-.448 1-1V6z"/>
    <path fill="#333" d="M5 1c.552 0 1 .448 1 1s-.448 1-1 1h-.5v3c0 .552-.448 1-1 1s-1-.448-1-1V3H2c-.552 0-1-.448-1-1s.448-1 1-1h3z"/>
  </g>
</svg>
