<svg xmlns="http://www.w3.org/2000/svg" width="16" height="16" viewBox="0 0 16 16">
  <path fill-rule="evenodd" d="M8.013 0A2.001 2.001 0 0 1 10 1.987V2c0 .44-.307.724-.741 1.166a.467.467 0 0 0-.125.451c.245.809.914 2.154 2.681 2.383 1.227.159 1.766-.431 2.002-1.011A1.5 1.5 0 0 1 14 2h.503a.5.5 0 0 1 .497.5v10c0 1.38-3.137 2.5-7 2.5s-7-1.12-7-2.5v-10a.5.5 0 0 1 .5-.5H2a1.5 1.5 0 0 1 .183 2.989c.236.58.775 1.17 2.002 1.011 1.755-.228 2.427-1.556 2.676-2.367a.488.488 0 0 0-.12-.467C6.307 2.723 6 2.44 6 2a2 2 0 0 1 2-2h.013zM8 11c2.564 0 4.646.443 4.646.99 0 .546-2.082.989-4.646.989s-4.646-.443-4.646-.989c0-.547 2.082-.99 4.646-.99zm-.003-3.997a.997.997 0 1 1 0 1.994.997.997 0 0 1 0-1.994z"/>
</svg>
