<svg xmlns="http://www.w3.org/2000/svg" width="16" height="16" viewBox="0 0 16 16">
  <path fill-rule="evenodd" d="M8 10a2 2 0 1 1-.001 4.001A2 2 0 0 1 8 10zm-.026-2h-.026a4.047 4.047 0 0 0-1.681.394A4.016 4.016 0 0 0 4.5 10.063s-.004.002-.008.008c-.271.441-.979.42-1.39.075a1.018 1.018 0 0 1-.168-1.381l.186-.255a6.042 6.042 0 0 1 2.149-1.853A6.001 6.001 0 0 1 8 6h.039l.115.002A6.001 6.001 0 0 1 12.88 8.51l.186.255a1.018 1.018 0 0 1-.168 1.381c-.411.345-1.119.366-1.39-.075-.004-.006-.008-.008-.008-.008a4.05 4.05 0 0 0-1.767-1.669A4.047 4.047 0 0 0 8.052 8h-.078zm-.026-4l-.052.001a7.963 7.963 0 0 0-3.274.746 8.074 8.074 0 0 0-2.854 2.242l-.002.001c-.33.412-.965.343-1.345-.005a.999.999 0 0 1-.123-1.339l.127-.169a9.96 9.96 0 0 1 7.446-3.476L8 2h.052l.077.001a9.96 9.96 0 0 1 7.446 3.476l.127.169a.999.999 0 0 1-.123 1.339c-.38.348-1.015.417-1.345.005l-.002-.001a8.074 8.074 0 0 0-2.854-2.242 7.963 7.963 0 0 0-3.274-.746L8 4h-.052z"/>
</svg>
