<svg xmlns="http://www.w3.org/2000/svg" width="16" height="16" viewBox="0 0 16 16">
  <path fill-rule="evenodd" d="M8 10.001a2 2 0 1 1-.001 4.001A2 2 0 0 1 8 10.001zm1.201-7.928L10.977.297a.999.999 0 1 1 1.414 1.414l-9.997 9.997a1 1 0 0 1-1.415-1.414l6.257-6.256a7.928 7.928 0 0 0-2.614.71A8.074 8.074 0 0 0 1.768 6.99l-.002.001c-.33.412-.965.343-1.345-.005a.999.999 0 0 1-.123-1.339l.127-.169a9.96 9.96 0 0 1 7.446-3.476L8 2.001h.052l.077.001c.358.006.716.029 1.072.071zm.717 4.242a5.98 5.98 0 0 1 2.711 1.87c.087.105.171.214.251.326l.186.255a1.018 1.018 0 0 1-.168 1.381c-.411.345-1.119.366-1.39-.075-.004-.006-.008-.008-.008-.008a4.05 4.05 0 0 0-1.767-1.669 4.018 4.018 0 0 0-1.508-.387l1.693-1.693zm3.014-3.013a10.094 10.094 0 0 1 2.643 2.176l.127.169a.999.999 0 0 1-.123 1.339c-.38.348-1.015.417-1.345.005l-.002-.001a8.073 8.073 0 0 0-2.781-2.208l1.481-1.48z"/>
</svg>
