<svg xmlns="http://www.w3.org/2000/svg" width="16" height="16" viewBox="0 0 16 16">
  <path fill-rule="evenodd" d="M7 12.616l-.384-.383a.999.999 0 1 0-1.414 1.414l2.06 2.06A.999.999 0 0 0 8 16a.999.999 0 0 0 .738-.293l2.06-2.06a1 1 0 0 0-1.414-1.414L9 12.616V10a1 1 0 0 0-2 0v2.616zm-3.858.382a3.246 3.246 0 0 1-1.244-6.195 3.289 3.289 0 0 1 3.535-4.547 4.141 4.141 0 0 1 7.798 2.384A4.328 4.328 0 0 1 16 8.676a4.33 4.33 0 0 1-3.155 4.164 2.595 2.595 0 0 0-.763-1.779 2.59 2.59 0 0 0-1.473-.737v-.715a2.61 2.61 0 0 0-5.218 0v.713a2.592 2.592 0 0 0-1.487.739 2.598 2.598 0 0 0-.762 1.937z"/>
</svg>
