<svg xmlns="http://www.w3.org/2000/svg" width="16" height="16" viewBox="0 0 16 16">
  <path fill-rule="evenodd" d="M7.552 2.202V1a1 1 0 0 1 2 0v1.93l2.783 1.013a1 1 0 0 1 .641.754.814.814 0 0 1 .023.192v.708l2.887 4.999c.084.147.12.308.113.465v1.003a.737.737 0 0 1 .001.047v.021c-.014 1.831-1.801 3.312-4 3.312-2.208 0-4-1.493-4-3.333V11a.84.84 0 0 1 .114-.428l2.88-4.989-5.407-1.968 2.298 3.981a.85.85 0 0 1 .114.465v1.003L8 9.111v.021c-.014 1.831-1.801 3.312-4 3.312-2.208 0-4-1.493-4-3.333V8a.85.85 0 0 1 .114-.428L3 2.574v-.63c0-.11.022-.215.063-.312a1 1 0 0 1 1.282-.597l3.207 1.167zm4.439 5.683a.602.602 0 0 0-.526.3L9.84 11h4.306L12.52 8.185a.598.598 0 0 0-.513-.3h-.016zM3.983 4.831a.554.554 0 0 0-.473.278L1.84 8h4.305L4.476 5.11a.555.555 0 0 0-.492-.279h-.001z"/>
</svg>
