<svg xmlns="http://www.w3.org/2000/svg" width="16" height="16" viewBox="0 0 16 16">
  <path fill-rule="evenodd" d="M3 6v8h10V6h-1a1 1 0 0 1 0-2h2a1 1 0 0 1 1 1v10a1 1 0 0 1-1 1H2a.996.996 0 0 1-.799-.4A.993.993 0 0 1 1 15V5a1 1 0 0 1 1-1h2a1 1 0 0 1 0 2H3zm4 3.585V2a1 1 0 0 1 2 0v7.585l1-1a1.002 1.002 0 0 1 1.415 0c.39.391.39 1.024 0 1.415l-2.708 2.707-.021.021-.002.001-.005.005-.021.019-.042.035-.02.015-.039.028-.002.001-.001.001c-.04.026-.08.049-.122.069l-.005.003-.003.001-.042.019-.006.002-.005.002-.006.002-.017.007-.006.002a1.004 1.004 0 0 1-.279.058l-.015.001-.042.001H8l-.048-.001-.015-.001a.993.993 0 0 1-.228-.041h-.001l-.004-.001-.006-.002a.325.325 0 0 1-.017-.006l-.006-.002-.031-.011-.02-.008-.006-.002-.022-.01-.006-.002-.014-.007-.036-.017-.001-.001a1.176 1.176 0 0 1-.09-.053l-.004-.003-.003-.002a.775.775 0 0 1-.058-.042l-.005-.004a.936.936 0 0 1-.059-.051l-.004-.004-.003-.002-.002-.002-.002-.003-.016-.015L4.585 10a1.002 1.002 0 0 1 0-1.415 1.002 1.002 0 0 1 1.415 0l1 1z"/>
</svg>
