<svg xmlns="http://www.w3.org/2000/svg" width="16" height="16" viewBox="0 0 16 16">
  <path fill-rule="evenodd" d="M4.586 10l-.879-.879a1 1 0 0 1 1.414-1.414l2.569 2.569.017.017a.983.983 0 0 1 .276.523l.003.017a.82.82 0 0 1 .012.101L8 10.97v.036a.987.987 0 0 1-.293.701l-2.585 2.586c-.391.39-1.024.39-1.415 0a1.002 1.002 0 0 1 0-1.415L4.586 12H1a1 1 0 0 1 0-2h3.586zm9.614 3H8.6l.317-.316a2.45 2.45 0 0 0-.206-3.646c-.023-.026-.047-.05-.071-.075l-2.791-2.79A2.49 2.49 0 0 0 2 6.579V2.5A1.5 1.5 0 0 1 3.5 1h5A1.5 1.5 0 0 1 10 2.5V3h4.2A1.8 1.8 0 0 1 16 4.8v6.4a1.8 1.8 0 0 1-1.8 1.8z"/>
</svg>
