<svg width="16" height="16" xmlns="http://www.w3.org/2000/svg">
  <path d="M8 .75c0-.414.42-.75.834-.75.206 0 .393.084.529.22l3.172 2.57c.231.159.465.418.465.71s-.234.552-.466.71L9.361 6.782A.748.748 0 0 1 8.834 7C8.419 7 8 6.664 8 6.25V5.109l-3.292-.442C4.085 4.56 4 4.144 4 3.5s.083-1.08.708-1.167L8 1.883V.75zm.79 12.392l-.795-.001v1.109a.75.75 0 0 1-1.277.532L3.382 12.21A.863.863 0 0 1 3 11.5c0-.292.151-.551.382-.71l3.334-2.57a.75.75 0 0 1 1.28.53v1.098l.794.001c3.738.02 3.18 4.426 3.172 4.564a.584.584 0 1 1-1.167.004c-.002-.04.26-1.274-2.005-1.275z"/>
</svg>
