<svg xmlns="http://www.w3.org/2000/svg" width="16" height="16" viewBox="0 0 16 16">
  <path fill-rule="evenodd" d="M7.919 12.563c-.856.567-2.304 1.504-3.757 2.444-.226.19-.542.237-.858.111-.46-.184-.552-.645-.368-1.105l1.197-4.512L.929 6.567c-.174-.141-.295-.353-.295-.565 0-.46.368-.737.736-.737h4.173l1.683-3.928C7.38.987 7.658.793 8 .793h.008c.338.005.614.196.766.544l1.684 3.928h4.172c.368 0 .737.277.737.737 0 .212-.122.424-.296.565l-3.203 2.934 1.197 4.512c.184.46.092.921-.369 1.105-.315.126-.631.079-.858-.111A503.075 503.075 0 0 1 8 12.509l-.081.054z"/>
</svg>
