<svg xmlns="http://www.w3.org/2000/svg" width="16" height="16" viewBox="0 0 16 16">
  <path fill-rule="evenodd" d="M8.88 3.37a.3.3 0 0 0 .122-.252A3.001 3.001 0 0 1 15 3a3.001 3.001 0 0 1-4.951 2.278.292.292 0 0 0-.366-.017c-.564.407-2.189 1.588-2.649 1.922a.233.233 0 0 0-.09.234 3.098 3.098 0 0 1-.001 1.166.234.234 0 0 0 .091.234l2.648 1.924a.295.295 0 0 0 .368-.018A2.978 2.978 0 0 1 12 10a3.001 3.001 0 0 1 0 6 3.001 3.001 0 0 1-2.998-3.118.295.295 0 0 0-.122-.251l-2.896-2.105a.315.315 0 0 0-.358-.007A2.968 2.968 0 0 1 4 11a3.001 3.001 0 0 1 0-6c.599 0 1.158.176 1.627.48.108.072.25.069.355-.007.58-.419 2.392-1.736 2.898-2.103z"/>
</svg>
