<svg xmlns="http://www.w3.org/2000/svg" width="16" height="16" viewBox="0 0 16 16">
  <path fill-rule="evenodd" d="M12 8a1 1 0 0 1 2 0v.027a6.03 6.03 0 0 1-7 5.948v1.15c0 .483-.348.875-.778.875a.726.726 0 0 1-.497-.202l-3.07-2.59a.911.911 0 0 1-.322-.708c0-.291.127-.549.322-.708l3.07-2.59A.726.726 0 0 1 6.222 9c.43 0 .778.392.778.875v2.06a4.029 4.029 0 0 0 5-3.908V8zM9 2.078V.875C9 .392 9.348 0 9.778 0c.189 0 .362.076.497.202l3.07 2.59a.911.911 0 0 1 .322.708.911.911 0 0 1-.322.708l-3.07 2.59A.726.726 0 0 1 9.778 7C9.348 7 9 6.608 9 6.125V4.119A4.03 4.03 0 0 0 4 8a1 1 0 0 1-2 0v-.021a6.03 6.03 0 0 1 7-5.901z"/>
</svg>
