<svg xmlns="http://www.w3.org/2000/svg" width="16" height="16" viewBox="0 0 16 16">
  <path fill-rule="evenodd" d="M6.682 5.843a1.75 1.75 0 0 1 .202-.093c.211-.083.429-.128.654-.151a2.193 2.193 0 0 1 .879.112 2.004 2.004 0 0 1 .693.415c.519.472.751 1.165.812 1.847a3.4 3.4 0 0 1 .007.638c-.02.189-.065.375-.134.552a2.73 2.73 0 0 1-.614.904c-.275.281-.587.524-.88.786a8.523 8.523 0 0 0-.217.207c-.222.229-.419.481-.535.78a2.14 2.14 0 0 0-.13.785c0 .105.007.21.018.314.009.085.02.169.042.252.096.362.327.687.627.909.272.202.598.316.931.367.135.02.269.025.404.032.067-.001.134-.001.201-.005.355-.031.696-.14 1.017-.296a4.896 4.896 0 0 0 1.004-.664 7.29 7.29 0 0 0 1.214-1.328c.343-.475.643-.984.888-1.517.139-.303.261-.615.354-.936.07-.241.125-.488.148-.738.012-.125.009-.248.007-.373.002-.044.002-.044.007-.088a.754.754 0 0 1 1.038-.588.752.752 0 0 1 .446.571c.018.113.015.231.012.346a4.135 4.135 0 0 1-.05.544 6.067 6.067 0 0 1-.168.745c-.233.803-.602 1.567-1.041 2.277-.638 1.03-1.45 1.978-2.456 2.663-.63.429-1.345.757-2.105.857a3.642 3.642 0 0 1-.507.03c-.114.004-.229-.006-.342-.015a4.212 4.212 0 0 1-.756-.131c-.357-.099-.7-.25-1.009-.456a3.222 3.222 0 0 1-1.247-1.604 3.34 3.34 0 0 1-.165-.852c-.036-.491.005-.99.155-1.46.104-.324.259-.63.453-.909.142-.203.304-.391.478-.566.3-.304.638-.567.953-.854.047-.045.094-.089.14-.135.127-.133.258-.28.308-.462.036-.131.023-.273.013-.406a2.824 2.824 0 0 0-.048-.345c-.056-.252-.168-.545-.42-.66a.51.51 0 0 0-.106-.036.713.713 0 0 0-.475.062c-.03.016-.06.032-.089.051a.596.596 0 0 0-.177.194.703.703 0 0 0-.068.233 1.787 1.787 0 0 0-.013.327c.003.071.012.141.012.212a.787.787 0 0 1-.122.398.757.757 0 0 1-1.056.207.754.754 0 0 1-.308-.473c-.012-.059-.015-.121-.019-.182a3.807 3.807 0 0 1-.009-.302c.003-.2.023-.398.065-.593a2.037 2.037 0 0 1 1.084-1.399zm-4.89 5.298a.766.766 0 0 1 .527.259.806.806 0 0 1 .109.168c.022.047.039.095.058.143.032.083.066.164.102.245.297.659.703 1.273 1.248 1.753.096.084.195.164.3.236.061.042.126.077.187.119a.776.776 0 0 1 .312.617.76.76 0 0 1-.505.701.75.75 0 0 1-.56-.028 1.965 1.965 0 0 1-.287-.175 4.813 4.813 0 0 1-.524-.422c-.664-.609-1.179-1.372-1.543-2.194a6.72 6.72 0 0 1-.127-.304 1.052 1.052 0 0 1-.087-.324.758.758 0 0 1 .427-.723.767.767 0 0 1 .306-.072l.057.001zM7.833 3.05c.251.006.501.021.75.054.505.069.999.209 1.461.425a5.29 5.29 0 0 1 1.174.765c.691.582 1.247 1.32 1.552 2.174.296.829.342 1.727.199 2.592-.06.365-.15.725-.282 1.07a4.44 4.44 0 0 1-.547 1.012 5.116 5.116 0 0 1-.674.752c-.456.423-.971.774-1.483 1.125l-.043.027a.778.778 0 0 1-.432.103.757.757 0 0 1-.699-.774c.003-.1.027-.2.069-.291a.807.807 0 0 1 .216-.272c.091-.067.186-.129.279-.193l.332-.233c.327-.238.651-.484.93-.778a3.05 3.05 0 0 0 .568-.819c.136-.292.219-.603.277-.92.115-.629.093-1.292-.123-1.897s-.618-1.12-1.106-1.532a3.713 3.713 0 0 0-1.102-.661 3.801 3.801 0 0 0-.948-.209 3.987 3.987 0 0 0-.92.012c-.777.11-1.537.488-2.051 1.087a2.614 2.614 0 0 0-.347.513c-.182.356-.265.752-.298 1.148-.027.33-.01.662.04.99.076.497.221.982.346 1.468.038.152.073.303.106.456.049.246.089.494.107.745.016.207.015.414.004.621l-.005.05a.777.777 0 0 1-.182.405.758.758 0 0 1-.87.187.759.759 0 0 1-.44-.625c-.007-.096.005-.193.006-.289a4.731 4.731 0 0 0-.009-.238 5.715 5.715 0 0 0-.138-.812c-.083-.334-.175-.666-.258-1a8.081 8.081 0 0 1-.194-1.101 5.538 5.538 0 0 1 .043-1.403 4.7 4.7 0 0 1 .142-.63A3.959 3.959 0 0 1 3.97 4.84c.694-.886 1.732-1.478 2.83-1.697.268-.054.538-.082.81-.092.112-.002.111-.001.223-.001zm-5.632-.04a.755.755 0 0 1 .607 1.125c-.043.073-.097.139-.144.21-.045.07-.088.141-.129.214a6.588 6.588 0 0 0-.609 1.68c-.103.452-.17.912-.195 1.375-.019.353-.013.708.029 1.059.016.134.037.268.065.401.019.091.044.181.066.272.007.04.007.04.012.082a.772.772 0 0 1-.075.401.757.757 0 0 1-.948.365.747.747 0 0 1-.408-.39c-.031-.068-.048-.14-.067-.212a6.6 6.6 0 0 1-.177-1.287A9.019 9.019 0 0 1 .376 6.33a9.112 9.112 0 0 1 .52-1.81c.13-.319.282-.631.465-.923.047-.075.096-.148.148-.22.039-.055.079-.109.128-.157a.76.76 0 0 1 .44-.207c.042-.003.082-.004.124-.003zM7.833.219a7.879 7.879 0 0 1 2.285.368 7.806 7.806 0 0 1 4.094 3.103 7.731 7.731 0 0 1 .976 2.095l.014.052a.753.753 0 0 1-.414.845.752.752 0 0 1-1.018-.41c-.034-.099-.063-.2-.095-.3A6.289 6.289 0 0 0 9.66 2.015a6.294 6.294 0 0 0-3.234-.156 6.414 6.414 0 0 0-1.56.564l-.048.023a.809.809 0 0 1-.367.056.756.756 0 0 1-.64-.977.745.745 0 0 1 .325-.411c.08-.045.162-.085.244-.125.483-.23.984-.415 1.503-.544A8.078 8.078 0 0 1 7.391.226c.147-.005.294-.008.442-.007z"/>
</svg>
