<svg xmlns="http://www.w3.org/2000/svg" width="16" height="16" viewBox="0 0 16 16">
  <path fill-rule="evenodd" d="M6.937 1.291A1 1 0 0 1 8.642 2v12a1 1 0 0 1-1.697.717L3 11H1.25C.56 11 0 10.44 0 9.75v-3.5C0 5.56.56 5 1.25 5H3l3.937-3.709zM11 8a1.81 1.81 0 0 0-.953-1.563l-.009-.008a.834.834 0 0 1-.168-1.122.834.834 0 0 1 1.107-.247l.186.109A3.478 3.478 0 0 1 12.666 8a3.478 3.478 0 0 1-1.503 2.831l-.186.109a.834.834 0 0 1-1.107-.247.834.834 0 0 1 .168-1.122l.009-.008A1.81 1.81 0 0 0 11 8z"/>
</svg>
