<svg xmlns="http://www.w3.org/2000/svg" width="16" height="16" viewBox="0 0 16 16">
  <path fill-rule="evenodd" d="M8 0c4.415 0 8 3.585 8 8s-3.585 8-8 8-8-3.585-8-8 3.585-8 8-8zm0 2c3.311 0 6 2.689 6 6s-2.689 6-6 6-6-2.689-6-6 2.689-6 6-6zm-.852 1.269a.497.497 0 0 1 .729.301l.515 1.922a.498.498 0 0 1-.387.617l-.633.145s-.528.129-.504.543c.033.593.555 1.441.555 1.441.001.002.474.877.97 1.202.348.228.723-.165.723-.165l.442-.475.025-.027a.497.497 0 0 1 .703 0l1.407 1.406a.499.499 0 0 1-.103.783l-1.515.874c-.81.468-1.142.152-1.432.005-.687-.346-1.711-1.104-2.678-2.761l.01-.005-.01.005c-.951-1.666-1.096-2.932-1.052-3.699.018-.324-.09-.77.72-1.238l1.515-.875v.001z"/>
</svg>
