<svg xmlns="http://www.w3.org/2000/svg" width="16" height="16" viewBox="0 0 16 16">
  <path fill-rule="evenodd" d="M5 14h2c.096.001.195.008.259.026a1.004 1.004 0 0 1 .572.41 1.007 1.007 0 0 1-.758 1.56C7.047 15.998 7.026 16 7 16H5c-.066-.002-.13-.015-.195-.028a.987.987 0 0 1-.598-.372 1.007 1.007 0 0 1 0-1.217.988.988 0 0 1 .293-.257c.135-.078.37-.126.5-.126zM4 3c.002-1.102.897-2 2-2h6a2 2 0 0 1 2 2v7.992c0 1.103-.89 2-1.994 2H12v2a1.004 1.004 0 0 1-.617.923c-.103.043-.23.075-.383.085h-1a1.063 1.063 0 0 1-.752-.349 1.009 1.009 0 0 1 .143-1.453 1.01 1.01 0 0 1 .609-.206V13H6c-1.104 0-2-.905-2-2.008V5H3l-.002.057a.998.998 0 0 1-.992.932h-.01a1 1 0 0 1-.862-.497 1.06 1.06 0 0 1-.132-.435L1 3.992a1.004 1.004 0 0 1 .617-.924C1.72 3.025 1.864 3 1.992 3c.202 0 .746.003 1 0H4zm-1.994 8.992l.059.002a1.004 1.004 0 0 1 .933.932L3 15.001a1.007 1.007 0 0 1-.391.794 1.011 1.011 0 0 1-.6.205h-.008a1.002 1.002 0 0 1-.61-.205.992.992 0 0 1-.257-.294 1.025 1.025 0 0 1-.132-.434L1 12.992a1.004 1.004 0 0 1 .935-.998L2 11.992h.006zm0-5l.059.002a1.004 1.004 0 0 1 .933.932L3 9.992a1.01 1.01 0 0 1-.341.751 1.004 1.004 0 0 1-.658.248h-.008a.995.995 0 0 1-.602-.206 1 1 0 0 1-.389-.728L1 7.992a1.004 1.004 0 0 1 .935-.998L2 6.992h.006zm6.494 1h-2a.5.5 0 0 0 0 1h2a.5.5 0 0 0 0-1zm3.5-1.5a.5.5 0 0 0-.5-.5h-5a.5.5 0 0 0 0 1h5a.5.5 0 0 0 .5-.5zm-.5-2.5h-5a.5.5 0 0 0 0 1h5a.5.5 0 0 0 0-1z"/>
</svg>
