<svg xmlns="http://www.w3.org/2000/svg" width="16" height="16" viewBox="0 0 16 16">
  <path fill-rule="evenodd" d="M13 15H3a2 2 0 0 1-2-2V3a2 2 0 0 1 2-2h10a2 2 0 0 1 2 2v10a2 2 0 0 1-2 2zM7.551 3H3.449A.449.449 0 0 0 3 3.449v9.102c0 .248.201.449.449.449h9.197a.355.355 0 0 0 .354-.354V5.354A.355.355 0 0 0 12.646 5H8.407A.408.408 0 0 1 8 4.593V3.449A.449.449 0 0 0 7.551 3zM8.5 6a.5.5 0 0 1 .5.5V8h1.5a.5.5 0 0 1 .5.5v1a.5.5 0 0 1-.5.5H9v1.5a.5.5 0 0 1-.5.5h-1a.5.5 0 0 1-.5-.5V10H5.5a.5.5 0 0 1-.5-.5v-1a.5.5 0 0 1 .5-.5H7V6.5a.5.5 0 0 1 .5-.5h1zm-2-2a.5.5 0 0 1 0 1H4.634a.5.5 0 0 1 0-1H6.5z"/>
</svg>
