<svg xmlns="http://www.w3.org/2000/svg" width="16" height="16" viewBox="0 0 16 16">
  <path fill-rule="evenodd" d="M3 9v5h10V9h-1a1 1 0 0 1 0-2h2a1 1 0 0 1 1 1v7a1 1 0 0 1-1 1H2a.996.996 0 0 1-.799-.4A.993.993 0 0 1 1 15V8a1 1 0 0 1 1-1h2a1 1 0 0 1 0 2H3zm5.006-8a.3.3 0 0 1 .03.001l.035.002h.012c.062.006.124.017.184.033l.037.011.05.017.021.009a.684.684 0 0 1 .04.017l.017.008c.057.027.111.06.163.098l.003.003c.031.023.06.048.089.074l.02.02L11.415 4c.39.391.39 1.024 0 1.415-.391.39-1.024.39-1.415 0l-1-1V12a1 1 0 0 1-2 0V4.415l-1 1c-.391.39-1.024.39-1.415 0a1.002 1.002 0 0 1 0-1.415l2.708-2.707a.778.778 0 0 1 .052-.048l.004-.004a.28.28 0 0 1 .02-.016l.005-.004a.83.83 0 0 1 .069-.052l.017-.011.016-.01.005-.003.005-.003a.993.993 0 0 1 .168-.08l.015-.006c.061-.021.124-.037.187-.046l.006-.001h.006A.969.969 0 0 1 7.988 1h.018z"/>
</svg>
