<svg xmlns="http://www.w3.org/2000/svg" width="16" height="16" viewBox="0 0 16 16">
  <path fill-rule="evenodd" d="M15 3v10c0 1.069-.931 2-2 2H4a2 2 0 0 1-2-2V3a2 2 0 0 1 2-2h9c1.1 0 2 1.024 2 2zm-2.001 0c0-.31-.142-.587-.363-.771a.117.117 0 0 1-.039-.132.117.117 0 0 1 .112-.08C12.873 2 13 2 13 2h.006c.549.004.994.45.994 1v10a1 1 0 0 1-1 1h-.291a.135.135 0 0 1-.084-.242.934.934 0 0 0 .374-.758V3zM8.258 8.763V8.37A1.5 1.5 0 0 0 9 7.076V6a1.5 1.5 0 0 0-3 0v1.076a1.5 1.5 0 0 0 .742 1.294v.393H6.6a1.6 1.6 0 0 0-1.6 1.6v.237a.4.4 0 0 0 .4.4h4.2a.4.4 0 0 0 .4-.4v-.237a1.6 1.6 0 0 0-1.6-1.6h-.142z"/>
</svg>
