<svg xmlns="http://www.w3.org/2000/svg" width="16" height="16" viewBox="0 0 16 16">
  <path fill-rule="evenodd" d="M8 2.465S8.994 1 12 1c2.114 0 3.233.724 3.711 1.154.167.195.289.446.289.703v10.797a.761.761 0 0 1-1.125.674c-.665-.339-1.639-.645-2.875-.645-1.745 0-2.966.609-3.569.998a.717.717 0 0 1-.861-.001c-.604-.388-1.825-.997-3.57-.997-1.236 0-2.21.306-2.886.622a.736.736 0 0 1-.728-.014C.163 14.159 0 13.918 0 13.659V2.944c0-.264.094-.609.266-.81C.768 1.724 1.886 1 4 1c3.006 0 4 1.465 4 1.465zm1 1.752a.47.47 0 0 1 .166-.358C9.54 3.589 10.51 3 12 3c1.004 0 1.599.309 1.853.482a.39.39 0 0 1 .141.3C14 4.71 14 8.849 14 10.277a.33.33 0 0 1-.475.299c-.306-.092-.792-.171-1.525-.171-1.096 0-2.136.295-2.656.47a.257.257 0 0 1-.343-.242L9 4.217zm-2 0a.466.466 0 0 0-.166-.358C6.46 3.589 5.49 3 4 3c-1 0-1.594.301-1.85.471a.393.393 0 0 0-.144.303C2 4.708 2 8.849 2 10.277c0 .114.059.22.156.28a.331.331 0 0 0 .32.019c.305-.092.791-.171 1.524-.171 1.096 0 2.136.295 2.656.47a.257.257 0 0 0 .343-.242L7 4.217z"/>
</svg>
