<svg xmlns="http://www.w3.org/2000/svg" width="16" height="16" viewBox="0 0 16 16">
  <path fill-rule="evenodd" d="M8 9.317a1 1 0 0 0-1 1V15a1 1 0 0 0 2 0v-4.683a1 1 0 0 0-1-1zM3 13a1 1 0 0 0-1 1v1a1 1 0 0 0 2 0v-1a1 1 0 0 0-1-1zm10 0a1 1 0 0 0-1 1v1a1 1 0 0 0 2 0v-1a1 1 0 0 0-1-1zM2 8a2 2 0 1 1-.001 4.001A2 2 0 0 1 2 8zm12 0a2 2 0 1 1-.001 4.001A2 2 0 0 1 14 8zm-2.397-5.253a.909.909 0 0 1 .477 1.681h.001l-.01.005a.818.818 0 0 1-.106.055l-1.681.87.89 2.291a.908.908 0 0 1-1.355 1.14L8.008 7.484 6.196 8.789a.908.908 0 0 1-1.424-.961v-.001a.915.915 0 0 1 .066-.171l.882-2.298-1.665-.867a.908.908 0 0 1 .355-1.744h1.934L7.138.658a.864.864 0 0 1 .057-.149V.508a.903.903 0 0 1 1.684.159l.78 2.08h1.944z"/>
</svg>
