<svg xmlns="http://www.w3.org/2000/svg" width="16" height="16" viewBox="0 0 16 16">
  <path fill-rule="evenodd" d="M13.5 16h-7A1.5 1.5 0 0 1 5 14.5v-10A1.5 1.5 0 0 1 6.5 3h7A1.5 1.5 0 0 1 15 4.5v10a1.5 1.5 0 0 1-1.5 1.5zM4 13H2.5A1.5 1.5 0 0 1 1 11.5v-10A1.5 1.5 0 0 1 2.5 0h7A1.5 1.5 0 0 1 11 1.5V2H6.375c-.832 0-1.565.429-1.989 1.077A1 1 0 1 0 4 5v1.813a.621.621 0 0 0-.252.228L2.654 8.795A.75.75 0 0 0 3.25 10H4v3zm8.75 0a.75.75 0 0 0 .596-1.205l-1.603-2.791a.684.684 0 0 0-1.179-.015l-.868 1.423a.273.273 0 0 1-.42.055L8.7 9.919a.621.621 0 0 0-.952.122l-1.094 1.754A.75.75 0 0 0 7.25 13h5.5zM8 6a1 1 0 1 1 0 2 1 1 0 0 1 0-2z"/>
</svg>
