<svg xmlns="http://www.w3.org/2000/svg" xmlns:xlink="http://www.w3.org/1999/xlink" width="16" height="16" viewBox="0 0 16 16">
  <defs>
    <path id="categories-discounts-a" d="M12.43344 1.16493c-.59042-.3392-1.34623-.13867-1.68705.44995l-6.68905 11.5401c-.34082.58763-.13733 1.34088.45208 1.68009.59042.3392 1.34623.13867 1.68705-.44995l6.68906-11.5401c.34081-.58763.13833-1.34088-.45209-1.68009zm.2526 7.22217C14.51445 8.3871 16 9.86465 16 11.6844c0 1.82076-1.48557 3.29831-3.31395 3.29831-1.8294 0-3.31396-1.47755-3.31396-3.2983 0-1.81977 1.48457-3.29732 3.31396-3.29732zm-.005 1.98038c.72774 0 1.31816.58763 1.31816 1.31194 0 .72431-.59042 1.31294-1.31817 1.31294-.72774 0-1.31916-.58863-1.31916-1.31294 0-.7243.59142-1.31194 1.31916-1.31194zm-8.3671-9.33623c1.8294 0 3.31396 1.47755 3.31396 3.2983 0 1.81976-1.48457 3.29732-3.31396 3.29732C2.48557 7.62687 1 6.14931 1 4.32956 1 2.5088 2.48557 1.03125 4.31395 1.03125zm-.005 1.98038c.72774 0 1.31916.58763 1.31916 1.31194 0 .72531-.59142 1.31294-1.31917 1.31294s-1.31816-.58763-1.31816-1.31294c0-.72431.59041-1.31194 1.31816-1.31194z"/>
  </defs>
  <use xlink:href="#categories-discounts-a" fill-rule="evenodd"/>
</svg>
