<svg xmlns="http://www.w3.org/2000/svg" width="16" height="16" viewBox="0 0 16 16">
  <path fill-rule="evenodd" d="M15 3.5v8c0 1.932-3.137 3.5-7 3.5s-7-1.568-7-3.5v-8C1 1.568 4.137 0 8 0s7 1.568 7 3.5zM8 9.729c2.718 0 4.924.794 4.924 1.771 0 .977-2.206 1.771-4.924 1.771-2.718 0-4.924-.794-4.924-1.771 0-.977 2.206-1.771 4.924-1.771zM8.5 2h-1a.5.5 0 0 0-.5.5V4H5.5a.5.5 0 0 0-.5.5v1a.5.5 0 0 0 .5.5H7v1.5a.5.5 0 0 0 .5.5h1a.5.5 0 0 0 .5-.5V6h1.5a.5.5 0 0 0 .5-.5v-1a.5.5 0 0 0-.5-.5H9V2.5a.5.5 0 0 0-.5-.5z"/>
</svg>
