<svg xmlns="http://www.w3.org/2000/svg" width="16" height="16" viewBox="0 0 16 16">
  <path fill-rule="evenodd" d="M4.083 11.917l-2.777-1.395a.818.818 0 0 1-.21-1.305l.425-.425a.816.816 0 0 1 .602-.239l2.867.09L6.373 7.26 1.034 4.007a.812.812 0 0 1-.151-1.263l.384-.383a.809.809 0 0 1 .738-.22l7.452 2.035 2.686-2.686a1.675 1.675 0 0 1 2.367 2.367l-2.686 2.686 2.035 7.452a.809.809 0 0 1-.22.738l-.383.384a.813.813 0 0 1-1.263-.151L8.74 9.627l-1.382 1.382.094 2.862a.818.818 0 0 1-.238.603l-.431.43a.818.818 0 0 1-1.305-.21l-1.395-2.777z"/>
</svg>
