<svg xmlns="http://www.w3.org/2000/svg" width="16" height="16" viewBox="0 0 16 16">
  <path fill-rule="evenodd" d="M13 3c1.656 0 3 1.344 3 3v5a3.001 3.001 0 0 1-5.851.935C9.954 11.401 9.531 11 9 11H6.996c-.552 0-.929.367-1.167 1A3.001 3.001 0 0 1 0 11V6c0-1.656 1.344-3 3-3h10zm-.881 5.387a.887.887 0 1 1-1.255 1.254.887.887 0 0 1 1.255-1.254zM3.877 5.485H3.12a.378.378 0 0 0-.378.378v.878h-.884a.38.38 0 0 0-.379.38v.759c0 .209.17.379.379.379h.884v.878c0 .209.169.378.378.378h.757a.378.378 0 0 0 .378-.378v-.878h.887a.38.38 0 0 0 .379-.379v-.759a.38.38 0 0 0-.379-.38h-.887v-.878a.378.378 0 0 0-.378-.378zm9.863 1.388a.887.887 0 1 1-1.255 1.254.887.887 0 0 1 1.255-1.254zm-3.226 0a.887.887 0 1 1-1.255 1.254.887.887 0 0 1 1.255-1.254zm1.605-1.514a.887.887 0 1 1-1.255 1.254.887.887 0 0 1 1.255-1.254zM9 2H6.671a1 1 0 0 1 0-2H9a1 1 0 0 1 0 2z"/>
</svg>
