<svg xmlns="http://www.w3.org/2000/svg" width="16" height="16" viewBox="0 0 16 16">
  <path d="M16 11.038c-.009.229-.036.449-.071.665-.012.066-.025.131-.039.196C15.354 14.482 12.854 16 9 16c-3.997 0-5.777-2.282-6.356-3.263-.282-.476-.124-1.089.352-1.37.474-.281 1.088-.123 1.369.352C4.771 12.405 6.033 14 9 14c.113 0 .24-.003.374-.007C8.539 13.259 8 12.196 8 11c0-2.206 1.794-4 4-4s4 1.794 4 4c0 .009-.002.017-.002.025-.001.004.002.008.002.013zM12 9c-1.103 0-2 .897-2 2s.897 2 2 2c.916 0 1.681-.622 1.917-1.463.042-.174.072-.356.081-.555C13.988 9.888 13.097 9 12 9zM8 5c0 2.206-1.794 4-4 4S0 7.206 0 5c0-.009.002-.017.002-.025.001-.004-.001-.008-.001-.013.008-.229.035-.449.07-.665.012-.066.025-.131.039-.196C.646 1.518 3.146 0 7 0c3.997 0 5.777 2.282 6.356 3.263.282.476.124 1.089-.352 1.37-.477.28-1.088.123-1.369-.352C11.23 3.595 9.967 2 7 2c-.113 0-.24.003-.373.007C7.461 2.741 8 3.804 8 5zm-5.998.018C2.012 6.112 2.903 7 4 7c1.103 0 2-.897 2-2s-.897-2-2-2c-.916 0-1.681.622-1.917 1.463-.042.174-.072.356-.081.555z"/>
</svg>
