<svg xmlns="http://www.w3.org/2000/svg" width="16" height="16" viewBox="0 0 16 16">
  <path fill-rule="evenodd" d="M8 14.0008c-2.757 0-5-1.906-5-4.25 0-2.344 2.243-4.25 5-4.25s5 1.906 5 4.25c0 2.344-2.243 4.25-5 4.25m3.843-9.468c1.367-.741 2.427-1.855 2.892-3.207.18-.522-.098-1.091-.62-1.271-.522-.18-1.091.098-1.271.621-.573 1.663-2.564 2.825-4.844 2.825-2.28 0-4.271-1.162-4.844-2.825-.18-.523-.75-.798-1.271-.621-.522.18-.8.749-.62 1.271.465 1.352 1.525 2.466 2.892 3.207C2.258 5.6518 1 7.5708 1 9.7508c0 3.446 3.14 6.25 7 6.25s7-2.804 7-6.25c0-2.18-1.258-4.099-3.157-5.218"/>
</svg>
