<svg xmlns="http://www.w3.org/2000/svg" width="16" height="16" viewBox="0 0 16 16">
  <path fill-rule="evenodd" d="M15 13c.552 0 1 .448 1 1s-.448 1-1 1H1c-.552 0-1-.448-1-1s.448-1 1-1h14zM3.755 9C2.953 8.033 2.5 6.808 2.5 5.5 2.5 2.467 4.967 0 8 0s5.5 2.467 5.5 5.5c0 1.309-.454 2.535-1.251 3.5H15c.552 0 1 .448 1 1s-.448 1-1 1h-4.899c-.589 0-1.089-.401-1.216-.976-.127-.572.155-1.147.687-1.396C10.754 8.04 11.5 6.837 11.5 5.5 11.5 3.57 9.93 2 8 2S4.5 3.57 4.5 5.5c0 1.337.746 2.54 1.945 3.136.515.241.797.816.67 1.389-.127.574-.627.975-1.216.975H1c-.552 0-1-.448-1-1s.448-1 1-1h2.755z"/>
</svg>
