<svg xmlns="http://www.w3.org/2000/svg" width="16" height="16" viewBox="0 0 16 16">
  <path fill-rule="evenodd" d="M13 1a2 2 0 0 1 2 2v10a2 2 0 0 1-2 2H3a2 2 0 0 1-2-2V3a2 2 0 0 1 2-2h10zm-1.274 12c.514 0 .932-.373.932-.833a.77.77 0 0 0-.133-.43l-.014-.02-1.883-3.294c-.16-.253-.386-.52-.811-.52-.437 0-.659.272-.817.53l-1.426 1.966-.862-.91C6.504 9.269 6.343 9 5.929 9c-.414 0-.614.297-.816.538l-1.631 2.19a.762.762 0 0 0-.14.439c0 .46.418.833.932.833h7.452zM5.5 3a1.5 1.5 0 1 1-.001 3.001A1.5 1.5 0 0 1 5.5 3z"/>
</svg>
