<svg xmlns="http://www.w3.org/2000/svg" width="16" height="16" viewBox="0 0 16 16">
  <path fill-rule="evenodd" d="M3.238 5.446c-.294 1.333-.585 2.662-.788 3.589a.665.665 0 0 1-.475.492.65.65 0 0 1-.65-.2c-.113-.121-.225-.25-.342-.38a3.71 3.71 0 0 1-.846-3.295C.516 3.993 1.054 1.66 1.312.531a.68.68 0 0 1 .817-.513l1.533.346c.367.084.596.45.517.817-.121.542-.304 1.37-.511 2.311l2.605.543a2.503 2.503 0 0 1 4.515.941l4.372.912a1 1 0 0 1-.408 1.958l-4.096-.854 2.072 7.746a.995.995 0 0 1-.826 1.249.954.954 0 0 1-.161.013H4.934c-.032 0-.064-.002-.096-.005a1 1 0 0 1-.931-1.258l2.189-8.168a2.525 2.525 0 0 1-.203-.57l-2.655-.553zM6.711 12l-.535 2h4.287l-.537-2H6.711zM7.81 7.897L7.247 10H9.39l-.563-2.097a2.508 2.508 0 0 1-1.017-.006z"/>
</svg>
