<svg xmlns="http://www.w3.org/2000/svg" width="16" height="16" viewBox="0 0 16 16">
  <path fill-rule="evenodd" d="M8 0c4.415 0 8 3.585 8 8s-3.585 8-8 8-8-3.585-8-8 3.585-8 8-8zm5.786 7.56a.118.118 0 0 1 .127-.028.118.118 0 0 1 .077.104 5.978 5.978 0 0 1-.627 3.056l-.004.008a.74.74 0 0 1-1.356-.581l.176-.463a4.56 4.56 0 0 0 .192-.607.348.348 0 0 1 .094-.168l1.321-1.321zM10.24 3.918a.23.23 0 0 1-.267.043A4.487 4.487 0 0 0 8 3.506h-.029a4.496 4.496 0 0 0-4.15 6.15l.176.463a.74.74 0 1 1-1.36.573A6.003 6.003 0 0 1 8 2h.039a5.961 5.961 0 0 1 3.072.87.136.136 0 0 1 .005.227 2.69 2.69 0 0 0-.345.29l-.531.531zm2.922 2.086a1 1 0 1 0-1.414-1.415L7.033 9.305a.999.999 0 1 0 1.414 1.414l4.715-4.715z"/>
</svg>
