<svg xmlns="http://www.w3.org/2000/svg" width="16" height="16" viewBox="0 0 16 16">
  <path fill-rule="evenodd" d="M8 0c4.415 0 8 3.585 8 8s-3.585 8-8 8-8-3.585-8-8 3.585-8 8-8zm2.802 2.694a6.003 6.003 0 0 0-8.347 7.6c.487.035 1.883.151 2.237.35.398.223 1.174 2.004 1.125 2.443a1.149 1.149 0 0 1-.159.438C6.378 13.831 7.169 14 8 14c.708 0 1.387-.123 2.018-.348-.241-.173-.494-.393-.515-.565-.043-.335.563-2.423.807-2.665.244-.242 2.832-.889 3.041-.62.075.096.157.245.232.398A5.982 5.982 0 0 0 14 8c0-.659-.106-1.293-.303-1.887-.104.094-.227.18-.346.201-.287.052-1.991-.67-2.363-1.091-.199-.226-.246-1.695-.186-2.529zM5.34 9.249c-.468-.199-1.247-1.697-1.249-2.333-.004-.839 1.789-2.744 2.646-2.646 1.491.17 2.249.704 2.405.962.228.377-.081 2.811-.481 3.247-.401.436-2.853.969-3.321.77z"/>
</svg>
