<svg xmlns="http://www.w3.org/2000/svg" width="16" height="16" viewBox="0 0 16 16">
  <path fill-rule="evenodd" d="M4 13.997v.5a1.5 1.5 0 0 1-3 0v-.506a1.127 1.127 0 0 1-.87-1.642.753.753 0 0 0 .01-.694A1.664 1.664 0 0 1 0 11V9.501c0-.451.199-.854.513-1.129a1 1 0 0 1 .486-1.871h.03l.724-2.702c.295-1.098 1.246-1.808 2.174-1.793C4.091 2.003 4.476 2.001 5 2V.749A.75.75 0 0 1 5.75 0h4.5a.75.75 0 0 1 .75.749V2c.524.001.909.003 1.073.006.928-.015 1.879.695 2.174 1.793l.725 2.703a1 1 0 0 1 .491 1.833l.006.022c.325.275.531.685.531 1.144V11c0 .234-.054.454-.149.651a.76.76 0 0 0 .012.702c.09.152.137.33.137.52 0 .578-.438 1.055-1 1.118v.506a1.5 1.5 0 0 1-3 0v-.5H4zM3 10a1 1 0 1 1 0 2 1 1 0 0 1 0-2zm10 0a1 1 0 1 1 0 2 1 1 0 0 1 0-2zm-1-1.998h.509a.61.61 0 0 0 .588-.767l-.745-2.779a.61.61 0 0 0-.589-.451H4.237a.61.61 0 0 0-.589.451l-.745 2.779a.61.61 0 0 0 .588.767H4c.582-.002 7.418-.002 8 0zM9.241.999H6.759a.5.5 0 0 0 0 1h2.482a.5.5 0 0 0 0-1z"/>
</svg>
