<svg xmlns="http://www.w3.org/2000/svg" width="16" height="16" viewBox="0 0 16 16">
  <path fill-rule="evenodd" d="M16 4.658a.993.993 0 0 1-.346.753A3.432 3.432 0 0 0 14.491 8c0 1.031.445 1.958 1.154 2.6a.98.98 0 0 1 .34.742c.015.498.015 1.302.015 1.895a.765.765 0 0 1-.763.763H.763A.765.765 0 0 1 0 13.237v-1.895c0-.289.126-.564.346-.753A3.432 3.432 0 0 0 1.509 8 3.497 3.497 0 0 0 .355 5.4a.98.98 0 0 1-.34-.742C0 4.16 0 3.356 0 2.763A.765.765 0 0 1 .763 2h14.474a.765.765 0 0 1 .763.763v1.895zm-4 .932a.59.59 0 0 0-.59-.59H4.59a.59.59 0 0 0-.59.59v4.82c0 .326.264.59.59.59h6.82a.59.59 0 0 0 .59-.59V5.59zm-1 4.037a.373.373 0 0 1-.373.373H5.373A.373.373 0 0 1 5 9.627V6.373C5 6.167 5.167 6 5.373 6h5.254c.206 0 .373.167.373.373v3.254z"/>
</svg>
