<svg xmlns="http://www.w3.org/2000/svg" width="16" height="16" viewBox="0 0 16 16">
  <path fill-rule="evenodd" d="M12.52 2.073L13.705.888a1 1 0 0 1 1.414 1.414L1.714 15.707A.999.999 0 1 1 .3 14.293l.611-.611A2 2 0 0 1 0 12.004v-8a2 2 0 0 1 2-2h10c.18 0 .354.024.52.069zM12 14.004H6.257a.294.294 0 0 1-.207-.501l1.278-1.278a.755.755 0 0 1 .533-.221h3.737c.222 0 .402-.18.402-.402V7.898c0-.221.088-.433.244-.589l2.081-2.082a.766.766 0 0 1 .539-.223H15a1 1 0 0 1 1 1v4a1 1 0 0 1-1 1h-1v1a2 2 0 0 1-2 2zm-9.598-2h.186l8-8H2.402A.402.402 0 0 0 2 4.406v7.196c0 .222.18.402.402.402z"/>
</svg>
