<svg xmlns="http://www.w3.org/2000/svg" width="16" height="16" viewBox="0 0 16 16">
  <path fill-rule="evenodd" d="M8.056 1c2.382 0 4.992.34 5.938.623.596.237.988.815.988 1.457C15 4.556 15 7.278 15 9.533c0 3.261-4.739 6.442-6.974 6.467H8c-2.224 0-7-3.193-7-6.467 0-2.255 0-4.977.018-6.453 0-.642.392-1.22.988-1.457C2.959 1.337 5.604.995 8 1h.056zm2.753 4.351c.14.009.274.041.4.103a1.01 1.01 0 0 1 .516 1.169c-.043.15-.121.283-.223.4a107.443 107.443 0 0 1-3.508 3.508c-.081.071-.17.132-.269.176a1.014 1.014 0 0 1-.808 0 1.073 1.073 0 0 1-.27-.176 63.268 63.268 0 0 1-2.056-2.056 1.054 1.054 0 0 1-.223-.4 1.028 1.028 0 0 1-.034-.366 1.02 1.02 0 0 1 .289-.615 1.01 1.01 0 0 1 .981-.255c.165.047.309.137.433.255l1.284 1.284c.922-.923 1.825-1.866 2.768-2.768l.071-.059c.154-.11.322-.175.511-.197.046-.003.092-.005.138-.003z"/>
</svg>
