<svg xmlns="http://www.w3.org/2000/svg" width="16" height="16" viewBox="0 0 16 16">
  <path fill-rule="evenodd" d="M9.5 16h-3A1.5 1.5 0 0 1 5 14.5v-.238a2.07 2.07 0 0 0-.77-1.611A5.94 5.94 0 0 1 2 8c0-1.88.866-3.559 2.221-4.659.478-.387.759-.967.765-1.582C5 1.6 5 1.5 5 1.5A1.5 1.5 0 0 1 6.5 0h3A1.5 1.5 0 0 1 11 1.5v.238c0 .626.283 1.218.77 1.611A5.94 5.94 0 0 1 14 8c0 1.88-.866 3.559-2.221 4.659a2.062 2.062 0 0 0-.765 1.582C11 14.4 11 14.5 11 14.5A1.5 1.5 0 0 1 9.5 16zM8 4c2.208 0 4 1.792 4 4s-1.792 4-4 4-4-1.792-4-4 1.792-4 4-4zm-.306 5.306c-.551 0-1-.449-1-1V6.323a1.001 1.001 0 0 1 2 0v.983h.96a1 1 0 0 1 0 2h-1.96z"/>
</svg>
