<svg xmlns="http://www.w3.org/2000/svg" width="16" height="16" viewBox="0 0 16 16">
  <path fill-rule="evenodd" d="M7 4.001A.999.999 0 0 1 6.001 5h-.002A.999.999 0 0 1 5 4.001V2a2 2 0 0 1 2-2h6a2 2 0 0 1 2 2v11a2 2 0 0 1-2 2H7a2 2 0 0 1-2-2v-.853A1.148 1.148 0 0 1 6.147 11H13V4H7v.001zM9.999 12c.493 0 1 .508 1 1s-.507 1-1 1c-.492 0-1-.508-1-1s.508-1 1-1zM3.414 9l.879.878a1 1 0 0 1-1.414 1.415L.305 8.719l-.012-.012a.965.965 0 0 1-.216-.323l-.001-.001v-.001l-.001-.001a1.003 1.003 0 0 1-.015-.722v-.002l.001-.001a.995.995 0 0 1 .232-.363l.012-.012 2.574-2.574a1 1 0 0 1 1.414 1.414L3.414 7H7a1 1 0 0 1 0 2H3.414zm7.404-7H9.199a.501.501 0 0 0 0 1.003h1.619a.502.502 0 0 0 0-1.003z"/>
</svg>
