<svg xmlns="http://www.w3.org/2000/svg" width="16" height="16" viewBox="0 0 16 16">
  <path fill-rule="evenodd" d="M8 0c4.415 0 8 3.585 8 8s-3.585 8-8 8-8-3.585-8-8 3.585-8 8-8zm0 2c3.311 0 6 2.689 6 6s-2.689 6-6 6-6-2.689-6-6 2.689-6 6-6zm0 1.48v-.001c1.248 0 2.378.507 3.196 1.325a1 1 0 0 1 0 1.414L8.707 8.707A.987.987 0 0 1 8.006 9h-.038v-.001h-.022l-.001-.001h-.011a.82.82 0 0 1-.101-.012h-.001l-.003-.001h-.003l-.003-.001h-.005l-.001-.001h-.001a.983.983 0 0 1-.523-.276.983.983 0 0 1-.276-.523v-.001l-.001-.001v-.005l-.001-.003v-.003l-.001-.003v-.001a.82.82 0 0 1-.012-.101v-.011l-.001-.001v-.022H7V4.48a1 1 0 0 1 1-1z"/>
</svg>
