<svg xmlns="http://www.w3.org/2000/svg" width="16" height="16" viewBox="0 0 16 16">
  <path fill-rule="evenodd" d="M12.679 14.081a.367.367 0 0 1-.104.483 7.98 7.98 0 0 1-5.569 1.375.366.366 0 0 1-.27-.547l3.032-5.253a.366.366 0 0 1 .636 0l2.275 3.942zm-5.654-3.483a.366.366 0 0 1 .318.551l-2.276 3.943a.367.367 0 0 1-.472.15 8.045 8.045 0 0 1-3.97-4.14.366.366 0 0 1 .338-.502c1.303-.002 4.656-.002 6.062-.002zm8.583-3.586a.367.367 0 0 1 .367.337c.016.215.025.432.025.651a7.96 7.96 0 0 1-1.62 4.825.365.365 0 0 1-.604-.042 5775.45 5775.45 0 0 1-3.016-5.22.367.367 0 0 1 .318-.551h4.53zM1.628 3.165a.366.366 0 0 1 .604.043C2.972 4.486 5 7.999 5 7.999V8l.27.467a.369.369 0 0 1-.318.551H.394a.366.366 0 0 1-.366-.335 7.964 7.964 0 0 1 1.6-5.518zm1.715-1.262a.368.368 0 0 1 .106-.484A7.976 7.976 0 0 1 8.967.058a.368.368 0 0 1 .272.547L6.235 5.81a.369.369 0 0 1-.636 0L3.343 1.903zm7.582-.999a.368.368 0 0 1 .471-.151 8.045 8.045 0 0 1 3.979 4.145.366.366 0 0 1-.338.502c-1.305.002-4.665.002-6.073.002a.366.366 0 0 1-.318-.551L10.925.904z"/>
</svg>
