<svg xmlns="http://www.w3.org/2000/svg" width="16" height="16" viewBox="0 0 16 16">
  <path fill-rule="evenodd" d="M13 15H3c-1.104 0-2-.896-2-2V6.5c0-.682.342-1.284.863-1.645.02-.014.04-.027.06-.04l5.41-3.605C7.522 1.077 7.752 1 8 1c.248 0 .478.077.667.21l5.454 3.634c.53.36.879.967.879 1.656V13c0 1.104-.896 2-2 2zm-1.954-8.441c.155.011.304.049.441.125.313.175.513.514.513.874 0 .108-.018.215-.052.318-.044.133-.117.25-.209.355-1.142 1.196-2.312 2.366-3.508 3.508-.082.071-.17.132-.269.176-.256.113-.553.113-.808 0-.1-.044-.188-.105-.27-.176-.701-.669-1.387-1.355-2.056-2.056-.112-.129-.195-.277-.234-.445-.025-.105-.033-.214-.023-.321.034-.358.263-.677.592-.822.113-.05.235-.079.358-.085.123-.005.247.012.364.051.148.05.277.134.389.241l1.284 1.284c.922-.923 1.825-1.866 2.768-2.767.035-.031.035-.031.071-.059.154-.111.322-.176.511-.198.046-.003.092-.004.138-.003z"/>
</svg>
