<svg xmlns="http://www.w3.org/2000/svg" width="16" height="16" viewBox="0 0 16 16">
  <path fill-rule="evenodd" d="M3.193 13.567l-.173-.009a2.865 2.865 0 0 1-2.096-1.081 2.846 2.846 0 0 1-.569-2.285l1.446-7.853A2.86 2.86 0 0 1 5.118.045l8.214 1.46a2.856 2.856 0 0 1 2.349 3.063l-.612 6.865a2.861 2.861 0 0 1-3.001 2.598l-5.212-.273-1.954 1.949a1 1 0 0 1-1.709-.705v-1.435zM8.019 2.844a.753.753 0 0 1 .714.716.81.81 0 0 1-.051.304l-.114.291c.037-.006.037-.005.074-.009h.089a.766.766 0 0 1 .612.387l.453.821 1.783.392c.043.011.042.011.085.024a.8.8 0 0 1 .296.19c.23.24.272.615.101.9a.791.791 0 0 1-.209.226l-1.278.905.577 1.345c.016.041.016.041.03.084a.774.774 0 0 1 .006.397.757.757 0 0 1-.767.56.797.797 0 0 1-.34-.103L8.354 9.259 6.19 10.978c-.037.027-.036.026-.074.051a.793.793 0 0 1-.34.11.756.756 0 0 1-.778-.554.775.775 0 0 1 .004-.4l.653-2.262-1.274-1.41c-.029-.034-.029-.034-.055-.069a.791.791 0 0 1-.13-.326.754.754 0 0 1 .441-.791.8.8 0 0 1 .301-.063h1.585l.762-1.945.037-.08a.77.77 0 0 1 .697-.395zM7.035 6.76a.755.755 0 0 0 .698-.476l.359-.916.554 1.004a.777.777 0 0 0 .374.332c.04.016.04.015.08.028.167.042.336.075.503.112l-.39.277a.766.766 0 0 0-.314.559c-.002.044-.002.044-.001.088.003.04.003.039.008.078l-.234-.137a.758.758 0 0 0-.774.007c-.038.025-.038.024-.074.052l-.73.579.118-.409a.767.767 0 0 0-.083-.601c-.025-.037-.024-.037-.052-.073-.146-.172-.302-.336-.453-.504h.411z"/>
</svg>
